<svg width="525" height="36" viewBox="0 0 525 36" fill="none" xmlns="http://www.w3.org/2000/svg">
<path d="M524.431 23.4147C524.019 25.0347 523.242 26.1783 522.098 26.8454C520.977 27.5124 519.731 27.846 518.359 27.846C515.82 27.846 513.922 27.0479 512.664 25.4516C511.406 23.8316 510.777 21.6755 510.777 18.9834V18.2687C510.777 15.6004 511.383 13.4681 512.595 11.8719C513.807 10.2518 515.568 9.4418 517.878 9.4418C519.113 9.4418 520.234 9.70387 521.24 10.228C522.27 10.7521 523.081 11.5264 523.676 12.5509C524.294 13.5753 524.602 14.8499 524.602 16.3746C524.602 17.0894 524.534 17.8398 524.397 18.626H513.865V19.6981C513.865 22.1996 514.231 23.9984 514.962 25.0943C515.717 26.1664 516.929 26.7024 518.599 26.7024C519.651 26.7024 520.52 26.4165 521.206 25.8447C521.915 25.273 522.384 24.2843 522.613 22.8786L524.431 23.4147ZM517.878 10.5854C516.529 10.5854 515.523 11.1214 514.86 12.1935C514.196 13.2656 513.865 15.0286 513.865 17.4825H521.583V17.3753C521.629 17.0655 521.663 16.7677 521.686 16.4818C521.709 16.1721 521.721 15.8982 521.721 15.6599C521.721 13.8731 521.366 12.5866 520.657 11.8004C519.948 10.9904 519.022 10.5854 517.878 10.5854Z" fill="black"/>
<path d="M507.653 26.5952V27.4886H502.369V24.6654C501.66 25.7613 500.871 26.5714 500.002 27.0955C499.156 27.5958 498.207 27.846 497.155 27.846C495.188 27.846 493.656 27.0836 492.558 25.5588C491.483 24.0103 490.946 21.8304 490.946 19.0191V18.3044C490.946 15.6122 491.575 13.4681 492.832 11.8719C494.113 10.2518 495.863 9.44178 498.081 9.44178C499.705 9.44178 501.077 9.96592 502.198 11.0142V3.9384C502.198 3.10455 502.164 2.61616 502.095 2.47321C502.026 2.33027 501.809 2.23497 501.443 2.18732L499.556 2.00864V1.04376H505.011V24.594C505.011 25.4278 505.045 25.9162 505.114 26.0591C505.183 26.2021 505.4 26.2974 505.766 26.345L507.653 26.5952ZM494.033 20.0912C494.033 22.3307 494.342 23.9745 494.959 25.0228C495.6 26.0711 496.48 26.5952 497.601 26.5952C498.333 26.5952 499.088 26.357 499.865 25.8805C500.643 25.404 501.42 24.4391 502.198 22.9858V12.7653C501.192 11.3596 499.877 10.6568 498.253 10.6568C496.789 10.6568 495.714 11.2405 495.028 12.4079C494.365 13.5753 494.033 15.1834 494.033 17.2323V20.0912Z" fill="black"/>
<path d="M483.679 5.79671C483.13 5.79671 482.672 5.61803 482.307 5.26067C481.963 4.87948 481.792 4.39108 481.792 3.79548C481.792 3.2237 481.963 2.75913 482.307 2.40177C482.672 2.0444 483.13 1.86572 483.679 1.86572C484.228 1.86572 484.674 2.0444 485.017 2.40177C485.383 2.75913 485.566 3.2237 485.566 3.79548C485.566 4.39108 485.383 4.87948 485.017 5.26067C484.674 5.61803 484.228 5.79671 483.679 5.79671ZM479.665 10.7641V9.79917H485.12V24.594C485.12 25.4278 485.154 25.9162 485.223 26.0592C485.291 26.2021 485.508 26.2974 485.874 26.3451L487.761 26.5595V27.4886H479.665V26.5595L481.552 26.3451C481.918 26.2974 482.135 26.2021 482.204 26.0592C482.272 25.9162 482.307 25.4278 482.307 24.594V12.6938C482.307 11.86 482.272 11.3716 482.204 11.2286C482.135 11.0857 481.918 10.9904 481.552 10.9427L479.665 10.7641Z" fill="black"/>
<path d="M470.655 20.2699L468.562 19.7338C465.703 18.9715 464.274 17.2561 464.274 14.5878C464.274 13.7063 464.468 12.8725 464.857 12.0863C465.246 11.3001 465.863 10.6687 466.71 10.1923C467.579 9.69196 468.688 9.4418 470.037 9.4418C471.547 9.4418 472.759 9.70387 473.674 10.228C474.589 10.7521 475.229 11.4311 475.595 12.265C475.961 13.0988 476.075 14.0041 475.938 14.9809L473.262 15.4812C473.537 13.9327 473.376 12.7295 472.782 11.8719C472.21 11.0142 471.261 10.5854 469.934 10.5854C468.905 10.5854 468.082 10.8593 467.464 11.4073C466.847 11.9314 466.538 12.7057 466.538 13.7302C466.538 14.4925 466.767 15.1715 467.224 15.7671C467.682 16.3389 468.448 16.7677 469.523 17.0536L471.684 17.5897C473.194 17.9709 474.36 18.5784 475.183 19.4122C476.029 20.2461 476.453 21.342 476.453 22.7C476.453 24.2247 475.915 25.4636 474.84 26.4165C473.788 27.3695 472.279 27.846 470.312 27.846C469.374 27.846 468.459 27.703 467.567 27.4171C466.698 27.1074 465.932 26.6309 465.269 25.9877C464.628 25.3206 464.16 24.4629 463.862 23.4147L465.783 22.7C466.035 24.2009 466.584 25.2491 467.43 25.8447C468.276 26.4404 469.248 26.7382 470.346 26.7382C470.986 26.7382 471.593 26.6309 472.164 26.4165C472.759 26.2021 473.239 25.8686 473.605 25.4159C473.971 24.9394 474.154 24.3319 474.154 23.5934C474.154 22.831 473.902 22.1758 473.399 21.6279C472.896 21.0799 471.981 20.6273 470.655 20.2699Z" fill="black"/>
<path d="M448.341 10.764V9.79917H453.624V12.6581C454.424 11.5383 455.225 10.7283 456.025 10.228C456.848 9.70387 457.683 9.4418 458.529 9.4418C459.261 9.4418 459.947 9.66813 460.588 10.1208C461.228 10.5735 461.766 11.3001 462.2 12.3007L459.97 13.6944C459.627 12.8367 459.238 12.2411 458.804 11.9076C458.369 11.5741 457.889 11.4073 457.363 11.4073C456.791 11.4073 456.219 11.5979 455.648 11.9791C455.099 12.3603 454.481 13.075 453.795 14.1233V24.594C453.795 25.4278 453.83 25.9281 453.898 26.0949C453.967 26.2378 454.184 26.3212 454.55 26.3451L457.123 26.5595V27.4886H448.341V26.5595L450.227 26.3451C450.593 26.2974 450.811 26.2021 450.879 26.0592C450.948 25.9162 450.982 25.4278 450.982 24.594V12.6938C450.982 11.86 450.948 11.3716 450.879 11.2286C450.811 11.0857 450.593 10.9904 450.227 10.9427L448.341 10.764Z" fill="black"/>
<path d="M444.931 23.4147C444.519 25.0347 443.742 26.1783 442.598 26.8454C441.477 27.5124 440.231 27.846 438.859 27.846C436.32 27.846 434.422 27.0479 433.164 25.4516C431.906 23.8316 431.277 21.6755 431.277 18.9834V18.2687C431.277 15.6004 431.883 13.4681 433.095 11.8719C434.307 10.2518 436.068 9.4418 438.378 9.4418C439.613 9.4418 440.734 9.70387 441.74 10.228C442.77 10.7521 443.581 11.5264 444.176 12.5509C444.794 13.5753 445.102 14.8499 445.102 16.3746C445.102 17.0894 445.034 17.8398 444.897 18.626H434.365V19.6981C434.365 22.1996 434.731 23.9984 435.462 25.0943C436.217 26.1664 437.429 26.7024 439.099 26.7024C440.151 26.7024 441.02 26.4165 441.706 25.8447C442.415 25.273 442.884 24.2843 443.113 22.8786L444.931 23.4147ZM438.378 10.5854C437.029 10.5854 436.023 11.1214 435.36 12.1935C434.696 13.2656 434.365 15.0286 434.365 17.4825H442.083V17.3753C442.129 17.0655 442.164 16.7677 442.186 16.4818C442.209 16.1721 442.221 15.8982 442.221 15.6599C442.221 13.8731 441.866 12.5866 441.157 11.8004C440.448 10.9904 439.522 10.5854 438.378 10.5854Z" fill="black"/>
<path d="M426.892 12.4794L421.884 27.4886H419.654L414.611 12.4794C414.382 11.7885 414.211 11.3716 414.096 11.2286C413.982 11.0857 413.742 10.9904 413.376 10.9427L411.626 10.764V9.79916H419.448V10.764L417.698 10.9427C417.332 10.9904 417.138 11.0857 417.115 11.2286C417.092 11.3477 417.195 11.7647 417.424 12.4794L421.575 24.9156L425.657 12.4794C425.886 11.7647 425.989 11.3477 425.966 11.2286C425.943 11.0857 425.749 10.9904 425.383 10.9427L423.599 10.764V9.79916H429.843V10.764L428.093 10.9427C427.727 10.9904 427.487 11.0857 427.373 11.2286C427.281 11.3477 427.121 11.7647 426.892 12.4794Z" fill="black"/>
<path d="M407.026 5.79671C406.478 5.79671 406.02 5.61803 405.654 5.26067C405.311 4.87948 405.14 4.39108 405.14 3.79548C405.14 3.2237 405.311 2.75913 405.654 2.40177C406.02 2.0444 406.478 1.86572 407.026 1.86572C407.575 1.86572 408.021 2.0444 408.364 2.40177C408.73 2.75913 408.913 3.2237 408.913 3.79548C408.913 4.39108 408.73 4.87948 408.364 5.26067C408.021 5.61803 407.575 5.79671 407.026 5.79671ZM403.013 10.7641V9.79917H408.467V24.594C408.467 25.4278 408.502 25.9162 408.57 26.0592C408.639 26.2021 408.856 26.2974 409.222 26.3451L411.109 26.5595V27.4886H403.013V26.5595L404.9 26.3451C405.265 26.2974 405.483 26.2021 405.551 26.0592C405.62 25.9162 405.654 25.4278 405.654 24.594V12.6938C405.654 11.86 405.62 11.3716 405.551 11.2286C405.483 11.0857 405.265 10.9904 404.9 10.9427L403.013 10.7641Z" fill="black"/>
<path d="M382.017 4.15284V3.18796H391.554C393.796 3.18796 395.511 3.74783 396.7 4.86756C397.912 5.96347 398.518 7.42866 398.518 9.26312V10.3709C398.518 11.8242 398.13 13.0631 397.352 14.0875C396.597 15.0881 395.511 15.779 394.093 16.1602L398.484 24.594C398.781 25.1658 398.999 25.5708 399.136 25.809C399.273 26.0234 399.399 26.1664 399.513 26.2378C399.651 26.2855 399.834 26.3212 400.062 26.3451L401.606 26.5595V27.4886H396.426L391.005 16.4818H387.643V24.594C387.643 25.4278 387.678 25.9162 387.746 26.0592C387.815 26.2021 388.032 26.2974 388.398 26.3451L390.285 26.5595V27.4886H382.017V26.5595L383.904 26.3451C384.27 26.2974 384.487 26.2021 384.556 26.0592C384.625 25.9162 384.659 25.4278 384.659 24.594V6.0826C384.659 5.24875 384.625 4.76035 384.556 4.61741C384.487 4.47446 384.27 4.37917 383.904 4.33152L382.017 4.15284ZM391.554 4.33152H387.643V15.3383H391.554C392.744 15.3383 393.67 14.9452 394.333 14.159C395.019 13.349 395.362 12.1339 395.362 10.5139V9.12018C395.362 7.50013 395.019 6.29701 394.333 5.51082C393.67 4.72462 392.744 4.33152 391.554 4.33152Z" fill="black"/>
<path d="M370.066 26.3093C370.066 27.3814 369.723 28.6322 369.037 30.0616C368.374 31.4911 367.447 32.9324 366.258 34.3857L365.503 33.7425C366.441 32.5512 367.116 31.4553 367.527 30.4547C367.939 29.4779 368.168 28.6083 368.214 27.846H368.179C367.63 27.846 367.184 27.6673 366.841 27.3099C366.498 26.9526 366.327 26.488 366.327 25.9162C366.327 25.3444 366.498 24.8799 366.841 24.5225C367.184 24.1651 367.63 23.9865 368.179 23.9865C368.728 23.9865 369.174 24.189 369.517 24.594C369.883 24.9752 370.066 25.5469 370.066 26.3093Z" fill="black"/>
<path d="M360.562 27.7388C358.778 27.7388 357.726 26.8811 357.406 25.1658C356.605 26.1187 355.725 26.8096 354.764 27.2385C353.804 27.6435 352.855 27.846 351.917 27.846C350.316 27.846 349.138 27.3814 348.383 26.4523C347.629 25.5231 347.251 24.4034 347.251 23.0931C347.251 21.6874 347.709 20.5796 348.623 19.7696C349.561 18.9357 351.174 18.5188 353.461 18.5188H357.337V15.6242C357.337 13.7182 357.017 12.4079 356.377 11.6932C355.759 10.9546 354.913 10.5854 353.838 10.5854C353.152 10.5854 352.534 10.7283 351.985 11.0142C351.437 11.3001 351.036 11.8242 350.785 12.5866C350.556 13.3251 350.533 14.4091 350.716 15.8386L348.006 15.4098C347.892 14.29 348.029 13.2894 348.418 12.4079C348.829 11.5026 349.493 10.7879 350.407 10.2637C351.345 9.71578 352.511 9.4418 353.907 9.4418C355.576 9.4418 356.857 9.73961 357.749 10.3352C358.641 10.907 359.258 11.6575 359.601 12.5866C359.967 13.5157 360.15 14.5283 360.15 15.6242V23.6648C360.15 24.8799 360.276 25.6422 360.528 25.952C360.802 26.2617 361.099 26.4165 361.42 26.4165C361.625 26.4165 361.843 26.3689 362.071 26.2736C362.3 26.1545 362.552 25.9758 362.826 25.7375L363.444 26.6309C363.101 26.9407 362.689 27.2027 362.209 27.4171C361.751 27.6316 361.202 27.7388 360.562 27.7388ZM352.877 26.3451C353.518 26.3451 354.204 26.1664 354.936 25.809C355.69 25.4278 356.491 24.6774 357.337 23.5576V19.6624H353.838C352.557 19.6624 351.62 19.9364 351.025 20.4843C350.453 21.0084 350.167 21.8304 350.167 22.9501C350.167 24.0222 350.384 24.856 350.819 25.4516C351.276 26.0473 351.963 26.3451 352.877 26.3451Z" fill="black"/>
<path d="M340.19 5.79671C339.641 5.79671 339.184 5.61803 338.818 5.26067C338.475 4.87948 338.303 4.39108 338.303 3.79548C338.303 3.2237 338.475 2.75913 338.818 2.40177C339.184 2.0444 339.641 1.86572 340.19 1.86572C340.739 1.86572 341.185 2.0444 341.528 2.40177C341.894 2.75913 342.077 3.2237 342.077 3.79548C342.077 4.39108 341.894 4.87948 341.528 5.26067C341.185 5.61803 340.739 5.79671 340.19 5.79671ZM336.176 10.7641V9.79917H341.631V24.594C341.631 25.4278 341.665 25.9162 341.734 26.0592C341.802 26.2021 342.02 26.2974 342.386 26.3451L344.272 26.5595V27.4886H336.176V26.5595L338.063 26.3451C338.429 26.2974 338.646 26.2021 338.715 26.0592C338.784 25.9162 338.818 25.4278 338.818 24.594V12.6938C338.818 11.86 338.784 11.3716 338.715 11.2286C338.646 11.0857 338.429 10.9904 338.063 10.9427L336.176 10.7641Z" fill="black"/>
<path d="M334.18 26.5595V27.4886H326.084V26.5595L327.971 26.3451C328.337 26.2974 328.554 26.2021 328.623 26.0592C328.691 25.9162 328.726 25.4278 328.726 24.594V15.6956C328.726 13.9327 328.451 12.6938 327.902 11.9791C327.353 11.2405 326.564 10.8713 325.535 10.8713C324.78 10.8713 323.946 11.1095 323.031 11.586C322.116 12.0625 321.258 12.9916 320.458 14.3734V24.594C320.458 25.4278 320.492 25.9162 320.561 26.0592C320.629 26.2021 320.847 26.2974 321.213 26.3451L323.099 26.5595V27.4886H315.003V26.5595L316.89 26.3451C317.256 26.2974 317.473 26.2021 317.542 26.0592C317.61 25.9162 317.645 25.4278 317.645 24.594V12.6938C317.645 11.86 317.61 11.3716 317.542 11.2286C317.473 11.0857 317.256 10.9904 316.89 10.9427L315.003 10.764V9.79917H320.286V12.6938C321.11 11.5502 322.036 10.7283 323.065 10.228C324.117 9.70387 325.169 9.4418 326.221 9.4418C327.914 9.4418 329.217 9.98976 330.132 11.0857C331.07 12.1578 331.539 13.6825 331.539 15.6599V24.594C331.539 25.4278 331.573 25.9162 331.642 26.0592C331.71 26.2021 331.927 26.2974 332.293 26.3451L334.18 26.5595Z" fill="black"/>
<path d="M299.927 10.764V9.79917H305.21V12.6581C306.011 11.5383 306.811 10.7283 307.612 10.228C308.435 9.70387 309.27 9.4418 310.116 9.4418C310.848 9.4418 311.534 9.66813 312.174 10.1208C312.815 10.5735 313.352 11.3001 313.787 12.3007L311.557 13.6944C311.214 12.8367 310.825 12.2411 310.391 11.9076C309.956 11.5741 309.476 11.4073 308.95 11.4073C308.378 11.4073 307.806 11.5979 307.234 11.9791C306.686 12.3603 306.068 13.075 305.382 14.1233V24.594C305.382 25.4278 305.416 25.9281 305.485 26.0949C305.553 26.2378 305.771 26.3212 306.137 26.3451L308.71 26.5595V27.4886H299.927V26.5595L301.814 26.3451C302.18 26.2974 302.397 26.2021 302.466 26.0592C302.534 25.9162 302.569 25.4278 302.569 24.594V12.6938C302.569 11.86 302.534 11.3716 302.466 11.2286C302.397 11.0857 302.18 10.9904 301.814 10.9427L299.927 10.764Z" fill="black"/>
<path d="M296.612 18.2687V18.9834C296.612 21.6755 295.96 23.8316 294.657 25.4516C293.376 27.0479 291.546 27.846 289.168 27.846C286.812 27.846 284.982 27.0479 283.679 25.4516C282.398 23.8316 281.758 21.6755 281.758 18.9834V18.2687C281.758 15.6004 282.398 13.4681 283.679 11.8719C284.959 10.2518 286.789 9.4418 289.168 9.4418C291.546 9.4418 293.376 10.2518 294.657 11.8719C295.96 13.4681 296.612 15.6004 296.612 18.2687ZM293.524 17.5539C293.524 15.0762 293.147 13.3013 292.392 12.2292C291.661 11.1333 290.586 10.5854 289.168 10.5854C287.773 10.5854 286.698 11.1333 285.943 12.2292C285.211 13.3013 284.845 15.0762 284.845 17.5539V19.6981C284.845 22.1996 285.211 23.9984 285.943 25.0943C286.698 26.1664 287.773 26.7024 289.168 26.7024C290.586 26.7024 291.661 26.1664 292.392 25.0943C293.147 23.9984 293.524 22.1996 293.524 19.6981V17.5539Z" fill="black"/>
<path d="M277.452 26.5595V27.4886H268.67V26.5595L270.557 26.3451C270.923 26.2974 271.14 26.2021 271.209 26.0592C271.277 25.9162 271.312 25.4278 271.312 24.594V12.6938C271.312 11.86 271.277 11.3716 271.209 11.2286C271.163 11.0857 270.946 10.9904 270.557 10.9427L268.67 10.764V9.79916H271.312V7.22615C271.312 6.10642 271.472 5.04624 271.792 4.04563C272.135 3.04501 272.718 2.23499 273.542 1.61556C274.365 0.996131 275.497 0.686417 276.938 0.686417C278.836 0.686417 280.243 1.22246 281.158 2.29455C282.072 3.36664 282.404 4.67697 282.152 6.22554L279.477 6.61864C279.682 4.97477 279.568 3.77165 279.133 3.00927C278.722 2.22308 277.99 1.82998 276.938 1.82998C276.343 1.82998 275.829 1.97292 275.394 2.25881C274.982 2.52088 274.662 3.00927 274.434 3.724C274.228 4.4149 274.125 5.41552 274.125 6.72585V9.79916H279.579V10.9427H274.125V24.594C274.125 25.4278 274.159 25.9281 274.228 26.0949C274.296 26.2378 274.514 26.3212 274.88 26.3451L277.452 26.5595Z" fill="black"/>
<path d="M262.432 5.79671C261.883 5.79671 261.426 5.61803 261.06 5.26067C260.717 4.87948 260.545 4.39108 260.545 3.79548C260.545 3.2237 260.717 2.75913 261.06 2.40177C261.426 2.0444 261.883 1.86572 262.432 1.86572C262.981 1.86572 263.427 2.0444 263.77 2.40177C264.136 2.75913 264.319 3.2237 264.319 3.79548C264.319 4.39108 264.136 4.87948 263.77 5.26067C263.427 5.61803 262.981 5.79671 262.432 5.79671ZM258.418 10.7641V9.79917H263.873V24.594C263.873 25.4278 263.907 25.9162 263.976 26.0592C264.045 26.2021 264.262 26.2974 264.628 26.3451L266.515 26.5595V27.4886H258.418V26.5595L260.305 26.3451C260.671 26.2974 260.888 26.2021 260.957 26.0592C261.026 25.9162 261.06 25.4278 261.06 24.594V12.6938C261.06 11.86 261.026 11.3716 260.957 11.2286C260.888 11.0857 260.671 10.9904 260.305 10.9427L258.418 10.7641Z" fill="black"/>
<path d="M248.128 2.00864V1.04376H253.583V24.594C253.583 25.4278 253.617 25.9162 253.685 26.0592C253.754 26.2021 253.971 26.2974 254.337 26.345L256.224 26.5595V27.4886H248.128V26.5595L250.015 26.345C250.381 26.2974 250.598 26.2021 250.667 26.0592C250.735 25.9162 250.769 25.4278 250.769 24.594V3.9384C250.769 3.10455 250.735 2.61616 250.667 2.47321C250.598 2.33027 250.381 2.23497 250.015 2.18732L248.128 2.00864Z" fill="black"/>
<path d="M243.976 27.7388C242.192 27.7388 241.14 26.8811 240.819 25.1658C240.019 26.1187 239.138 26.8096 238.178 27.2385C237.217 27.6435 236.268 27.846 235.33 27.846C233.729 27.846 232.552 27.3814 231.797 26.4523C231.042 25.5231 230.665 24.4034 230.665 23.0931C230.665 21.6874 231.122 20.5796 232.037 19.7696C232.975 18.9357 234.587 18.5188 236.874 18.5188H240.751V15.6242C240.751 13.7182 240.431 12.4079 239.79 11.6932C239.173 10.9546 238.326 10.5854 237.252 10.5854C236.565 10.5854 235.948 10.7283 235.399 11.0142C234.85 11.3001 234.45 11.8242 234.198 12.5866C233.97 13.3251 233.947 14.4091 234.13 15.8386L231.42 15.4098C231.305 14.29 231.442 13.2894 231.831 12.4079C232.243 11.5026 232.906 10.7879 233.821 10.2637C234.759 9.71578 235.925 9.4418 237.32 9.4418C238.99 9.4418 240.27 9.73961 241.162 10.3352C242.054 10.907 242.672 11.6575 243.015 12.5866C243.381 13.5157 243.564 14.5283 243.564 15.6242V23.6648C243.564 24.8799 243.69 25.6422 243.941 25.952C244.216 26.2617 244.513 26.4165 244.833 26.4165C245.039 26.4165 245.256 26.3689 245.485 26.2736C245.714 26.1545 245.965 25.9758 246.24 25.7375L246.857 26.6309C246.514 26.9407 246.102 27.2027 245.622 27.4171C245.165 27.6316 244.616 27.7388 243.976 27.7388ZM236.291 26.3451C236.931 26.3451 237.617 26.1664 238.349 25.809C239.104 25.4278 239.905 24.6774 240.751 23.5576V19.6624H237.252C235.971 19.6624 235.033 19.9364 234.438 20.4843C233.867 21.0084 233.581 21.8304 233.581 22.9501C233.581 24.0222 233.798 24.856 234.233 25.4516C234.69 26.0473 235.376 26.3451 236.291 26.3451Z" fill="black"/>
<path d="M220.065 27.846C217.16 27.846 214.942 26.8334 213.409 24.8084C211.9 22.7833 211.145 20.0674 211.145 16.6605V13.9803C211.145 11.7408 211.465 9.78724 212.106 8.11955C212.769 6.45186 213.741 5.15344 215.022 4.2243C216.303 3.29515 217.869 2.83058 219.722 2.83058C221.437 2.83058 222.855 3.18794 223.976 3.90267C225.096 4.59357 225.908 5.5108 226.411 6.65436C226.915 7.7741 227.075 9.00104 226.892 10.3352L223.941 11.0857C224.193 8.79854 223.941 7.04746 223.187 5.83243C222.432 4.59357 221.277 3.97414 219.722 3.97414C217.984 3.97414 216.657 4.61739 215.742 5.9039C214.85 7.19041 214.404 9.28694 214.404 12.1935V18.4473C214.404 21.3777 214.885 23.4861 215.845 24.7726C216.806 26.0592 218.235 26.7024 220.133 26.7024C220.888 26.7024 221.609 26.5714 222.295 26.3093C222.981 26.0234 223.564 25.5469 224.044 24.8799C224.525 24.2128 224.822 23.2836 224.936 22.0924L227.063 22.6642C226.56 24.5701 225.668 25.9162 224.387 26.7024C223.129 27.4648 221.689 27.846 220.065 27.846Z" fill="black"/>
<path d="M198.522 26.5595V27.4886H189.74V26.5595L191.627 26.3451C191.993 26.2974 192.21 26.2021 192.278 26.0592C192.347 25.9162 192.381 25.4278 192.381 24.594V12.6938C192.381 11.86 192.347 11.3716 192.278 11.2286C192.233 11.0857 192.015 10.9904 191.627 10.9427L189.74 10.764V9.79916H192.381V7.22615C192.381 6.10642 192.541 5.04624 192.862 4.04563C193.205 3.04501 193.788 2.23499 194.611 1.61556C195.435 0.996131 196.567 0.686417 198.007 0.686417C199.906 0.686417 201.312 1.22246 202.227 2.29455C203.142 3.36664 203.474 4.67697 203.222 6.22554L200.546 6.61864C200.752 4.97477 200.638 3.77165 200.203 3.00927C199.791 2.22308 199.06 1.82998 198.007 1.82998C197.413 1.82998 196.898 1.97292 196.464 2.25881C196.052 2.52088 195.732 3.00927 195.503 3.724C195.297 4.4149 195.194 5.41552 195.194 6.72585V9.79916H200.649V10.9427H195.194V24.594C195.194 25.4278 195.229 25.9281 195.297 26.0949C195.366 26.2378 195.583 26.3212 195.949 26.3451L198.522 26.5595Z" fill="black"/>
<path d="M186.425 18.2687V18.9834C186.425 21.6755 185.773 23.8316 184.469 25.4516C183.188 27.0479 181.359 27.846 178.98 27.846C176.624 27.846 174.795 27.0479 173.491 25.4516C172.21 23.8316 171.57 21.6755 171.57 18.9834V18.2687C171.57 15.6004 172.21 13.4681 173.491 11.8719C174.772 10.2518 176.602 9.4418 178.98 9.4418C181.359 9.4418 183.188 10.2518 184.469 11.8719C185.773 13.4681 186.425 15.6004 186.425 18.2687ZM183.337 17.5539C183.337 15.0762 182.96 13.3013 182.205 12.2292C181.473 11.1333 180.398 10.5854 178.98 10.5854C177.585 10.5854 176.51 11.1333 175.755 12.2292C175.024 13.3013 174.658 15.0762 174.658 17.5539V19.6981C174.658 22.1996 175.024 23.9984 175.755 25.0943C176.51 26.1664 177.585 26.7024 178.98 26.7024C180.398 26.7024 181.473 26.1664 182.205 25.0943C182.96 23.9984 183.337 22.1996 183.337 19.6981V17.5539Z" fill="black"/>
<path d="M153.152 29.2754C152.649 30.7287 152.1 31.908 151.505 32.8133C150.91 33.7425 150.202 34.4095 149.378 34.8146C148.555 35.2434 147.526 35.4578 146.291 35.4578V32.5989C147.937 32.5989 149.184 32.3249 150.03 31.777C150.876 31.2528 151.551 30.2641 152.054 28.8109L152.5 27.4886H151.505L146.462 12.4794C146.233 11.7885 146.062 11.3835 145.948 11.2644C145.833 11.1214 145.593 11.0261 145.227 10.9785L143.478 10.764V9.79916H151.299V10.764L149.55 10.9785C149.229 11.0023 149.047 11.0857 149.001 11.2286C148.955 11.3716 149.047 11.7885 149.275 12.4794L153.392 24.8441L157.543 12.4436C157.749 11.7527 157.829 11.3477 157.783 11.2286C157.76 11.1095 157.577 11.0261 157.234 10.9785L155.45 10.764V9.79916H161.728V10.764L159.979 10.9785C159.636 11.0261 159.407 11.1095 159.293 11.2286C159.178 11.3477 159.007 11.7527 158.778 12.4436L153.152 29.2754Z" fill="black"/>
<path d="M142.801 23.8435C142.458 25.2253 141.92 26.2378 141.189 26.8811C140.457 27.5243 139.519 27.846 138.376 27.846C137.278 27.846 136.386 27.5958 135.7 27.0955C135.014 26.5714 134.51 25.8924 134.19 25.0585C133.87 24.2247 133.71 23.3551 133.71 22.4498V12.6938C133.71 11.86 133.676 11.3716 133.607 11.2286C133.561 11.0857 133.344 10.9904 132.955 10.9427L131.068 10.764V9.79916H133.71V5.11771L136.523 4.51019V9.79916H142.115V10.9427H136.523V22.7357C136.523 24.2366 136.717 25.273 137.106 25.8447C137.518 26.4165 138.055 26.7024 138.719 26.7024C139.382 26.7024 139.885 26.4403 140.228 25.9162C140.594 25.3921 140.857 24.5344 141.017 23.3432L142.801 23.8435Z" fill="black"/>
<path d="M125.242 5.79671C124.693 5.79671 124.236 5.61803 123.87 5.26067C123.527 4.87948 123.355 4.39108 123.355 3.79548C123.355 3.2237 123.527 2.75913 123.87 2.40177C124.236 2.0444 124.693 1.86572 125.242 1.86572C125.791 1.86572 126.237 2.0444 126.58 2.40177C126.946 2.75913 127.129 3.2237 127.129 3.79548C127.129 4.39108 126.946 4.87948 126.58 5.26067C126.237 5.61803 125.791 5.79671 125.242 5.79671ZM121.229 10.7641V9.79917H126.683V24.594C126.683 25.4278 126.717 25.9162 126.786 26.0592C126.855 26.2021 127.072 26.2974 127.438 26.3451L129.325 26.5595V27.4886H121.229V26.5595L123.115 26.3451C123.481 26.2974 123.699 26.2021 123.767 26.0592C123.836 25.9162 123.87 25.4278 123.87 24.594V12.6938C123.87 11.86 123.836 11.3716 123.767 11.2286C123.699 11.0857 123.481 10.9904 123.115 10.9427L121.229 10.7641Z" fill="black"/>
<path d="M112.219 20.2699L110.126 19.7338C107.267 18.9715 105.838 17.2561 105.838 14.5878C105.838 13.7063 106.032 12.8725 106.421 12.0863C106.81 11.3001 107.427 10.6687 108.273 10.1923C109.142 9.69196 110.252 9.4418 111.601 9.4418C113.111 9.4418 114.323 9.70387 115.238 10.228C116.152 10.7521 116.793 11.4311 117.159 12.265C117.525 13.0988 117.639 14.0041 117.502 14.9809L114.826 15.4812C115.1 13.9327 114.94 12.7295 114.346 11.8719C113.774 11.0142 112.825 10.5854 111.498 10.5854C110.469 10.5854 109.646 10.8593 109.028 11.4073C108.411 11.9314 108.102 12.7057 108.102 13.7302C108.102 14.4925 108.331 15.1715 108.788 15.7671C109.245 16.3389 110.012 16.7677 111.087 17.0536L113.248 17.5897C114.757 17.9709 115.924 18.5784 116.747 19.4122C117.593 20.2461 118.016 21.342 118.016 22.7C118.016 24.2247 117.479 25.4636 116.404 26.4165C115.352 27.3695 113.842 27.846 111.876 27.846C110.938 27.846 110.023 27.703 109.131 27.4171C108.262 27.1074 107.496 26.6309 106.833 25.9877C106.192 25.3206 105.723 24.4629 105.426 23.4147L107.347 22.7C107.599 24.2009 108.148 25.2491 108.994 25.8447C109.84 26.4404 110.812 26.7382 111.91 26.7382C112.55 26.7382 113.156 26.6309 113.728 26.4165C114.323 26.2021 114.803 25.8686 115.169 25.4159C115.535 24.9394 115.718 24.3319 115.718 23.5934C115.718 22.831 115.466 22.1758 114.963 21.6279C114.46 21.0799 113.545 20.6273 112.219 20.2699Z" fill="black"/>
<path d="M89.9043 10.764V9.79917H95.1874V12.6581C95.9879 11.5383 96.7883 10.7283 97.5888 10.228C98.4122 9.70387 99.2469 9.4418 100.093 9.4418C100.825 9.4418 101.511 9.66813 102.152 10.1208C102.792 10.5735 103.329 11.3001 103.764 12.3007L101.534 13.6944C101.191 12.8367 100.802 12.2411 100.368 11.9076C99.9331 11.5741 99.4528 11.4073 98.9267 11.4073C98.355 11.4073 97.7832 11.5979 97.2115 11.9791C96.6626 12.3603 96.0451 13.075 95.3589 14.1233V24.594C95.3589 25.4278 95.3932 25.9281 95.4618 26.0949C95.5305 26.2378 95.7477 26.3212 96.1137 26.3451L98.6866 26.5595V27.4886H89.9043V26.5595L91.7911 26.3451C92.157 26.2974 92.3743 26.2021 92.4429 26.0592C92.5115 25.9162 92.5459 25.4278 92.5459 24.594V12.6938C92.5459 11.86 92.5115 11.3716 92.4429 11.2286C92.3743 11.0857 92.157 10.9904 91.7911 10.9427L89.9043 10.764Z" fill="black"/>
<path d="M86.4946 23.4147C86.0829 25.0347 85.3053 26.1783 84.1618 26.8454C83.0411 27.5124 81.7947 27.846 80.4224 27.846C77.8838 27.846 75.9855 27.0479 74.7276 25.4516C73.4698 23.8316 72.8408 21.6755 72.8408 18.9834V18.2687C72.8408 15.6004 73.4469 13.4681 74.659 11.8719C75.8712 10.2518 77.6322 9.4418 79.9421 9.4418C81.1772 9.4418 82.2978 9.70387 83.3041 10.228C84.3333 10.7521 85.1452 11.5264 85.7398 12.5509C86.3573 13.5753 86.6661 14.8499 86.6661 16.3746C86.6661 17.0894 86.5975 17.8398 86.4603 18.626H75.9284V19.6981C75.9284 22.1996 76.2943 23.9984 77.0261 25.0943C77.7809 26.1664 78.993 26.7024 80.6626 26.7024C81.7146 26.7024 82.5837 26.4165 83.2698 25.8447C83.9788 25.273 84.4477 24.2843 84.6764 22.8786L86.4946 23.4147ZM79.9421 10.5854C78.5928 10.5854 77.5865 11.1214 76.9232 12.1935C76.26 13.2656 75.9284 15.0286 75.9284 17.4825H83.6472V17.3753C83.6929 17.0655 83.7272 16.7677 83.7501 16.4818C83.773 16.1721 83.7844 15.8982 83.7844 15.6599C83.7844 13.8731 83.4299 12.5866 82.7209 11.8004C82.0119 10.9904 81.0857 10.5854 79.9421 10.5854Z" fill="black"/>
<path d="M68.4561 12.4794L63.4474 27.4886H61.2175L56.1746 12.4794C55.9459 11.7885 55.7743 11.3716 55.66 11.2286C55.5456 11.0857 55.3055 10.9904 54.9395 10.9427L53.1899 10.764V9.79916H61.0117V10.764L59.2621 10.9427C58.8962 10.9904 58.7018 11.0857 58.6789 11.2286C58.656 11.3477 58.7589 11.7647 58.9876 12.4794L63.1387 24.9156L67.2211 12.4794C67.4498 11.7647 67.5527 11.3477 67.5298 11.2286C67.5069 11.0857 67.3125 10.9904 66.9466 10.9427L65.1627 10.764V9.79916H71.4064V10.764L69.6568 10.9427C69.2908 10.9904 69.0507 11.0857 68.9363 11.2286C68.8449 11.3477 68.6848 11.7647 68.4561 12.4794Z" fill="black"/>
<path d="M48.59 5.79671C48.0411 5.79671 47.5837 5.61803 47.2177 5.26067C46.8747 4.87948 46.7031 4.39108 46.7031 3.79548C46.7031 3.2237 46.8747 2.75913 47.2177 2.40177C47.5837 2.0444 48.0411 1.86572 48.59 1.86572C49.1389 1.86572 49.5848 2.0444 49.9279 2.40177C50.2938 2.75913 50.4768 3.2237 50.4768 3.79548C50.4768 4.39108 50.2938 4.87948 49.9279 5.26067C49.5848 5.61803 49.1389 5.79671 48.59 5.79671ZM44.5762 10.7641V9.79917H50.0308V24.594C50.0308 25.4278 50.0651 25.9162 50.1337 26.0592C50.2023 26.2021 50.4196 26.2974 50.7855 26.3451L52.6724 26.5595V27.4886H44.5762V26.5595L46.463 26.3451C46.8289 26.2974 47.0462 26.2021 47.1148 26.0592C47.1834 25.9162 47.2177 25.4278 47.2177 24.594V12.6938C47.2177 11.86 47.1834 11.3716 47.1148 11.2286C47.0462 11.0857 46.8289 10.9904 46.463 10.9427L44.5762 10.7641Z" fill="black"/>
<path d="M42.5801 26.5595V27.4886H34.4839V26.5595L36.3707 26.3451C36.7366 26.2974 36.9539 26.2021 37.0225 26.0592C37.0911 25.9162 37.1254 25.4278 37.1254 24.594V15.6956C37.1254 13.9327 36.851 12.6938 36.3021 11.9791C35.7532 11.2405 34.9642 10.8713 33.935 10.8713C33.1803 10.8713 32.3455 11.1095 31.4307 11.586C30.5158 12.0625 29.6582 12.9916 28.8577 14.3734V24.594C28.8577 25.4278 28.892 25.9162 28.9606 26.0592C29.0292 26.2021 29.2465 26.2974 29.6124 26.3451L31.4993 26.5595V27.4886H23.4031V26.5595L25.2899 26.3451C25.6558 26.2974 25.8731 26.2021 25.9417 26.0592C26.0103 25.9162 26.0446 25.4278 26.0446 24.594V12.6938C26.0446 11.86 26.0103 11.3716 25.9417 11.2286C25.8731 11.0857 25.6558 10.9904 25.2899 10.9427L23.4031 10.764V9.79917H28.6862V12.6938C29.5095 11.5502 30.4358 10.7283 31.465 10.228C32.517 9.70387 33.5691 9.4418 34.6211 9.4418C36.3135 9.4418 37.6172 9.98976 38.532 11.0857C39.4697 12.1578 39.9385 13.6825 39.9385 15.6599V24.594C39.9385 25.4278 39.9728 25.9162 40.0414 26.0592C40.1101 26.2021 40.3273 26.2974 40.6933 26.3451L42.5801 26.5595Z" fill="black"/>
<path d="M15.0949 4.15284V3.18796H21.6473V4.15284L19.7605 4.33152C19.3945 4.37917 19.1773 4.47446 19.1087 4.61741C19.0401 4.76035 19.0057 5.24875 19.0057 6.0826V19.2335C19.0057 21.9495 18.3997 24.0699 17.1875 25.5946C15.9983 27.0955 14.1686 27.846 11.6986 27.846C8.99986 27.846 6.93007 27.024 5.48922 25.3802C4.07125 23.7363 3.36226 21.473 3.36226 18.5903V6.0826C3.36226 5.24875 3.32795 4.76035 3.25934 4.61741C3.19073 4.47446 2.97346 4.37917 2.60753 4.33152L0.720703 4.15284V3.18796H8.98843V4.15284L7.1016 4.33152C6.73567 4.37917 6.5184 4.47446 6.44979 4.61741C6.38118 4.76035 6.34687 5.24875 6.34687 6.0826V19.1263C6.34687 21.6755 6.80428 23.5695 7.71911 24.8084C8.6568 26.0473 10.0748 26.6667 11.973 26.6667C13.8942 26.6667 15.335 26.0353 16.2956 24.7727C17.2561 23.51 17.7364 21.6755 17.7364 19.2693V6.0826C17.7364 5.24875 17.7021 4.76035 17.6335 4.61741C17.5649 4.47446 17.3476 4.37917 16.9817 4.33152L15.0949 4.15284Z" fill="black"/>
</svg>
