<svg width="141" height="322" viewBox="0 0 141 322" fill="none" xmlns="http://www.w3.org/2000/svg">
<path fill-rule="evenodd" clip-rule="evenodd" d="M115.886 1.00604C113.862 2.73734 112.295 6.65093 109.053 18.0764C106.296 27.7962 106.002 28.6796 105.359 29.163C105.01 29.425 104.712 30.0654 104.697 30.586C104.681 31.106 104.375 31.931 104.016 32.4187C103.658 32.9065 102.351 35.1376 101.114 37.3775C99.8751 39.6168 98.6086 41.8105 98.2993 42.2522C97.9901 42.6934 96.3626 45.1278 94.6831 47.6614C93.0037 50.195 91.4749 52.3808 91.2862 52.5187C90.727 52.9273 89.4391 54.6019 86.968 58.1313C85.6889 59.9591 84.2558 61.7536 83.7831 62.1184C83.3111 62.4837 82.9142 63.1181 82.9018 63.5275C82.8895 63.9374 82.5777 64.2637 82.2089 64.2527C81.8401 64.2416 81.5285 64.5626 81.5163 64.9669C81.5042 65.3706 80.74 66.8155 79.8172 68.1785C78.895 69.541 77.611 71.5796 76.9643 72.7086C76.317 73.8376 75.4886 75.1601 75.123 75.6476C74.7567 76.1352 74.4463 76.9063 74.4326 77.3611C74.4189 77.8159 73.9953 78.4891 73.4917 78.8571C71.9066 80.0154 71.13 74.0341 71.2494 61.5741C71.3845 47.429 70.5262 43.453 65.4046 34.5064C64.4825 32.8954 63.7369 31.2871 63.7476 30.9329C63.7582 30.5783 63.4981 30.2802 63.1688 30.2703C62.8403 30.2604 62.3993 29.6599 62.1895 28.9358C61.9797 28.2117 61.5119 27.6103 61.1505 27.5995C60.7884 27.5886 60.5016 27.284 60.5124 26.9231C60.5233 26.5616 59.8999 25.9347 59.1268 25.5304C55.7782 23.7775 54.6614 27.3737 53.5378 43.5245C52.6481 56.3153 53.8468 68.2834 57.0544 78.6357C57.7273 80.8093 58.4145 83.3555 58.5809 84.2934C58.7474 85.2313 59.1529 86.0072 59.4808 86.0171C59.8094 86.0269 60.0705 86.2927 60.061 86.6082C60.0406 87.2883 61.387 89.8972 63.955 94.1517C65.7457 97.119 65.7904 97.3939 65.0237 100.709C61.7294 114.949 60.7686 120.792 59.5619 133.923C59.0324 139.684 58.7776 140.725 58.0267 140.208C57.5316 139.867 57.1422 139.069 57.1612 138.435C57.1803 137.8 56.9857 137.108 56.729 136.896C56.4723 136.683 55.7914 135.465 55.215 134.19C53.357 130.071 48.4661 124.724 40.378 117.968C36.0296 114.335 32.4751 111.26 32.4789 111.134C32.4827 111.008 31.3752 109.493 30.0169 107.769C28.6594 106.045 27.1927 103.331 26.7573 101.739C25.9949 98.949 25.3785 97.1279 23.2758 91.4544C20.2315 83.2401 16.862 79.3243 12.9935 79.5062C9.16337 79.686 6.86817 83.7484 8.28762 87.8347C10.21 93.365 11.1108 95.5689 12.4695 98.0607C13.3091 99.6014 13.9825 101.311 13.966 101.86C13.9495 102.409 14.2334 103.012 14.5968 103.2C14.9603 103.389 15.2478 103.94 15.2352 104.425C15.2233 104.91 15.6438 105.993 16.1696 106.831C16.696 107.669 17.1186 108.617 17.109 108.936C17.0921 109.499 17.8397 111.285 22.5648 121.972C28.6371 135.706 36.0448 146.701 43.4276 152.94C46.8572 155.839 54.1443 160.508 55.2922 160.542C55.6161 160.552 56.4204 160.987 57.0792 161.509C58.1084 162.325 58.3043 163.711 58.467 171.339C58.7936 186.599 59.2682 197.269 59.8604 202.664C60.1745 205.524 60.2801 207.974 60.0948 208.109C59.9095 208.244 59.7696 207.964 59.784 207.486C59.7983 207.008 59.5084 206.608 59.1396 206.597C58.7708 206.586 58.4755 206.048 58.4835 205.402C58.4915 204.756 57.791 203.032 56.9269 201.571C56.0628 200.109 55.3613 198.639 55.3681 198.305C55.3748 197.97 55.1567 197.611 54.8826 197.507C54.6093 197.403 53.8097 196.361 53.1066 195.192C48.4764 187.492 41.0405 180.895 33.0054 177.358C31.6389 176.757 30.527 176.084 30.5336 175.862C30.5403 175.641 30.0931 175.446 29.5399 175.429C28.9868 175.412 28.5407 175.18 28.5488 174.912C28.5568 174.645 27.9864 174.265 27.2816 174.068C26.5761 173.872 24.8419 172.753 23.4281 171.583C21.032 169.601 20.2225 168.245 18.1996 162.821C17.2879 160.377 15.5791 157.118 15.0011 156.721C14.7828 156.571 13.786 155.549 12.7875 154.45C11.5389 153.075 10.2602 152.326 8.69334 152.049C6.00298 151.574 4.72343 152.189 3.31091 154.639C0.913518 158.797 1.09588 172.359 3.61853 177.521C3.90303 178.104 4.63481 179.77 5.24479 181.224C8.232 188.348 18.9016 199.402 25.0577 201.753C25.6051 201.962 26.1998 202.272 26.3799 202.442C27.0044 203.032 31.123 204.711 32.0135 204.737C32.5056 204.752 33.0039 204.943 33.1208 205.162C33.2371 205.381 34.5104 206.065 35.9502 206.683C39.3155 208.126 42.6127 210.807 45.965 214.826C49.7889 219.41 51.2092 220.609 55.3 222.7C57.2994 223.723 59.0303 224.748 59.1462 224.978C59.2628 225.208 59.7635 225.409 60.259 225.423C61.6637 225.466 63.7881 228.047 64.1568 230.161C64.5346 232.33 66.0057 238.514 66.8011 241.281C69.1063 249.3 72.177 258.537 72.9418 259.754C73.2236 260.203 73.6441 261.328 73.876 262.256C74.1078 263.183 74.572 264.084 74.9077 264.258C75.5322 264.581 75.7107 267.128 75.1072 267.11C74.9242 267.105 73.3635 266.266 71.6398 265.247C69.9168 264.227 67.3115 262.953 65.8512 262.416C64.3908 261.879 62.4054 261.083 61.4386 260.649C60.4718 260.216 59.0481 259.841 58.2757 259.818C57.5026 259.795 56.8766 259.567 56.8843 259.311C56.892 259.055 56.1483 258.676 55.2318 258.468C54.3152 258.26 53.5722 257.86 53.5807 257.579C53.5891 257.297 53.2194 257.051 52.7583 257.03C51.7429 256.985 45.0406 251.438 45.0639 250.662C45.073 250.36 44.8568 250.027 44.5828 249.923C44.3094 249.819 43.0162 248.41 41.7105 246.791C38.8797 243.284 34.1377 239.103 30.0532 236.513C28.4232 235.479 26.9424 234.505 26.7626 234.349C25.9817 233.67 18.0049 230.199 13.8445 228.728C10.4843 227.54 5.39429 226.385 3.2332 226.32C1.2203 226.259 0.782788 226.458 0.368629 227.622C-0.632571 230.432 2.15973 236.559 6.54503 241.177C9.28121 244.058 17.5815 250.919 24.7187 256.199C27.7525 258.444 33.2062 262.729 36.8377 265.721C47.0327 274.121 53.052 276.02 70.2303 276.26C80.9873 276.411 80.7381 276.329 82.7898 280.392C83.4517 281.704 84.152 282.9 84.3448 283.049C84.5376 283.198 85.5286 284.638 86.546 286.247C87.564 287.857 88.7941 289.557 89.28 290.025C89.7653 290.493 90.1577 291.056 90.1512 291.275C90.1445 291.495 90.7956 292.433 91.5986 293.359C93.4745 295.522 94.7583 297.555 94.4091 297.81C94.2588 297.92 92.3834 297.323 90.2423 296.484C88.1011 295.645 85.6342 294.679 84.7599 294.338C82.6929 293.532 65.4896 293.05 62.864 293.725C58.4021 294.872 52.4199 295.401 46.074 295.211C40.0823 295.031 38.9812 294.844 35.7244 293.454C31.4597 291.634 29.8647 290.821 28.493 289.769C26.8155 288.484 21.0776 285.572 17.0912 283.984C12.1637 282.02 8.42414 281.889 5.38029 283.574C3.38268 284.679 3.08921 285.132 3.02684 287.207C2.98767 288.511 3.45369 290.334 4.06215 291.258C5.19371 292.976 13.2671 299.706 14.2313 299.735C14.9541 299.757 29.5071 308.571 29.7716 309.148C29.8876 309.399 30.4092 309.618 30.9315 309.634C31.4545 309.649 31.875 309.881 31.867 310.149C31.859 310.416 32.3988 310.788 33.0664 310.974C33.7339 311.16 34.8574 311.738 35.5626 312.258C36.2677 312.779 38.0306 313.677 39.4797 314.255C40.9287 314.833 42.6009 315.514 43.1959 315.768C45.513 316.76 52.8406 317.667 56.6689 317.437C63.4925 317.027 67.7973 315.683 80.8451 309.886C89.2688 306.143 91.9049 305.275 96.1187 304.857C98.6732 304.604 98.7365 304.555 97.3493 303.905C95.7702 303.164 88.6972 303.323 88.0291 304.115C87.8259 304.355 87.0843 304.535 86.3809 304.514C85.2075 304.478 80.434 305.811 79.6297 306.399C79.441 306.537 77.4553 307.29 75.2171 308.073C72.9788 308.857 70.992 309.647 70.802 309.828C70.2285 310.377 62.6524 312.781 60.0406 313.242C53.4648 314.405 49.5891 313.935 42.5756 311.127C39.2195 309.783 28.8448 303.832 25.7519 301.476C25.0302 300.927 21.6175 298.919 18.1681 297.014C14.7186 295.11 11.165 292.764 10.2712 291.802C4.22925 285.295 11.2493 284.446 21.3852 290.457C27.3763 294.01 35.1227 297.753 36.5771 297.796C37.3642 297.82 38.3223 298.099 38.706 298.416C39.9601 299.454 59.8169 298.956 62.367 297.823C63.805 297.184 75.6073 297.031 80.3602 297.59C85.798 298.229 88.4254 298.879 93.739 300.899C95.6653 301.631 97.4485 302.236 97.7019 302.244C97.956 302.251 101.413 305.014 105.385 308.383C109.357 311.753 113.793 315.233 115.243 316.116C116.693 316.999 118.026 317.853 118.206 318.013C119.206 318.903 125.583 321.961 125.922 321.713C126.143 321.552 124.448 319.789 122.155 317.796C111.656 308.673 107.111 304.445 106.368 303.112C105.521 301.595 107.36 299.045 111.941 295.382C113.511 294.127 115.93 292.194 117.315 291.087C120.912 288.213 125.726 282.685 128.893 277.789C130.394 275.469 131.626 273.446 131.63 273.292C131.635 273.139 132.402 271.797 133.335 270.31C134.269 268.823 135.6 266.449 136.295 265.034C136.988 263.619 137.775 262.233 138.043 261.954C139.664 260.263 140.88 249.445 139.796 246.346C136.397 236.617 131.281 230.168 126.859 230.035C124.74 229.971 120.788 232.105 120.751 233.331C120.739 233.714 120.479 234.02 120.172 234.01C119.136 233.979 117.746 239.894 116.945 247.747C116.508 252.041 115.648 257.183 115.035 259.175C114.421 261.166 113.704 263.494 113.44 264.347C113.176 265.201 112.701 266.361 112.384 266.926C109.625 271.846 103.805 283.585 103.784 284.272C103.77 284.748 103.504 285.25 103.192 285.388C102.881 285.527 102.205 287.341 101.691 289.42C101.177 291.499 100.569 293.871 100.341 294.691L99.9256 296.183L98.391 294.633C97.5469 293.78 96.8545 292.789 96.8519 292.43C96.8492 292.071 96.614 291.77 96.329 291.762C96.0441 291.753 95.2437 290.848 94.5506 289.751C93.8574 288.653 93.1397 287.633 92.9563 287.484C92.7722 287.335 91.6155 285.538 90.3851 283.491C89.1547 281.445 87.9785 279.647 87.7709 279.498C87.564 279.348 86.8467 278.094 86.1768 276.711C85.5077 275.328 84.7332 274.189 84.457 274.18C84.1808 274.171 83.9622 273.896 83.9719 273.571C83.9817 273.245 82.8531 270.602 81.4639 267.698C80.0747 264.794 78.9638 261.562 78.9959 260.516C79.0801 257.716 83.2769 250.248 85.9085 248.213C86.3805 247.848 86.7726 247.375 86.7789 247.163C86.7853 246.951 87.3373 246.338 88.0051 245.802C88.6729 245.265 89.871 244.209 90.6675 243.455C91.464 242.701 93.836 240.658 95.9387 238.915C98.0421 237.172 100.443 235.179 101.274 234.487C102.106 233.794 103.605 232.429 104.605 231.454C105.605 230.48 106.58 229.569 106.77 229.431C107.299 229.05 110.252 224.97 111.578 222.789C114.948 217.249 117.33 201.877 115.773 195.724C115.341 194.013 114.747 192.607 114.454 192.598C114.161 192.589 113.933 192.226 113.946 191.79C113.985 190.503 109.503 187.294 107.067 186.863C102.03 185.973 98.6313 187.619 95.8443 192.3C95.0047 193.71 94.0407 195.325 93.7029 195.89C93.3645 196.454 92.9097 197.497 92.691 198.208C92.473 198.92 91.6509 201.596 90.8653 204.157C88.7844 210.936 86.9837 218.018 86.9357 219.614C86.9128 220.378 86.5922 220.994 86.2235 220.983C85.8547 220.972 85.5394 221.414 85.5228 221.964C85.5063 222.514 85.0383 223.616 84.4822 224.413C83.1637 226.301 80.8334 230.193 79.0456 233.492C78.2605 234.94 77.3319 236.34 76.9811 236.602C76.6309 236.864 76.3321 237.474 76.3175 237.958C76.303 238.441 75.8203 239.495 75.2445 240.301C74.6693 241.106 74.1845 242.161 74.1673 242.646C74.1153 244.153 72.9662 244.134 72.2851 242.614C71.9278 241.817 71.1989 239.273 70.6638 236.96C70.1292 234.647 69.3018 231.182 68.8254 229.26C68.3489 227.339 67.9843 224.934 68.0149 223.916C68.0454 222.899 67.7731 221.912 67.4096 221.723C67.0462 221.535 66.7742 220.514 66.8047 219.455C66.8351 218.397 66.494 215.523 66.0469 213.069C65.5992 210.615 65.1037 206.559 64.9447 204.055C64.6917 200.056 64.8498 199.174 66.2457 196.786C67.1195 195.291 68.0394 193.957 68.2905 193.821C68.5409 193.685 68.9733 193.051 69.2522 192.414C69.5304 191.776 70.0391 191.263 70.3831 191.273C70.7271 191.284 71.0193 190.94 71.0322 190.51C71.0451 190.08 71.3373 189.736 71.6813 189.746C72.0253 189.757 72.5085 189.31 72.7547 188.754C73.3378 187.44 81.7019 181.329 83.4244 180.957C84.1539 180.801 84.757 180.454 84.765 180.186C84.773 179.918 85.2322 179.713 85.7854 179.73C86.3386 179.746 86.7978 179.541 86.8058 179.273C86.8139 179.006 87.5039 178.643 88.3401 178.466C89.1763 178.289 90.015 178.006 90.2047 177.834C90.3944 177.664 92.2295 176.895 94.2828 176.128C98.2216 174.655 105.2 171.114 105.979 170.193C106.233 169.893 107.087 169.104 107.877 168.437C108.669 167.771 109.324 166.929 109.335 166.567C109.346 166.204 109.584 165.837 109.863 165.749C110.643 165.505 112.833 161.839 112.866 160.719C112.883 160.172 113.174 159.601 113.512 159.451C113.852 159.3 114.372 158.01 114.668 156.584C114.965 155.158 115.485 153.868 115.824 153.717C116.163 153.567 116.458 152.856 116.48 152.138C116.501 151.42 116.968 149.745 117.516 148.415C119.756 142.982 120.098 141.334 119.446 139.112C117.761 133.366 113.067 133.949 105.082 140.896C104.124 141.729 103.16 142.815 102.938 143.311C102.716 143.807 102.253 144.204 101.909 144.194C101.565 144.183 101.273 144.527 101.26 144.957C101.247 145.388 100.967 145.732 100.638 145.722C100.309 145.712 99.8332 146.285 99.5803 146.995C99.3274 147.705 98.8243 148.277 98.4629 148.267C98.1009 148.256 97.7977 148.493 97.7887 148.793C97.7797 149.094 96.654 150.619 95.2876 152.182C92.8049 155.023 87.7246 158.884 81.9655 162.307C77.5764 164.915 67.3652 172.397 65.948 174.044C65.2852 174.813 64.2969 175.43 63.7525 175.413C62.8989 175.388 62.8338 173 63.2804 158.137L63.7987 140.891L65.7001 139.035C69.6957 135.135 79.0751 129.874 86.6911 127.261C88.183 126.749 89.5625 126.177 89.7561 125.99C89.9503 125.803 90.9428 125.514 91.9626 125.347C92.9831 125.179 93.9893 124.838 94.1994 124.589C94.4103 124.34 95.1427 124.153 95.828 124.174C96.5126 124.194 97.179 124.038 97.3089 123.827C97.438 123.615 99.5817 122.698 102.073 121.789C109.603 119.04 115.169 115.278 117.972 111.045C119.418 108.86 121.658 104.291 125.569 95.5455C127.094 92.135 129.914 82.1095 130.031 79.6788C130.131 77.6124 129.038 75.0566 128.041 75.0266C124.799 74.9292 115.542 82.1646 106.818 91.6159C105.142 93.4318 103.541 94.989 103.262 95.0761C102.983 95.1638 102.745 95.5482 102.733 95.9305C102.722 96.3128 102.481 96.6971 102.199 96.7847C101.917 96.8717 100.6 97.9634 99.2741 99.2098C96.6808 101.647 90.2688 106.451 88.7481 107.095C86.5932 108.009 80.7453 111.817 73.7221 116.88C69.5932 119.856 66.1007 122.198 65.9619 122.083C65.7301 121.891 66.2371 118.708 68.0495 108.983C68.8969 104.435 70.3928 98.9881 71.2205 97.4386C71.5676 96.7897 71.8802 95.7419 71.9153 95.1103C71.9504 94.4786 72.4009 93.1124 72.9159 92.0744C73.9668 89.9558 80.4902 82.6533 83.7389 79.9596C84.9083 78.9899 86.8373 77.286 88.0257 76.1732C89.2142 75.0605 92.1765 72.9178 94.609 71.4117C97.0414 69.9057 99.3758 68.4489 99.7968 68.1744C100.218 67.9 102.404 66.6841 104.655 65.4727C110.401 62.3806 118.46 56.171 120.307 53.4133C121.164 52.1344 122.053 50.9767 122.283 50.84C122.513 50.7034 122.9 49.8928 123.143 49.0388C123.386 48.1847 123.958 46.2051 124.414 44.6397C125.481 40.9836 125.976 24.6447 125.164 19.8656C124.822 17.8455 124.338 15.012 124.09 13.5689C123.55 10.433 122.193 6.39713 121.439 5.68485C121.141 5.40338 120.909 4.74181 120.925 4.21555C120.961 3.01856 119.257 0.818132 117.961 0.388709C117.425 0.210763 116.491 0.488612 115.886 1.00604ZM118.281 10.3927C120.805 18.4499 121.818 30.8113 120.587 38.5468C119.241 47.0087 118.157 49.5336 114.073 53.7276C111.66 56.2052 106.438 59.8205 100.36 63.2211C98.6709 64.1664 97.1339 65.065 96.9447 65.2175C96.7556 65.37 95.2186 66.2661 93.5293 67.2077C89.5022 69.4536 86.0517 71.982 82.8555 75.0307C80.4808 77.2949 80.3032 77.3736 80.7693 75.9551C81.3181 74.286 81.7174 73.6193 86.1443 66.9811C89.1987 62.4002 90.4354 60.7538 91.1282 60.3444C91.3598 60.2078 91.7762 59.5746 92.0551 58.9367C92.3333 58.2988 92.842 57.7858 93.186 57.7961C93.53 57.8064 93.8223 57.4582 93.8354 57.0221C93.8485 56.5861 94.5795 55.375 95.4599 54.3303C96.9722 52.5355 100.785 46.9093 103.166 42.957C103.761 41.97 105.028 39.8938 105.98 38.3433C106.934 36.7928 108.289 34.2495 108.992 32.6915C109.696 31.1335 110.526 29.3966 110.839 28.8317C111.151 28.2669 111.95 25.9417 112.615 23.6648C113.28 21.3878 114.14 18.5325 114.526 17.32C114.912 16.1069 115.243 14.7073 115.26 14.2098C115.312 12.6782 116.77 9.43371 117.399 9.45259C117.725 9.4624 118.123 9.88518 118.281 10.3927ZM62.8077 39.2964C63.2342 40.512 63.8383 41.984 64.1503 42.5676C65.571 45.2262 66.097 49.719 66.2357 60.3794C66.3183 66.6985 66.8043 74.4653 67.3157 77.639C68.8747 87.3074 68.9665 89.3226 67.9484 91.5336C66.9022 93.808 66.1093 93.5957 65.2953 90.8233C65.0086 89.8468 64.3104 87.5064 63.7436 85.6231C63.1767 83.7398 62.4843 81.2524 62.205 80.0956C61.9257 78.9387 61.2619 76.2172 60.7304 74.0478C58.6076 65.3862 57.5767 50.6933 58.4542 41.6134C58.8 38.0348 59.2395 34.9132 59.4311 34.6762C59.9407 34.0457 61.9126 36.7439 62.8077 39.2964ZM123.807 85.6287C123.363 87.323 122.712 89.4051 122.361 90.2559C122.01 91.1067 121.181 93.196 120.519 94.8989C118.883 99.1079 117.916 101.409 117.269 102.632C116.97 103.197 115.997 105.135 115.107 106.938C113.88 109.42 112.47 110.994 109.297 113.419C106.992 115.181 104.756 116.612 104.329 116.599C103.901 116.586 103.143 116.87 102.644 117.23C101.786 117.85 84.987 123.848 84.177 123.824C83.662 123.808 76.9506 126.782 75.3699 127.726C73.112 129.075 67.3847 133.225 67.3759 133.519C67.3712 133.676 66.5644 134.416 65.5835 135.164L63.7998 136.523L64.1689 133.599C64.4799 131.133 65.0421 130.157 67.7518 127.375C72.0508 122.963 83.8559 114.433 91.2241 110.415C96.6581 107.451 109.426 96.5544 109.477 94.8359C109.486 94.5449 109.77 94.3148 110.109 94.325C110.448 94.3352 111.445 93.4845 112.326 92.434C113.206 91.384 114.474 90.0883 115.144 89.5556C115.813 89.0224 116.549 88.1638 116.778 87.6471C117.007 87.1304 117.475 86.7159 117.819 86.7262C118.163 86.7365 118.453 86.4931 118.462 86.1849C118.487 85.341 123.553 81.7554 124.121 82.1792C124.392 82.3821 124.252 83.934 123.807 85.6287ZM16.1188 87.1936C18.6214 91.7938 18.4547 91.38 21.3881 100.272C21.6747 101.142 22.0967 102.665 22.3253 103.655C22.7873 105.656 25.0779 109.341 27.6414 112.206C29.6673 114.47 29.091 113.949 37.5734 121.184C47.3285 129.505 49.4305 132.274 56.3788 145.958C56.7488 146.687 57.2844 147.67 57.5682 148.142C57.852 148.614 58.2242 151.502 58.3954 154.561C58.6616 159.323 58.5612 160.118 57.6996 160.092C55.9891 160.041 41.4914 146.219 41.5375 144.684C41.5418 144.541 41.031 143.964 40.4016 143.402C39.7722 142.84 38.5374 141.227 37.657 139.818C36.7765 138.408 35.8867 137.133 35.6791 136.983C35.4722 136.833 34.7549 135.579 34.0851 134.197C33.4159 132.813 32.6414 131.675 32.3652 131.665C32.089 131.656 31.873 131.293 31.8861 130.858C31.8991 130.424 31.6311 129.653 31.29 129.144C30.3484 127.738 28.46 123.89 26.5482 119.482C25.6024 117.3 24.5693 115.099 24.253 114.591C23.9367 114.083 23.6888 113.309 23.702 112.871C23.7152 112.433 23.4559 111.658 23.1262 111.149C22.7959 110.641 21.6434 107.967 20.5646 105.207C18.5243 99.9852 18.2365 99.334 16.5555 96.133C15.9963 95.0679 15.5464 93.9352 15.556 93.616C15.5656 93.2968 15.2866 92.6191 14.9355 92.11C14.0879 90.8807 12.56 84.7098 13.0197 84.3739C13.8988 83.731 14.5651 84.3373 16.1188 87.1936ZM114.804 140.92C114.748 142.758 113.713 145.914 111.374 151.371C110.438 153.555 109.66 155.764 109.643 156.279C109.605 157.559 106.977 162.476 105.169 164.651C102.724 167.593 100.687 168.778 89.4661 173.783C78.8971 178.497 69.2001 184.478 69.1448 186.317C69.1325 186.725 68.8958 187.055 68.6194 187.05C68.3431 187.045 67.5116 187.96 66.7725 189.083C66.0334 190.206 65.0249 191.112 64.5308 191.098C63.1535 191.056 63.5386 184.161 65.0506 181.795C67.8196 177.464 74.1571 172.149 83.4688 166.348C91.1822 161.543 97.3237 156.764 99.9718 153.507C105.989 146.106 112.855 139.302 114.264 139.345C114.586 139.354 114.829 140.063 114.804 140.92ZM12.1851 161.074C12.8138 162.241 13.8397 164.504 14.4662 166.102C15.092 167.699 16.2889 169.967 17.1254 171.141C18.5925 173.198 24.2219 177.865 25.2877 177.907C26.0278 177.936 34.6511 182.514 34.9046 183.012C35.0212 183.241 35.4227 183.436 35.7982 183.448C37.2619 183.492 45.5063 191.277 45.4672 192.578C45.458 192.884 45.7086 193.142 46.0238 193.152C46.5783 193.168 50.162 198.979 55.701 208.842C60.1341 216.737 60.4808 217.328 60.8354 217.61C62.4328 218.88 63.3495 223.95 61.9749 223.909C61.6062 223.898 61.3115 223.654 61.3201 223.367C61.3287 223.08 60.9824 222.835 60.5506 222.822C59.587 222.793 51.4813 215.776 51.5049 214.992C51.5172 214.583 47.3348 209.646 46.8059 209.445C46.5325 209.341 46.3044 208.982 46.2997 208.647C46.2791 207.168 34.9578 201.248 28.9816 199.592C28.3406 199.414 27.8226 199.078 27.8296 198.844C27.8366 198.609 27.282 198.261 26.5965 198.071C25.3725 197.729 17.9656 192.092 17.9829 191.515C17.9914 191.233 17.2896 190.468 15.5459 188.862C15.0973 188.448 14.7366 187.877 14.7451 187.594C14.7536 187.31 14.5363 186.994 14.2629 186.89C13.0785 186.44 9.38308 179.255 7.69831 174.127C6.32716 169.952 6.34015 158.153 7.71666 157.147C8.71987 156.414 10.5376 158.011 12.1851 161.074ZM109.935 194.193C112.695 199.339 111.812 210.746 108.02 218.964C106.585 222.073 103.402 226.72 102.721 226.7C102.412 226.69 102.149 227.035 102.136 227.465C102.123 227.895 101.831 228.239 101.487 228.229C101.143 228.218 100.677 228.627 100.451 229.136C100.225 229.645 98.8814 230.972 97.4647 232.085C96.0481 233.198 93.3394 235.432 91.4452 237.048C89.551 238.666 87.6857 240.237 87.2994 240.541C85.3981 242.038 81.4868 246.393 80.4065 248.215C79.7377 249.344 78.902 250.666 78.5491 251.154C78.1962 251.642 77.8943 252.485 77.878 253.028C77.8617 253.57 77.387 254.292 76.8231 254.633C75.9496 255.16 75.8049 255.015 75.8458 253.656C75.9245 251.035 78.6036 243.379 80.6694 239.871C81.1679 239.024 82.0459 237.524 82.6212 236.536C83.1958 235.549 84.3561 233.587 85.1992 232.176C89.4631 225.043 89.9521 224.182 90.8811 222.167C91.7103 220.369 92.3739 217.895 93.8673 211.033C94.3018 209.037 94.9626 206.59 95.3354 205.596C95.7082 204.603 96.4174 202.51 96.91 200.945C98.4145 196.171 101.496 191.457 103.533 190.814C106.083 190.009 108.326 191.193 109.935 194.193ZM11.7144 232.142C14.2804 232.984 16.4751 233.872 16.5906 234.115C16.7068 234.359 17.1267 234.568 17.5249 234.58C18.2283 234.601 24.192 237.614 25.741 238.731C26.1653 239.037 27.9779 240.271 29.7685 241.473C31.5599 242.676 34.0103 244.793 35.2149 246.18C36.4195 247.567 37.6312 248.719 37.907 248.741C38.1829 248.763 38.4018 249.025 38.3928 249.324C38.3747 249.926 43.1757 255.518 44.8181 256.808C47.5856 258.982 51.5901 261.265 54.5214 262.341C56.3031 262.995 58.8075 263.917 60.086 264.388C67.1279 266.986 73.3422 269.876 75.8068 271.701C78.9069 273.995 79.4935 275.426 77.0574 274.752C75.663 274.367 66.0971 272.925 59.1857 272.059C51.5314 271.1 47.4493 269.056 38.4682 261.689C34.0274 258.046 28.22 253.473 25.5638 251.527C17.8656 245.887 12.4992 241.247 9.96739 238.041C8.675 236.404 7.384 234.922 7.09801 234.746C6.34745 234.285 5.78721 230.573 6.47182 230.593C6.78897 230.603 9.14785 231.3 11.7144 232.142ZM128.466 235.006C128.981 235.431 129.395 236.011 129.387 236.295C129.378 236.578 129.595 236.895 129.869 236.999C130.59 237.273 132.613 240.603 132.587 241.473C132.574 241.88 132.815 242.221 133.122 242.23C134.055 242.258 135.262 247.012 135.451 251.397C135.62 255.327 134.781 258.554 132.577 262.443C125.762 274.466 121.902 280.274 118.12 284.196C116.841 285.522 115.791 286.722 115.787 286.864C115.782 287.005 114.26 288.501 112.403 290.189C108.928 293.347 105.39 297.832 105.351 299.128C105.339 299.532 104.876 299.849 104.323 299.832C103.77 299.816 103.328 299.438 103.342 298.992C103.39 297.395 105.737 290.673 107.436 287.267C108.388 285.357 109.996 282.116 111.008 280.066C112.02 278.015 113.342 275.411 113.946 274.281C119.072 264.694 120.315 260.446 121.598 248.148C122.801 236.61 125.096 232.217 128.466 235.006Z" fill="#2A2829"/>
</svg>
