<svg width="220" height="281" viewBox="0 0 220 281" fill="none" xmlns="http://www.w3.org/2000/svg">
<path fill-rule="evenodd" clip-rule="evenodd" d="M2.37031 253.079C5.25749 253.329 9.5555 251.559 21.1173 245.359C30.9526 240.084 31.8788 239.639 32.7423 239.769C33.2106 239.839 33.9447 239.582 34.3736 239.197C34.8021 238.813 35.6902 238.421 36.3471 238.327C37.0035 238.233 39.7599 237.545 42.4724 236.796C45.185 236.049 47.8817 235.358 48.4649 235.261C49.0477 235.164 52.2047 234.569 55.4798 233.94C58.7548 233.31 61.6393 232.828 61.8896 232.869C62.6314 232.991 64.9277 232.713 69.5874 231.938C72 231.535 74.5 231.278 75.1425 231.367C75.785 231.454 76.5875 231.278 76.9249 230.975C77.2627 230.672 77.7553 230.665 78.0194 230.96C78.2836 231.254 78.7718 231.251 79.1049 230.952C79.4376 230.654 81.1621 230.144 82.9383 229.82C84.7135 229.496 87.2989 228.937 88.683 228.578C90.0676 228.219 91.7413 227.852 92.403 227.764C93.0651 227.676 93.9133 227.329 94.2881 226.993C94.6629 226.656 95.5163 226.471 96.1844 226.581C98.2867 226.927 94.0657 232.091 83.9863 241.501C72.544 252.185 69.9914 255.883 66.6098 266.678C66.0007 268.621 65.2631 270.426 64.9713 270.688C64.679 270.95 64.6326 271.379 64.8685 271.642C65.1038 271.905 64.9488 272.705 64.5235 273.42C64.0982 274.134 63.9624 274.956 64.2213 275.244C64.4807 275.534 64.4488 275.988 64.1513 276.255C63.8535 276.522 63.8124 277.484 64.0606 278.392C65.1344 282.325 68.8448 280.449 82.6272 269.002C93.5422 259.937 102.251 249.88 108.177 239.497C109.422 237.318 110.955 234.843 111.584 233.998C112.212 233.154 112.534 232.248 112.299 231.986C112.064 231.724 112.084 231.319 112.344 231.085C112.904 230.582 113.999 227.549 115.509 222.312C116.563 218.661 116.75 218.416 119.976 216.482C133.834 208.176 139.23 204.465 150.653 195.387C155.664 191.403 156.688 190.807 156.829 191.784C156.922 192.428 156.57 193.339 156.048 193.808C155.525 194.276 155.114 194.955 155.134 195.316C155.153 195.677 154.681 197.134 154.085 198.554C152.158 203.136 151.492 211.007 152.063 222.432C152.37 228.575 152.536 233.677 152.432 233.77C152.328 233.863 151.934 235.877 151.557 238.245C151.179 240.613 150.089 243.82 149.135 245.372C147.462 248.091 146.458 249.958 143.466 255.916C139.134 264.541 138.489 270.141 141.499 273.002C144.479 275.835 149.436 274.517 151.661 270.3C154.672 264.591 155.772 262.212 156.764 259.258C157.378 257.431 158.25 255.605 158.703 255.2C159.155 254.794 159.429 254.113 159.311 253.688C159.192 253.262 159.421 252.619 159.82 252.259C160.218 251.898 160.775 250.746 161.057 249.699C161.34 248.652 161.786 247.602 162.05 247.365C162.514 246.949 163.392 245.007 168.463 233.192C174.979 218.009 178.311 203.878 177.847 193.395C177.632 188.525 175.98 179.313 175.158 178.396C174.926 178.138 174.679 177.182 174.611 176.273C174.502 174.853 175.469 173.644 181.465 167.7C193.459 155.809 201.664 147.302 205.551 142.728C207.611 140.304 209.498 138.354 209.743 138.394C209.989 138.435 209.868 138.757 209.474 139.11C209.08 139.464 208.974 139.994 209.238 140.288C209.502 140.583 209.29 141.222 208.766 141.708C208.242 142.195 207.379 144.053 206.846 145.837C206.314 147.622 205.655 149.287 205.382 149.537C205.108 149.787 204.982 150.23 205.101 150.522C205.221 150.813 204.977 152.228 204.56 153.665C201.815 163.128 202.03 173.926 205.144 182.854C205.673 184.373 205.957 185.748 205.774 185.912C205.592 186.076 205.766 186.571 206.163 187.013C206.559 187.455 206.703 187.978 206.482 188.176C206.262 188.374 206.38 189.106 206.743 189.802C207.108 190.499 207.496 192.697 207.604 194.686C207.789 198.056 207.301 199.718 204.449 205.424C203.164 207.995 201.817 211.805 201.926 212.556C201.968 212.84 201.886 214.392 201.744 216.005C201.567 218.021 201.913 219.584 202.851 221.011C204.461 223.46 205.903 223.982 208.913 223.209C214.022 221.897 224.761 211.413 227.033 205.519C227.289 204.854 228.084 203.016 228.798 201.434C232.298 193.685 233.262 176.98 230.589 170.413C230.351 169.829 230.159 169.131 230.162 168.862C230.173 167.927 228.47 163.453 227.832 162.742C227.479 162.35 227.263 161.818 227.352 161.56C227.442 161.303 227.048 159.793 226.477 158.206C225.142 154.495 224.851 149.894 225.591 144.229C226.436 137.767 226.345 135.752 224.994 130.984C224.333 128.654 223.873 126.53 223.972 126.264C224.07 125.998 223.86 125.457 223.505 125.062C222.499 123.94 222.996 120.324 224.418 118.426C225.878 116.479 229.747 110.621 231.377 107.894C236.1 99.9909 241.233 90.5646 241.643 89.0435C241.794 88.4829 242.385 87.2983 242.957 86.4112C243.529 85.5242 243.908 84.4768 243.799 84.0837C243.595 83.353 245.506 81.272 245.938 81.7538C246.069 81.8999 246.552 83.7499 247.011 85.8639C247.469 87.9777 248.377 90.9696 249.027 92.5122C249.677 94.0543 250.51 96.2005 250.878 97.2814C251.246 98.3619 252 99.7513 252.553 100.368C253.107 100.985 253.387 101.645 253.176 101.834C252.966 102.023 253.212 102.889 253.724 103.758C254.236 104.627 254.465 105.509 254.234 105.717C254.002 105.925 254.078 106.4 254.403 106.773C255.118 107.595 255.633 117.023 254.994 117.596C254.744 117.82 254.638 118.242 254.757 118.534C254.876 118.825 254.704 120.902 254.373 123.149C253.657 128.019 253.815 134.886 254.762 140.029C255.14 142.081 255.456 143.972 255.464 144.231C255.497 145.354 258.62 154.187 260.521 158.535C262.057 162.047 264.899 166.876 266.447 168.601C267.889 170.208 268.372 170.396 269.612 169.829C272.606 168.463 275.452 161.624 275.908 154.702C276.192 150.383 275.548 138.713 274.498 129.151C274.051 125.086 273.449 117.589 273.159 112.491C272.346 98.1788 269.412 92.0622 256.886 78.5575C249.042 70.1008 249.16 70.3567 250.899 65.6665C251.461 64.1526 251.902 62.6977 251.879 62.4342C251.855 62.1708 252.276 60.3046 252.813 58.288C253.35 56.2708 253.802 54.0206 253.818 53.2866C253.834 52.5536 253.995 51.8198 254.176 51.6575C254.357 51.4948 254.627 50.275 254.775 48.9459C255.12 45.8413 255.8 43.2954 256.263 43.372C256.462 43.4044 257.372 45.3137 258.285 47.6145C259.197 49.9149 260.249 52.5645 260.624 53.5022C261.507 55.7203 273.859 69.4285 276.344 70.9499C280.567 73.5353 285.421 77.7709 289.967 82.8375C294.259 87.6214 294.924 88.6179 296.221 92.2036C297.919 96.8989 298.448 98.7557 298.621 100.621C298.832 102.903 300.746 109.573 302.424 113.876C304.498 119.194 307.161 122.194 310.766 123.27C313.132 123.976 313.712 123.858 315.422 122.324C316.496 121.36 317.613 119.609 317.903 118.432C318.443 116.244 317.862 104.85 317.171 104.081C316.654 103.503 312.946 85.4957 313.212 84.8505C313.328 84.5689 313.117 83.9975 312.743 83.5805C312.369 83.1629 312.243 82.6599 312.464 82.4621C312.684 82.2643 312.582 81.5625 312.237 80.9029C311.892 80.2434 311.524 78.9311 311.419 77.9874C311.314 77.0434 310.729 74.9913 310.12 73.4267C309.51 71.8625 308.818 70.0465 308.581 69.391C307.661 66.8379 302.963 60.4631 299.944 57.6697C294.563 52.6907 290.298 50.3777 275.989 44.6805C266.75 41.0027 264.103 39.6202 260.648 36.6711C258.553 34.8836 258.467 34.8717 258.973 36.4435C259.548 38.2325 264.913 43.5963 266.042 43.511C266.385 43.4853 267.078 43.9233 267.582 44.4849C268.423 45.4218 273.026 48.1071 274.093 48.2825C274.343 48.3237 276.417 49.2888 278.703 50.4273C280.988 51.5654 283.092 52.5039 283.379 52.5127C284.243 52.539 291.78 56.5808 294.084 58.2544C299.885 62.4671 302.378 65.831 305.319 73.4117C306.727 77.0393 309.636 89.6236 310.037 93.8186C310.131 94.7973 311.048 98.9753 312.075 103.103C313.102 107.23 313.852 111.775 313.742 113.202C312.999 122.85 307.12 118.054 304.435 105.609C302.848 98.2529 300.114 89.3914 299.072 88.2302C298.508 87.6017 298.022 86.6461 297.993 86.1064C297.896 84.3427 282.794 69.3237 279.998 68.2101C278.421 67.5824 269.559 58.5463 266.488 54.4342C262.975 49.73 261.55 47.1967 259.236 41.5356C258.396 39.4836 257.561 37.6391 257.38 37.4368C257.198 37.2339 256.854 32.4456 256.614 26.796C256.375 21.146 255.881 15.052 255.516 13.2537C255.15 11.4559 254.847 9.77061 254.843 9.50924C254.816 8.05465 252.547 0.777486 252.097 0.7039C251.804 0.655687 251.645 3.3142 251.745 6.61217C252.203 21.7123 252.178 28.4606 251.66 30.0542C251.07 31.8674 247.664 32.3862 241.335 31.627C239.166 31.367 235.825 30.9657 233.913 30.7359C228.944 30.138 220.947 30.6213 214.676 31.8991C211.705 32.5047 209.17 33.0925 209.044 33.2059C208.918 33.3189 207.274 33.7475 205.39 34.1582C203.507 34.5684 200.617 35.3466 198.969 35.8872C197.321 36.4284 195.627 36.8753 195.205 36.8802C192.648 36.9128 183.074 44.2203 181.391 47.4243C176.107 57.4802 174.724 66.3665 177.892 69.8971C179.409 71.5883 184.046 73.0266 185.057 72.12C185.372 71.8369 185.811 71.8059 186.031 72.0511C186.773 72.8782 192.544 69.4442 199.434 64.0762C203.201 61.1411 207.961 57.8861 210.012 56.8426C212.063 55.7996 214.46 54.5809 215.34 54.1346C216.22 53.6884 217.502 53.172 218.189 52.9871C224.178 51.3739 237.9 46.9346 238.466 46.4263C238.858 46.0746 239.458 45.8981 239.799 46.0341C240.14 46.1697 242.096 45.3103 244.143 44.1235C246.191 42.9367 248.543 41.5992 249.37 41.1502L250.873 40.3347L250.767 42.707C250.708 44.012 250.426 45.3045 250.14 45.5806C249.854 45.8562 249.787 46.2681 249.991 46.4957C250.196 46.7232 250.063 48.0338 249.696 49.4086C249.329 50.783 249.042 52.1177 249.059 52.3736C249.075 52.6301 248.491 54.8973 247.761 57.4126C247.031 59.9278 246.461 62.2105 246.494 62.4858C246.527 62.7604 246.053 64.2731 245.44 65.8471C244.827 67.4209 244.487 68.8901 244.684 69.1114C244.881 69.3327 244.823 69.7115 244.554 69.9522C244.286 70.1932 243.003 73.0838 241.702 76.3763C240.402 79.6685 238.633 82.9948 237.771 83.767C235.464 85.8375 226.368 88.2788 222.788 87.7898C222.145 87.7024 221.476 87.7588 221.301 87.9158C221.126 88.0727 220.226 88.1118 219.302 88.003C218.377 87.8946 216.643 87.7706 215.449 87.7279C214.255 87.6856 210.86 87.4041 207.906 87.1025C204.951 86.8007 201.575 86.459 200.404 86.3425C199.233 86.226 197.029 86.1044 195.507 86.0721C193.984 86.0398 192.533 85.9785 192.281 85.9357C191.583 85.8168 186.126 86.6385 183.396 87.2731C176.458 88.8857 162.369 98.7616 158.587 104.662C157.536 106.302 156.848 107.835 157.057 108.069C157.267 108.303 157.145 108.757 156.786 109.079C155.726 110.03 156.47 115.954 157.929 118.171C160.944 122.757 164.78 124.137 170.597 122.728C172.35 122.304 174.359 121.819 175.061 121.651C175.764 121.483 176.938 121.04 177.67 120.667C178.402 120.294 181.157 118.89 183.791 117.546C190.768 113.99 197.78 109.985 199.095 108.805C199.725 108.24 200.456 108.018 200.721 108.313C200.985 108.607 201.572 108.515 202.026 108.108C202.479 107.701 203.709 107.224 204.76 107.048C207.25 106.63 212.096 105.469 216.065 104.339C217.808 103.843 219.617 103.496 220.087 103.569C220.557 103.64 221.267 103.406 221.666 103.049C222.064 102.691 223.267 102.262 224.339 102.094C225.41 101.926 226.616 101.497 227.017 101.141C228.264 100.032 229.1 100.937 228.385 102.625C228.011 103.51 226.51 106.015 225.052 108.194C223.593 110.373 221.428 113.657 220.239 115.492C219.051 117.327 217.393 119.444 216.554 120.197C215.716 120.949 215.126 121.913 215.244 122.339C215.362 122.764 214.745 123.753 213.873 124.537C213.002 125.321 210.95 127.778 209.313 129.996C207.677 132.215 204.792 135.692 202.902 137.725C199.882 140.971 199.058 141.521 196.11 142.26C194.264 142.722 192.513 143.027 192.218 142.936C191.924 142.845 191.096 142.993 190.378 143.263C189.661 143.534 188.873 143.53 188.626 143.256C188.38 142.981 187.888 143.016 187.534 143.335C187.179 143.653 186.687 143.688 186.441 143.414C186.194 143.139 185.479 143.105 184.85 143.338C183.365 143.888 172.271 142.063 170.699 141.01C170.033 140.564 169.308 140.361 169.087 140.559C168.867 140.757 168.362 140.557 167.966 140.115C167.57 139.674 167.065 139.474 166.844 139.672C166.624 139.87 165.822 139.612 165.061 139.098C164.3 138.584 163.452 138.15 163.174 138.134C162.897 138.117 160.922 137.28 158.786 136.273C154.689 134.342 146.683 131.631 145.368 131.729C144.939 131.76 143.674 131.7 142.554 131.596C141.434 131.49 140.274 131.624 139.975 131.892C139.676 132.16 139.205 132.256 138.928 132.106C138.155 131.687 133.594 132.785 132.671 133.613C132.22 134.018 131.547 134.227 131.176 134.079C130.804 133.931 129.384 134.512 128.021 135.369C126.658 136.227 125.239 136.808 124.867 136.659C124.495 136.512 123.707 136.825 123.115 137.356C122.523 137.887 120.835 138.802 119.363 139.391C113.347 141.798 111.773 142.789 110.473 144.99C107.114 150.679 111.057 153.874 122.54 154.769C123.916 154.876 125.502 154.796 126.064 154.589C126.626 154.383 127.287 154.439 127.534 154.714C127.78 154.989 128.272 154.953 128.627 154.635C128.981 154.317 129.464 154.271 129.7 154.534C129.935 154.796 130.747 154.729 131.504 154.383C132.261 154.038 133.092 153.992 133.351 154.28C133.61 154.569 134.025 154.623 134.272 154.401C134.52 154.179 136.577 153.889 138.842 153.756C142.958 153.515 149.815 154.51 156.824 156.366C162.165 157.78 175.725 159.992 178.095 159.836C179.203 159.763 180.428 160.059 180.818 160.494C181.43 161.175 179.563 163.047 167.315 174.036L153.103 186.787L150.206 186.728C144.121 186.604 132.958 183.342 125.223 179.43C123.708 178.663 122.228 178.029 121.935 178.022C121.642 178.013 120.675 177.465 119.785 176.801C118.895 176.138 117.877 175.618 117.522 175.645C117.166 175.671 116.474 175.245 115.983 174.698C115.493 174.152 114.874 173.754 114.608 173.814C114.343 173.876 112.02 172.913 109.447 171.674C101.667 167.932 94.5298 166.484 89.0602 167.539C86.2378 168.083 80.9149 169.832 71.0069 173.468C67.1429 174.887 57.0165 180.346 54.9805 182.109C53.2494 183.607 52.0097 186.405 52.7235 187.2C55.0462 189.789 67.7014 191.449 81.7398 191.007C84.4368 190.922 86.8704 190.975 87.147 191.125C87.4239 191.275 87.9087 191.166 88.2237 190.884C88.5388 190.601 89.0249 190.494 89.3038 190.646C89.5828 190.799 91.433 190.987 93.4143 191.065C97.2887 191.217 105.888 192.526 107.531 193.214C109.859 194.188 117.242 195.819 126.502 197.404C131.946 198.336 136.409 199.259 136.42 199.454C136.438 199.78 133.51 201.814 124.37 207.826C120.096 210.637 114.621 213.631 112.765 214.171C111.988 214.397 110.916 214.954 110.384 215.408C109.852 215.863 108.423 216.555 107.209 216.947C104.732 217.748 94.0465 218.259 89.4812 217.794C87.8377 217.627 85.0432 217.43 83.271 217.357C81.4988 217.284 77.5874 216.621 74.5787 215.883C71.5701 215.146 68.6735 214.447 68.1417 214.329C67.61 214.212 65.0163 213.444 62.3783 212.622C55.6446 210.525 44.698 209.01 41.1194 209.682C39.4598 209.993 37.8731 210.186 37.5931 210.112C37.313 210.038 36.3767 210.356 35.5119 210.819C34.6475 211.282 32.6365 212.348 31.0433 213.188C27.3218 215.149 13.8545 227.227 10.6232 231.501C9.25704 233.307 7.34332 235.844 6.36977 237.136C4.25459 239.946 2.02333 244.077 2.01077 245.205C2.00591 245.651 1.64655 246.335 1.21286 246.724C0.226433 247.609 -0.276068 250.609 0.339028 251.941C0.593392 252.493 1.5076 253.005 2.37031 253.079ZM8.12359 244.063C12.7152 235.961 21.8776 225.748 28.9918 220.803C36.7737 215.393 39.6003 214.308 45.9873 214.277C49.7604 214.258 56.5257 215.55 63.7526 217.67C65.7615 218.259 67.6202 218.766 67.8825 218.796C68.1448 218.827 70.0013 219.335 72.0071 219.927C76.7897 221.337 81.3719 222.085 86.183 222.238C89.7568 222.353 89.9514 222.431 88.4689 223.151C86.7241 223.998 85.894 224.197 77.2934 225.827C71.3587 226.952 69.1228 227.249 68.2816 227.023C68.0006 226.948 67.1846 227.108 66.4666 227.378C65.7491 227.649 64.9611 227.646 64.7147 227.371C64.4683 227.097 63.9726 227.136 63.6132 227.458C63.2539 227.78 61.7416 228.137 60.252 228.251C57.6932 228.447 50.3589 229.781 45.4267 230.949C44.1949 231.241 41.592 231.842 39.6434 232.285C37.6943 232.729 34.6512 233.617 32.8813 234.26C31.1114 234.903 29.1036 235.583 28.4194 235.772C27.7353 235.961 25.279 237.114 22.9608 238.335C20.6431 239.556 17.7167 241.067 16.4585 241.692C15.1999 242.318 13.8329 243.129 13.4214 243.495C12.1547 244.623 8.47323 245.966 8.02318 245.465C7.78927 245.204 7.83408 244.573 8.12359 244.063ZM72.3734 265.038C73.0323 263.781 73.7653 262.19 74.0023 261.502C75.0822 258.373 78.2952 254.539 86.7405 246.301C91.7463 241.417 97.6142 235.117 99.7804 232.3C106.379 223.717 107.927 222.109 110.453 221.212C113.052 220.289 113.468 221.066 111.848 223.811C111.277 224.778 109.918 227.105 108.827 228.981C107.737 230.857 106.255 233.291 105.534 234.39C104.813 235.489 103.123 238.079 101.777 240.146C96.4032 248.398 85.3851 260.403 77.4546 266.647C74.3291 269.109 71.5007 271.149 71.1688 271.181C70.286 271.266 70.9894 267.679 72.3734 265.038ZM64.3596 182.398C66.047 181.45 68.1987 180.367 69.1408 179.99C70.083 179.614 72.3722 178.663 74.2277 177.878C78.814 175.936 81.3749 174.932 82.8344 174.5C83.509 174.301 85.7832 173.578 87.8881 172.893C90.7867 171.951 93.0929 171.844 97.3871 172.456C100.506 172.9 103.309 173.542 103.615 173.883C103.921 174.225 104.711 174.596 105.369 174.708C106.501 174.901 123.749 183.354 124.329 184C124.698 184.412 132.052 187.348 133.979 187.854C136.732 188.576 144.3 189.853 144.543 189.635C144.672 189.519 145.863 189.58 147.189 189.771L149.6 190.117L146.981 192.061C144.774 193.701 143.575 194.009 139.338 194.029C132.617 194.061 117.036 191.412 108.359 188.762C101.959 186.809 83.7688 185.218 82.3525 186.488C82.1127 186.704 81.7179 186.659 81.4753 186.388C81.2323 186.118 79.8117 185.993 78.3174 186.111C76.824 186.23 74.8459 186.234 73.9229 186.121C73 186.009 71.7667 186.093 71.1829 186.31C70.599 186.526 69.9195 186.479 69.6731 186.204C69.4267 185.93 69.0174 185.891 68.7634 186.119C68.0679 186.743 61.4424 185.549 61.3613 184.785C61.3233 184.42 62.6718 183.346 64.3596 182.398ZM145.349 264.716C147.184 259.266 146.976 259.711 151.934 250.655C152.42 249.769 153.328 248.28 153.953 247.348C155.215 245.463 156.474 240.877 156.873 236.704C157.188 233.406 157.198 234.25 156.719 222.154C156.168 208.243 156.831 204.502 162.659 188.677C162.97 187.834 163.361 186.669 163.53 186.089C163.698 185.509 165.739 183.017 168.065 180.551C171.686 176.713 172.398 176.185 173.015 176.872C174.24 178.238 173.892 200.022 172.626 201.158C172.509 201.263 172.425 202.099 172.44 203.016C172.455 203.933 172.076 206.121 171.598 207.878C171.12 209.636 170.756 211.299 170.789 211.574C170.822 211.849 170.348 213.361 169.735 214.935C169.122 216.509 168.782 217.978 168.979 218.199C169.176 218.421 169.045 218.865 168.687 219.186C168.329 219.507 167.909 220.304 167.753 220.956C167.323 222.759 165.636 227.158 163.517 232.003C162.467 234.4 161.468 236.88 161.295 237.512C161.121 238.145 160.684 238.928 160.323 239.252C159.962 239.576 159.533 240.368 159.369 241.011C159.206 241.655 157.915 244.588 156.501 247.53C153.825 253.094 153.515 253.814 152.193 257.559C151.753 258.805 151.178 260.018 150.915 260.254C150.652 260.49 150.315 261.223 150.167 261.884C149.809 263.478 145.992 269.37 145.382 269.269C144.216 269.078 144.209 268.099 145.349 264.716ZM115.361 147.211C116.876 145.852 120.173 144.248 126.281 141.9C128.725 140.96 131.072 139.879 131.497 139.499C132.552 138.553 138.441 136.841 141.523 136.584C145.693 136.236 148.151 136.912 160.472 141.796C172.078 146.397 184.053 149.356 185.569 147.996C185.905 147.694 186.345 147.626 186.546 147.845C186.746 148.062 188.096 148.01 189.543 147.727C190.991 147.443 192.465 147.534 192.818 147.928C193.805 149.028 187.991 153.988 184.975 154.62C179.451 155.776 170.497 154.915 158.951 152.118C149.387 149.801 141.008 148.682 136.436 149.113C126.046 150.091 115.507 149.956 114.498 148.831C114.267 148.574 114.655 147.844 115.361 147.211ZM207.502 211.42C207.972 210.042 209.027 207.521 209.844 205.817C210.662 204.113 211.594 201.455 211.916 199.911C212.479 197.205 212.053 189.28 211.298 188.421C210.773 187.825 208.059 177.646 208.271 177.07C208.368 176.805 208.228 176.344 207.959 176.044C206.91 174.876 207.048 162.545 208.12 161.583C208.373 161.357 208.394 160.965 208.168 160.714C207.771 160.271 209.777 153.06 213.585 141.242C216.632 131.784 216.85 131.064 216.814 130.574C216.649 128.366 220.036 123.789 221.02 124.886C221.285 125.181 221.307 125.595 221.071 125.807C220.835 126.019 220.894 126.475 221.204 126.82C221.894 127.589 222.269 139.226 221.623 139.806C221.286 140.108 220.424 147.117 220.654 147.68C220.773 147.972 220.654 148.423 220.389 148.682C219.218 149.826 222.854 163.12 225.951 169.018C226.283 169.65 226.397 170.309 226.204 170.482C226.011 170.655 226.142 171.351 226.497 172.028C227.129 173.238 228.094 183.28 227.618 183.707C227.385 183.916 227.292 185.043 227.295 187.621C227.295 188.284 227.105 188.999 226.871 189.208C226.638 189.418 226.545 189.828 226.663 190.12C227.18 191.381 224.155 199.726 221.29 204.944C218.958 209.191 209.487 218.18 207.662 217.88C206.331 217.661 206.266 215.033 207.502 211.42ZM161.682 110.357C163.765 104.292 173.565 96.2766 182.963 92.9503C186.518 91.6917 192.601 90.6161 193.089 91.1595C193.31 91.4063 193.782 91.3478 194.136 91.0297C194.491 90.7115 194.983 90.6761 195.229 90.9507C195.475 91.2254 196.148 91.2753 196.724 91.062C197.299 90.8491 199.358 90.8784 201.299 91.1284C203.241 91.378 207.037 91.7753 209.736 92.0112C212.435 92.2467 215.076 92.4946 215.606 92.5626C218.214 92.8949 224.602 92.6073 226.863 92.0548C228.263 91.7129 229.942 91.3525 230.595 91.2541C231.247 91.1556 232.147 90.7465 232.594 90.3454C233.041 89.9444 233.972 89.7616 234.663 89.9391C235.732 90.2145 235.723 90.4371 234.603 91.4424C232.443 93.3798 224.32 97.1417 219.978 98.2152C218.93 98.474 217.077 98.9376 215.859 99.2447C214.641 99.5523 212.209 100.149 210.454 100.571C201.577 102.704 200.524 102.982 198.221 103.798C196.165 104.526 193.69 105.899 187.083 109.974C185.16 111.16 182.709 112.513 181.636 112.982C180.563 113.451 178.36 114.497 176.741 115.308C171.798 117.783 165.737 118.988 163.713 117.899C161.179 116.535 160.468 113.893 161.682 110.357ZM264.836 157.584C263.611 154.952 262.698 152.572 262.808 152.297C262.917 152.021 262.774 151.536 262.488 151.218C261.985 150.657 259.985 143.734 259.734 141.681C259.665 141.118 259.312 138.772 258.95 136.466C258.588 134.16 258.472 130.644 258.692 128.653C258.912 126.661 258.939 124.843 258.752 124.612C258.565 124.382 258.614 124.012 258.86 123.79C259.356 123.345 260.285 115.358 260.104 113.1C259.797 109.296 258.663 104.449 257.356 101.355C256.561 99.4745 255.446 96.8296 254.877 95.4788C251.746 88.0365 249.463 81.013 249.101 77.7103C248.645 73.5562 249.358 72.0105 250.621 74.4134C251.345 75.7887 257.271 84.3065 261.694 90.3267C266.593 96.9941 267.977 101.718 268.719 114.302C269.086 120.524 269.719 128.515 270.125 132.059C271.303 142.33 271.555 150.031 270.859 154.439C270.504 156.69 270.271 158.822 270.342 159.177C270.528 160.111 267.966 163.377 267.476 162.83C267.249 162.577 266.061 160.216 264.836 157.584ZM180.687 64.8595C180.647 64.136 180.806 63.3723 181.039 63.1629C181.273 62.9531 181.366 62.5436 181.247 62.2515C180.933 61.4834 182.105 57.3753 182.822 56.7317C183.157 56.4309 183.253 55.9842 183.033 55.739C182.364 54.9944 185.282 50.4323 188.659 46.942C191.685 43.8133 194.894 42.0034 199.644 40.7468C214.33 36.8619 221.845 35.4255 227.79 35.3676C229.801 35.3479 231.541 35.2467 231.657 35.1422C231.774 35.0377 234.101 35.0774 236.829 35.2301C241.934 35.5159 248.15 34.8392 249.218 33.8809C249.551 33.582 250.148 33.6993 250.544 34.1409C250.94 34.5826 250.964 35.2135 250.597 35.5428C249.281 36.7236 242.153 40.0304 238.164 41.3108C235.927 42.028 232.138 43.2533 229.745 44.0327C227.351 44.8122 224.284 45.772 222.931 46.1659C211.449 49.5025 207.122 51.7778 196.311 60.1627C186.168 68.0292 180.946 69.5993 180.687 64.8595Z" fill="#2A3993"/>
</svg>
