<svg width="269" height="269" viewBox="0 0 269 269" fill="none" xmlns="http://www.w3.org/2000/svg">
<path fill-rule="evenodd" clip-rule="evenodd" d="M268.288 263.678C266.418 256.296 260.974 249.493 254.557 246.521C249.917 244.372 243.011 242.248 236.828 241.068C229.919 239.749 229.749 239.701 230.274 239.219C230.545 238.969 232.703 238.253 235.07 237.627C240.59 236.168 243.917 234.503 247.323 231.497C250.521 228.673 252.108 226.273 251.456 225.244C250.496 223.727 241.758 225.054 236.861 227.461C235.631 228.066 233.392 229.416 231.886 230.463C227.8 233.303 224.24 234.701 217.818 235.987C212.931 236.967 210.702 237.111 203.479 236.92C198.775 236.796 194.457 236.438 193.883 236.124C192.984 235.633 193.249 235.436 195.824 234.688C199.519 233.614 215.106 225.65 215.876 224.443C216.608 223.294 215.699 222.727 211.877 221.947C204.35 220.411 201.237 221.264 191.449 227.546C183.678 232.534 179.643 234.4 175.998 234.691C172.91 234.937 172.91 234.937 174.287 233.977C176.99 232.093 178.695 230.109 178.695 228.85C178.695 227.328 177.751 226.279 176.381 226.279C175.168 226.279 175.127 226.719 176.229 227.908C177.311 229.076 176.903 230.03 174.691 231.5C171.674 233.506 167.029 234.351 159.018 234.351C154.99 234.351 151.695 234.159 151.695 233.924C151.695 233.688 153.739 232.551 156.238 231.395C159.818 229.739 161.73 228.375 165.259 224.961C169.602 220.76 172.594 216.427 171.576 215.813C170.988 215.458 164.277 216.775 159.963 218.091C157.396 218.874 155.943 219.938 150.415 225.081C146.828 228.417 142.611 231.807 141.044 232.614C138.258 234.049 137.948 234.086 127.174 234.253C115.626 234.433 114.528 234.14 120.562 232.49C122.38 231.992 125.976 230.598 128.552 229.391C132.78 227.41 133.971 226.469 140.812 219.702C144.979 215.58 148.389 211.862 148.389 211.44C148.389 209.34 137.433 211.612 132.297 214.779C131.035 215.557 127.365 218.644 124.142 221.64C114.929 230.202 106.582 234.287 97.4186 234.72C92.0742 234.972 92.1536 235.062 95.5055 232.558C97.2445 231.259 98.7962 228.772 98.7962 227.283C98.7962 225.456 97.0764 223.589 95.3941 223.589H94.1957L95.4476 224.89C97.0401 226.545 96.6538 228.692 94.35 230.993C91.1298 234.209 85.101 235.929 76.9568 235.954C75.0977 235.96 69.0226 236.55 63.4567 237.263C49.4821 239.056 48.6512 239.139 48.6666 238.739C48.6738 238.545 51.5876 237.022 55.1412 235.354C65.6498 230.422 80.0613 220.531 80.0613 218.251C80.0613 215.205 68.3955 216.626 61.9717 220.454C60.8591 221.117 57.3453 224.096 54.1631 227.073C45.6244 235.062 39.486 239.544 34.5251 241.409C29.0743 243.459 22.5981 245.115 22.0394 244.603C21.4514 244.064 23.7839 238.12 26.8575 232.324C31.3462 223.86 36.9132 217.464 47.7794 208.285C52.7816 204.061 54.7125 200.229 55.1296 193.702C55.5175 187.634 54.9681 187.656 47.2753 194.03C42.1011 198.316 37.9767 202.409 35.2585 205.953C33.1117 208.752 32.6207 208.449 33.3337 204.764C33.5927 203.427 34.1774 199.912 34.6325 196.952C36.3143 186.03 40.8001 172.959 45.0673 166.549C46.3479 164.625 49.0253 161.151 51.0173 158.829C55.7478 153.314 56.56 151.581 56.6058 146.908C56.6416 143.236 56.6063 143.137 55.2023 142.978C54.038 142.846 53.2291 143.414 50.9853 145.938C44.805 152.887 43.3128 154.78 40.9385 158.679C39.5747 160.919 38.2516 162.758 37.9987 162.766C37.3182 162.79 38.1646 155.047 39.3504 150.405C40.3202 146.608 43.7272 139.07 45.5517 136.684C46.2112 135.821 46.5132 135.741 47.073 136.28C48.8826 138.023 50.6183 135.548 48.8925 133.685C46.4724 131.074 43.0638 133.508 40.707 139.531C39.9251 141.529 39.2854 143.447 39.2854 143.793C39.2854 144.14 38.9983 144.596 38.6473 144.808C37.6125 145.432 38.4814 136.18 39.8651 131.841C42.435 123.778 48.9989 113.092 54.7384 107.626C59.6822 102.917 60.7473 100.797 60.7633 95.6359C60.7782 90.865 60.2855 90.5276 56.3545 92.6171C50.3042 95.8328 42.8109 104 40.2921 110.123C36.0674 120.394 37.0774 107.984 41.5578 94.5764C42.418 92.001 42.9288 91.2132 43.7388 91.2132C44.5719 91.2132 44.7956 90.8284 44.7956 89.3954C44.7956 88.3961 44.4121 87.2672 43.9437 86.8878C43.2379 86.3153 42.8362 86.3809 41.6019 87.2683C40.3836 88.1443 39.848 89.3615 38.6633 93.9468C36.8939 100.793 36.2426 100.099 36.689 91.8428C37.2135 82.1347 40.1984 74.0512 47.4312 62.7546C51.538 56.3403 53.061 52.0548 53.061 46.9147C53.061 40.2083 51.5865 39.5593 46.6179 44.0805C42.7117 47.6347 38.0329 54.8018 35.75 60.7286C34.8154 63.1555 33.8027 65.2073 33.4996 65.2891C32.6659 65.513 32.2273 62.655 31.8212 54.3525C31.4299 46.3653 32.0636 38.5277 33.5597 32.8469C34.0297 31.0609 36.2283 25.6039 38.4451 20.7205C43.4688 9.65535 44.3504 6.87977 43.6402 4.36786C43.061 2.31981 40.2271 -0.378284 39.0997 0.0441338C38.3046 0.34171 34.5217 5.8256 32.7568 9.23831C29.2319 16.053 26.6118 24.9356 26.6118 30.0708C26.6118 34.494 26.09 34.5538 23.742 30.4012C22.5469 28.2875 20.621 25.6324 19.4628 24.5013C15.9577 21.0784 12.2851 21.0886 12.2851 24.5212C12.2851 26.4321 13.1706 26.9981 14.4247 25.8896C15.3185 25.0997 15.5042 25.147 16.8388 26.5095C18.8181 28.5296 23.9079 39.0954 24.238 41.8694L24.5069 44.1284L22.9645 42.245C19.6909 38.2485 13.477 32.2915 9.28641 29.1318C3.86597 25.0459 2.97827 24.5304 1.32077 24.5062L0 24.4873L0.365875 29.1958C0.832581 35.2065 1.75391 36.5217 10.1526 43.1646C18.7189 49.94 21.2354 52.7253 24.0831 58.5805C26.8967 64.3657 28.401 68.6948 29.9058 75.3389C31.0222 80.2685 32.0251 90.6751 31.3837 90.6751C31.1897 90.6751 29.886 88.4489 28.4869 85.7277C26.3115 81.4976 25.016 79.8563 19.5493 74.4026C14.2903 69.1565 12.9072 68.0528 11.7561 68.1841L10.3565 68.3434L10.3901 75.877C10.437 86.2389 10.8034 87.2806 16.2349 92.4783C24.9554 100.824 29.8204 108.498 32.1474 117.581C33.0693 121.178 33.3712 124.336 33.5624 132.379L33.8049 142.603L31.9579 138.029C30.9423 135.513 29.4529 132.202 28.6484 130.67C26.2922 126.183 19.0859 115.614 18.1414 115.26C15.6717 114.335 14.9609 119.618 16.3445 128.615C17.2058 134.215 18.688 137.43 23.288 143.679C27.0735 148.821 27.9849 150.492 29.7284 155.486C32.0014 161.998 32.6731 165.812 32.6731 172.206C32.6731 177.877 31.841 184.211 31.1809 183.567C31.0255 183.415 30.5511 181.673 30.1268 179.695C29 174.446 27.2449 170.586 22.7486 163.468C20.5466 159.983 18.402 156.587 17.9822 155.921C16.6167 153.756 15.2061 154.372 14.535 157.427C12.8306 165.187 14.665 171.78 21.9358 184.037C27.5083 193.432 29.3669 197.623 29.3669 200.793C29.3669 203.903 28.4924 205.121 27.9563 202.759C26.9319 198.249 26.0084 196.767 23.7349 195.98C22.6769 195.614 20.9368 197.002 21.2569 197.956C21.3699 198.292 22.0873 198.64 22.851 198.729C24.6788 198.943 25.3609 201.07 26.1241 208.943C26.6581 214.449 26.6002 215.552 25.507 220.781C24.8441 223.953 24.1878 226.662 24.049 226.802C23.688 227.164 22.7728 225.626 22.7629 224.64C22.7425 222.618 18.3569 202.397 17.8262 201.879C16.949 201.022 15.9439 202.342 14.6132 206.1C12.7672 211.312 12.7436 211.99 14.1707 218.89C16.8366 231.785 17.4174 236.4 17.0708 241.951C16.6129 249.294 16.83 249.523 24.4507 249.735C31.0183 249.918 33.2136 250.549 49.3873 256.894C60.6305 261.305 67.591 263.409 70.9391 263.409C73.8441 263.409 74.1543 263.108 73.168 261.246C71.9926 259.027 68.6242 256.662 62.7971 253.967C56.3595 250.989 51.3226 249.701 42.8268 248.861C39.2121 248.504 35.1389 248.047 33.7751 247.847C31.5368 247.517 31.4068 247.422 32.4427 246.865C34.0897 245.979 43.5382 244.157 50.4034 243.401C57.0472 242.67 63.0655 243.147 72.8412 245.18C79.07 246.475 79.7219 247.009 78.2099 249.582C77.0478 251.56 77.4654 252.06 79.3957 251.002C82.3629 249.375 82.7492 246.338 80.1963 244.705C78.584 243.673 73.1118 242.473 69.5918 242.378L67.1122 242.312L69.0408 241.849C71.3843 241.285 76.9634 241.711 81.4389 242.795C85.8697 243.869 89.3604 245.537 98.4761 250.938C107.576 256.33 111.118 257.692 115.189 257.365C116.779 257.237 118.239 256.978 118.431 256.79C119.054 256.182 117.03 253.777 113.835 251.328C108.018 246.869 96.5926 242.219 88.5658 241.044C87.1767 240.84 86.2444 240.484 86.4945 240.251C87.1817 239.613 108.183 238.49 114.776 238.74C120.402 238.953 120.706 239.03 125.781 241.54C132.834 245.027 135.648 247.15 139.116 251.6C142.356 255.755 144.212 256.886 150.167 258.33C156.611 259.892 157.082 258.715 152.217 253.196C148.006 248.418 143.339 244.968 136.917 241.884C134.142 240.553 131.869 239.248 131.865 238.986C131.854 238.301 136.057 238.96 143.588 240.826C152.061 242.925 153.763 243.634 153.992 245.16C154.225 246.71 155.177 247.016 156.314 245.906C157.509 244.739 157.441 244.218 155.895 242.708C154.653 241.495 153.436 241.036 147.975 239.717C144.3 238.831 145.041 237.945 149.077 238.4C158.99 239.518 169.449 244.457 174.782 250.538C176.469 252.46 178.229 253.752 180.568 254.783C182.417 255.598 185.17 257.272 186.685 258.503C190.001 261.197 191.164 261.212 190.923 258.558C190.432 253.135 184.788 246.853 176.182 242.153L171.256 239.463L177.317 239.309C191.856 238.938 200.416 242.576 209.973 253.187C215.339 259.144 217.749 260.871 222.726 262.318C227.985 263.847 229.079 263.894 229.268 262.602C229.664 259.882 218.687 246.692 213.502 243.658L210.93 242.153L213.039 241.984C219.025 241.503 227.581 243.932 230.926 247.062C233.324 249.306 233.328 249.317 232.464 250.949C231.455 252.856 231.931 253.386 233.828 252.466C235.608 251.603 235.799 249.815 234.367 247.445C233.726 246.384 233.319 245.401 233.463 245.261C233.957 244.778 237.939 246.306 241.551 248.364C245.215 250.453 248.291 253.118 253.438 258.668C255.316 260.691 257.549 262.357 260.051 263.597C262.129 264.628 264.768 266.348 265.916 267.418C269.045 270.336 269.709 269.289 268.288 263.678ZM263.806 263.409C261.434 263.409 257.066 260.237 254.174 256.413C251.314 252.632 248.639 250.049 245.648 248.179C242.973 246.506 242.939 246.454 244.437 246.285C248.673 245.81 256.346 248.856 259.501 252.266C261.686 254.628 264.654 260.349 264.654 262.198C264.655 262.93 264.319 263.409 263.806 263.409ZM245.782 229.877C241.145 234.165 232.167 237.559 224.43 237.946C219.354 238.2 219.306 237.658 224.305 236.516C226.213 236.08 229.027 234.657 232.505 232.371C238.462 228.454 239.462 228.002 243.657 227.327C248.099 226.612 248.627 227.246 245.782 229.877ZM223.19 260.358C220.048 259.773 217.407 258.121 214.962 255.211C209.899 249.185 205.383 245.245 200.959 242.993L196.603 240.776L201.012 240.972C206.672 241.224 210.535 242.958 215.464 247.46C219.348 251.008 224.935 258.243 224.964 259.763C224.978 260.522 224.654 260.631 223.19 260.358ZM208.313 226.482C202.148 230.324 194.836 233.33 188.44 234.651C181.966 235.989 180.658 235.46 185.17 233.329C186.609 232.649 189.978 230.642 192.655 228.87C199.685 224.217 201.286 223.614 206.66 223.6C209.368 223.593 211.206 223.809 211.206 224.133C211.206 224.433 209.903 225.49 208.313 226.482ZM187.604 257C187.049 256.709 186.243 256.058 185.813 255.553C185.383 255.047 183.513 253.968 181.657 253.155C179.394 252.163 177.671 250.928 176.423 249.406C174.333 246.855 170.183 243.936 165.057 241.412C163.163 240.479 161.613 239.495 161.613 239.225C161.613 238.678 170.058 240.776 173.397 242.153C179.679 244.743 185.152 249.317 187.491 253.931C188.927 256.764 188.962 257.71 187.604 257ZM163.955 223.141C159.188 228.122 152.749 231.994 146.6 233.579C143.503 234.377 143.287 233.919 145.857 232.004C146.89 231.235 150.106 228.332 153.004 225.551C157.269 221.459 158.744 220.38 160.739 219.89C163.827 219.13 166.572 219.109 166.572 219.845C166.572 220.153 165.395 221.637 163.955 223.141ZM150.111 256.413C148.989 256.413 144.778 254.698 143.803 253.843C143.22 253.333 141.794 251.553 140.633 249.888C137.853 245.903 135.799 243.949 132.278 241.945C130.683 241.037 129.75 240.289 130.205 240.282C131.842 240.26 138.276 243.631 142.236 246.586C147.434 250.465 152.201 256.413 150.111 256.413ZM132.684 223.924C128.01 227.607 123.763 229.805 118.358 231.339C116.539 231.855 113.641 232.768 111.918 233.367C110.195 233.966 108.485 234.276 108.118 234.054C107.711 233.809 108.716 233.206 110.701 232.504C116.102 230.594 119.964 228.094 126.195 222.477C132.612 216.691 138.028 213.517 142.378 212.992L144.807 212.698L140.95 216.574C138.828 218.706 135.109 222.013 132.684 223.924ZM109.972 254.84C108.798 254.531 105.493 252.807 102.628 251.009C99.7633 249.21 95.9612 246.976 94.1797 246.045C90.4167 244.078 90.8162 243.632 95.3286 244.763C102.398 246.534 109.205 249.897 113.304 253.644L114.863 255.068L113.484 255.234C112.726 255.326 111.145 255.148 109.972 254.84ZM73.3559 221.326C68.1294 225.621 57.0681 232.164 51.2206 234.421C49.7532 234.986 48.6374 235.239 48.741 234.982C49.1223 234.029 62.0483 222.998 64.2783 221.722C68.1046 219.532 75.1021 218.141 75.1021 219.571C75.1021 219.747 74.3163 220.537 73.3559 221.326ZM68.0765 260.705C65.1698 260.613 40.9385 251.35 40.9385 250.332C40.9385 249.727 45.4001 250.277 51.2983 251.608C56.4185 252.763 62.6208 255.416 66.1479 257.96C68.2699 259.49 69.1477 260.739 68.0765 260.705ZM58.5972 98.6579C58.2759 99.753 56.0878 102.48 52.9492 105.699C47.4356 111.352 42.802 118.276 40.1367 124.845C39.2964 126.917 38.4798 128.733 38.3222 128.881C38.164 129.029 38.1773 127.213 38.3503 124.845C39.2225 112.93 44.4557 103.863 54.3945 97.0468C57.2169 95.1113 58.3354 94.6027 58.6622 95.1053C59.2391 95.9932 59.2298 96.5039 58.5972 98.6579ZM53.6655 151.369C53.0886 152.466 51.4151 154.703 49.9461 156.338C44.2925 162.63 40.7864 168.228 38.6655 174.351C37.4301 177.916 37.3502 178.018 37.17 176.235C36.7573 172.153 39.47 164.498 43.2131 159.184C45.2447 156.298 53.4975 147.715 54.2391 147.715C55.021 147.715 54.7802 149.246 53.6655 151.369ZM52.1425 200.968C51.1165 203.43 50.388 204.176 44.411 208.882C39.2187 212.968 35.3213 217.119 31.4564 222.677C30.253 224.408 29.1597 225.718 29.0269 225.589C28.634 225.205 32.4521 214.292 34.0699 211.174C37.0912 205.353 40.7274 201.382 48.0208 195.939C52.143 192.864 52.5905 192.636 53.2506 193.281C53.7801 193.798 53.0654 198.752 52.1425 200.968ZM49.0777 55.799C48.2941 57.4709 46.6091 60.3396 45.334 62.1734C41.6581 67.4593 38.7542 73.6153 37.5348 78.7064C35.9781 85.2041 35.8343 85.429 35.383 82.0653C34.6827 76.8445 34.8403 69.5149 35.7236 66.2028C37.4698 59.6567 40.7913 53.1574 44.4242 49.1797C46.2525 47.1779 49.8238 44.3975 50.5666 44.3975C50.804 44.3975 50.8872 46.2787 50.7506 48.5786C50.5754 51.5403 50.0871 53.646 49.0777 55.799ZM39.5747 13.1068C34.0237 22.5055 31.5919 29.2991 30.34 38.9098C29.4474 45.7605 28.7536 43.6796 28.7327 34.0883C28.7112 24.137 29.6744 19.9489 33.8269 11.9386C35.5896 8.53876 39.6893 2.96285 40.426 2.96285C41.2548 2.96285 42.0069 4.81127 42.024 6.88945C42.0355 8.34827 41.3358 10.1257 39.5747 13.1068ZM33.2484 160.091L32.8312 161.437L32.4863 160.091C32.2967 159.352 31.7545 157.051 31.2817 154.979C30.1124 149.854 28.6219 146.871 23.7134 139.83C19.1399 133.269 18.4384 131.557 18.0152 125.921C17.6967 121.68 18.2549 120.157 19.6992 121.328C20.9467 122.339 26.085 130.598 28.1905 134.977C32.5 143.939 34.7664 155.194 33.2484 160.091ZM33.0004 112.2C32.8775 112.2 32.035 110.651 31.1286 108.759C28.4991 103.272 24.0121 97.2023 19.1526 92.5584C13.1684 86.8399 12.8361 86.1334 12.8361 79.1326C12.8361 76.0099 13.0439 73.4555 13.2973 73.4555C13.5513 73.4555 15.1036 74.3961 16.7479 75.5455C25.091 81.3802 33.0169 97.5667 33.1806 109.105C33.2043 110.807 33.1233 112.2 33.0004 112.2ZM29.9598 194.236C29.336 194.613 18.5029 174.964 17.068 170.854C16.0172 167.844 15.9136 161.201 16.9027 160.255C18.2918 158.925 24.7598 170.063 27.6813 178.816C29.919 185.52 31.1048 193.545 29.9598 194.236ZM26.7292 57.3121C26.4906 57.3121 25.394 55.7812 24.2919 53.9102C22.1308 50.2403 19.3548 47.4545 11.183 40.755C8.30396 38.3943 5.36145 35.842 4.64456 35.0827C3.1535 33.5039 2.2724 28.7922 3.46759 28.7922C6.59851 28.7922 18.6566 39.0626 22.7772 45.2385C25.7836 49.7447 28.2605 57.3121 26.7292 57.3121ZM20.4579 236.907C20.1587 237.869 19.7195 238.656 19.4815 238.656C19.244 238.656 18.8754 236.779 18.6627 234.485C18.4505 232.192 17.5485 226.441 16.6586 221.705C14.8468 212.062 14.6782 209.205 15.831 207.683C16.5859 206.685 16.6586 206.724 17.4422 208.541C20.8073 216.344 22.3474 230.831 20.4579 236.907Z" fill="#293B93"/>
</svg>
