<svg width="1304" height="64" viewBox="0 0 1304 64" fill="none" xmlns="http://www.w3.org/2000/svg">
<path fill-rule="evenodd" clip-rule="evenodd" d="M308.59 63.3345C308.656 60.8062 312.666 56.2689 319.083 51.4597C324.298 47.5514 327.672 44.5761 326.889 44.5761C326.724 44.5761 325.036 45.0702 323.138 45.6748C320.344 46.5645 317.508 46.7635 308.25 46.7221C295.269 46.6637 290.156 45.6987 281.063 41.5914C276.452 39.5089 275.877 39.389 274.037 40.1273C267.612 42.7039 264.314 43.4197 260.279 43.1145C251.518 42.4522 242.779 41.29 242.171 40.7068C241.39 39.9578 242.955 38.6921 246.936 36.8506C250.424 35.2384 259.074 34.9998 265.219 36.3465C267.412 36.8268 269.372 37.0559 269.576 36.855C270.029 36.4068 252.43 27.6416 246.117 25.1717C236.049 21.2327 223.627 19.3636 221.119 21.411C220.528 21.8932 218.701 25.1296 217.059 28.6028C215.416 32.0753 213.103 36.0106 211.919 37.3466C209.651 39.9057 202.861 44.5761 201.408 44.5761C199.143 44.5761 201.567 36.9034 205.498 31.6346C206.558 30.2138 209.452 27.5619 211.931 25.7405C216.74 22.2077 217.504 21.0895 214.69 21.7042C207.224 23.3347 203.517 25.426 191.34 34.8792C186.448 38.677 181.444 42.3888 180.221 43.1277C177.619 44.6998 171.146 46.4596 167.969 46.4596C166.341 46.4596 164.727 47.2017 161.929 49.2372C152.784 55.8897 150.241 56.8603 140.642 57.3645C134.885 57.6671 133.725 57.5729 133.417 56.7774C132.875 55.3811 134.689 53.7349 139.45 51.3034C144.161 48.8969 147.331 48.0242 153.723 47.3744C156.098 47.1327 157.938 46.8344 157.814 46.7114C157.689 46.5883 155.111 45.7784 152.084 44.9114C149.056 44.045 141.778 41.2499 135.908 38.7009C124.17 33.6029 116.613 30.7638 114.782 30.7638C114.125 30.7638 111.363 33.0428 108.625 35.8442C103.126 41.469 99.739 43.4981 94.1439 44.5203C86.3745 45.9392 85.5758 44.8944 90.3888 39.6049C93.9349 35.708 97.3354 33.6638 104.15 31.332C109.218 29.5979 109.272 29.5571 107.434 28.8665C106.405 28.4804 102.705 28.0076 99.2104 27.8155C93.0682 27.4784 92.7295 27.5298 89.0443 29.3669C84.2803 31.7407 80.672 32.3441 76.7714 31.4193C73.977 30.7569 73.3467 30.8542 68.4397 32.7057C65.5201 33.8075 62.6291 35.2051 62.0141 35.8128C61.3997 36.42 60.4136 38.5609 59.822 40.5706C58.5735 44.8141 56.8059 48.4191 54.5172 51.3894C52.4758 54.0388 43.8276 59.8595 42.616 59.3999C41.1933 58.8599 41.5339 55.2141 43.3422 51.6292C44.3613 49.6076 46.8692 46.6291 50.0137 43.7066C52.7846 41.1312 55.0516 38.8591 55.0516 38.6575C55.0516 38.4566 49.4043 41.0691 42.5029 44.4637C35.6014 47.8584 28.9534 51.0284 27.7303 51.5093C26.5072 51.9896 23.803 53.7356 21.7215 55.3887C17.0445 59.1042 12.3834 60.8966 5.93618 61.4598C-0.390916 62.0129 -1.28426 61.2972 1.4879 57.8975C5.90251 52.4831 11.5199 50.2266 20.5817 50.2266C26.4348 50.2266 26.8262 50.135 32.6799 47.3945C36.0074 45.8374 38.6099 44.4437 38.4625 44.298C38.3151 44.1523 36.285 44.2672 33.9513 44.5535C29.1936 45.1368 20.4438 44.379 19.0872 43.2671C17.3514 41.8432 18.2632 40.8951 23.1238 39.0713C33.1558 35.3068 37.2419 35.0519 45.2629 37.6894L49.248 39.0003L56.4386 35.8618C60.3932 34.1359 65.0588 32.1745 66.8061 31.5034C68.5534 30.8322 69.9493 30.0387 69.908 29.7386C69.8667 29.4391 68.3672 28.7573 66.5754 28.2236C62.2403 26.9328 61.4772 26.1329 63.4024 24.8973C67.1873 22.4689 76.8692 22.1449 82.62 24.2544C84.1278 24.8069 89.1276 25.4442 94.4451 25.7612C107.041 26.5121 116.087 28.5733 127.496 33.2921C134.656 36.2536 135.141 36.199 131.297 32.8683C123.874 26.4362 120.534 21.7745 122.747 20.9351C125.272 19.9776 133.403 23.0471 137.322 26.4368C138.976 27.8676 140.668 30.4336 142.478 34.2546C143.96 37.3837 145.584 40.2805 146.087 40.6936C147.718 42.0303 154.141 43.8974 159.564 44.6107C165.895 45.4432 173.256 44.5736 177.68 42.4697C180.395 41.1789 200.553 26.0406 200.553 25.2922C200.553 25.097 199.052 25.0731 197.218 25.2389C195.383 25.4046 191.737 25.3469 189.116 25.1108C184.636 24.7071 184.028 24.812 178.95 26.8618C171.004 30.0701 167.878 30.7481 161.001 30.7563C154.286 30.7644 153.503 30.2798 156.236 27.8036C159.822 24.552 167.528 21.9773 174.735 21.6219C176.879 21.5158 178.772 21.411 178.942 21.3878C179.112 21.3652 177.764 20.3568 175.948 19.1476C171.495 16.1849 167.514 12.1178 167.514 10.5325C167.514 9.30888 167.768 9.25676 171.996 9.60646C179.022 10.1885 184.238 12.8844 190.052 18.9373L194.793 23.8733L198.467 23.4954C200.488 23.2869 204.286 22.5549 206.907 21.8687C218.592 18.8074 226.254 18.1996 233.587 19.7522C235.855 20.2325 237.817 20.5207 237.947 20.392C238.077 20.2633 237.244 19.5934 236.094 18.9028C233.214 17.1719 227.974 12.0563 226.817 9.84568C225.341 7.02482 226.405 6.54641 231.399 7.78576C239.823 9.87707 243.624 12.7073 249.92 21.5792L253.426 26.5215L268.13 33.6173C276.218 37.5205 284.693 41.3271 286.965 42.0774C292.268 43.8277 299.605 45.2121 303.382 45.1745L306.344 45.1456L303.167 43.5157C296.045 39.8617 291.126 34.1528 291.529 30.0091C291.724 28.0013 291.808 27.9455 294.271 28.1627C299.033 28.5821 303.204 31.6396 310.052 39.7318C314.773 45.3094 315.299 45.5399 320.611 44.3545C326.497 43.0404 330.343 41.0314 338.732 34.8855C342.585 32.0634 347.096 28.8376 348.755 27.7176C350.415 26.5975 351.773 25.6175 351.773 25.5396C351.773 25.4624 349.128 25.3896 345.896 25.3789C341.282 25.3632 339.369 25.0694 336.993 24.0121C331.775 21.6904 332.276 19.714 338.528 17.9598C343.312 16.6175 348.294 16.6878 354.219 18.1833C358.348 19.2249 360.96 19.3938 371.163 19.282C380.88 19.1746 384.254 19.3724 388.52 20.2997C391.432 20.9326 393.922 21.3444 394.053 21.2151C394.184 21.0858 392.499 19.6957 390.309 18.1262C384.932 14.2732 382.337 8.77522 385.905 8.79657C387.996 8.80912 393.164 10.633 396.578 12.5623C400.293 14.663 402.929 17.3502 406.142 22.3132C407.925 25.0675 408.813 25.7807 411.938 26.9711C419.052 29.6808 427.782 33.2613 436.914 37.2148C441.981 39.4084 446.695 41.4137 447.39 41.6718C448.084 41.9292 446.602 40.1738 444.097 37.7704C439.559 33.4177 435.877 27.683 436.533 25.9916C437.061 24.6324 439.414 24.9438 443.586 26.924C448.31 29.1672 451.971 32.8928 455.071 38.6117C458.6 45.1205 458.705 45.204 463.413 45.204C468.74 45.204 473.788 43.075 481.538 37.5601C484.777 35.2553 491.344 30.7456 496.133 27.538C500.922 24.3304 504.752 21.6188 504.644 21.5127C504.537 21.406 502.438 21.6596 499.98 22.0765C496.459 22.6729 494.765 22.6679 491.984 22.0533C488.022 21.1774 485.203 19.3197 485.203 17.5856C485.203 16.092 489.703 15.0134 497.593 14.6153C502.458 14.3705 504.212 14.5802 509.347 16.0223C513.848 17.2855 517.647 17.838 524.279 18.1933C537.517 18.9034 543.21 20.5213 563.956 29.4736C570.402 32.2549 575.963 34.5308 576.314 34.5308C576.664 34.5308 575.253 33.0479 573.177 31.2347C567.984 26.698 566.593 25.1704 565.195 22.4701C562.479 17.2208 564.308 16.2684 570.877 19.5118C575.808 21.9465 580.352 26.8587 583.899 33.5891C586.877 39.2395 587.588 39.7437 594.636 41.1959C604.432 43.2137 616.681 39.6558 628.481 31.364L630.387 30.0248L628.481 30.4474C627.432 30.6797 624.393 31.0156 621.727 31.1939C617.72 31.4613 616.363 31.2918 613.895 30.2126C609.899 28.4666 610.172 27.0797 614.823 25.4881C619.133 24.014 628.986 23.4728 634.18 24.4258C637.916 25.1108 638.026 25.0895 641.487 22.9931C647.225 19.5181 653.642 16.5327 658.689 14.9914C665.203 13.0018 678.987 12.976 685.506 14.9418C690.17 16.3481 691.024 15.9212 687.659 13.8663C684.246 11.7819 679.026 3.08392 679.877 0.89592C680.386 -0.414993 681.518 -0.221626 685.847 1.91552C690.615 4.26989 695.134 9.00689 698.834 15.5276C701.352 19.967 701.941 20.5552 706.95 23.636C716.197 29.3223 715.604 29.1019 719.545 28.3197C723.969 27.4413 730.764 27.4281 734.717 28.2889C738.93 29.2068 743.442 31.4827 743.692 32.8162C744.166 35.3514 734.813 36.7295 728.237 35.094C723.214 33.844 723.711 34.888 729.833 38.4485C741.343 45.1418 753.866 49.0281 763.924 49.0281C769.638 49.0281 770.209 48.9157 771.243 47.5866C771.861 46.7943 772.372 45.855 772.38 45.5003C772.388 45.1449 773.35 42.8847 774.518 40.4776C776.903 35.563 782.181 30.2622 787.258 27.6811C791.422 25.5647 791.978 26.3288 790.284 31.8393C788.594 37.3347 785.516 41.2417 780.156 44.6923C775.13 47.9275 776.103 48.5447 782.357 46.0879C788.03 43.8591 791.938 41.6749 801.939 35.1436C812.634 28.1589 817.017 25.6162 821.358 23.8815C824.061 22.801 825.286 21.8567 826.568 19.8671C828.861 16.3073 832.537 12.6923 835.26 11.3192C837.743 10.0673 849.114 6.27833 850.387 6.27833C850.856 6.27833 851.181 7.09764 851.181 8.28299C851.181 9.88208 850.494 10.9456 847.789 13.5342C845.01 16.195 843.433 17.104 839.053 18.5732L833.708 20.365L838.473 20.8145C845.005 21.4298 851.792 23.6699 866.729 30.141C889.116 39.8385 888.934 39.7745 891.032 38.7027C892.033 38.1911 894.269 36.6077 896.002 35.1844C900.194 31.7395 905.874 29.0285 910.794 28.1244C914.126 27.5123 914.905 27.5342 915.357 28.2562C917.023 30.9201 908.828 37.8119 900.741 40.5486C898.447 41.3246 897.034 42.0868 897.564 42.2632C901.177 43.4674 905.972 44.126 913.13 44.4016C920.44 44.6835 921.853 44.5642 925.412 43.3688C930.021 41.8206 935.055 38.9118 944.677 32.238C951.704 27.3641 952.182 26.7281 952.197 22.2454C952.215 17.0406 953.943 13.1468 957.96 9.26053C960.011 7.27533 962.13 5.65049 962.667 5.65049C964.877 5.65049 962.992 14.0164 959.579 19.3599C958.669 20.7838 957.925 22.0859 957.925 22.2529C957.925 22.4199 960.23 21.4549 963.049 20.1082C973.512 15.1088 979.165 15.9884 1002.97 26.3187C1008.69 28.8025 1013.71 30.7067 1014.12 30.5497C1014.54 30.3928 1015.9 28.1489 1017.16 25.5628C1019.86 20.0298 1022.96 16.7468 1027.43 14.6881C1031.17 12.9679 1032.17 12.8455 1032.64 14.0515C1033.59 16.4994 1028.43 22.9642 1020.41 29.3794L1018.6 30.8203L1021.46 30.4015C1027.75 29.4818 1040.96 23.2989 1052.28 15.9739C1058.87 11.7085 1060.74 11.0473 1066.87 10.8245C1079.05 10.3825 1078.88 15.456 1066.61 18.5606C1063.56 19.3341 1061.53 19.454 1058.08 19.0648C1055.59 18.7841 1052.98 18.6272 1052.28 18.7151C1050.36 18.9574 1039.24 25.2113 1039.63 25.8303C1039.81 26.1266 1041.47 26.369 1043.31 26.369C1048.31 26.369 1052.64 27.8902 1056.03 30.8429C1061.17 35.3087 1059.04 37.4653 1051.12 35.8122C1049.31 35.4336 1044.9 33.687 1041.32 31.9303C1034.19 28.4333 1034.58 28.4634 1026.55 30.7939C1018.59 33.1006 1018.71 32.8626 1024.37 35.0199C1038.98 40.5844 1052.37 43.5584 1062.76 43.5408C1074.12 43.522 1079.25 41.2229 1097.39 28.0246C1101.23 25.2276 1104.67 22.5103 1105.01 21.9854C1105.36 21.4612 1106.72 18.5412 1108.02 15.4968C1110.91 8.74948 1112.26 6.81387 1115.71 4.4664C1117.97 2.92947 1125.79 0 1127.64 0C1127.95 0 1128.21 0.659851 1128.21 1.46662C1128.21 3.78521 1124.1 8.39537 1118.13 12.7739C1112.43 16.9552 1109.72 19.4628 1110.9 19.4628C1111.28 19.4628 1113.39 18.9869 1115.61 18.4055C1120.87 17.0224 1135.37 16.9948 1142.56 18.3534C1145.38 18.8877 1150.73 20.5213 1154.45 21.9836L1161.2 24.6412L1167.61 22.5681L1174.01 20.495L1182.72 21.5799C1195.32 23.1507 1195.66 23.2173 1195.4 24.0504C1195.26 24.4622 1193.6 25.647 1191.7 26.6829C1188.51 28.4226 1187.76 28.5664 1181.9 28.5664C1178.4 28.5664 1173.68 28.3529 1171.41 28.0918L1167.28 27.6171L1179.17 33.4899C1191.3 39.4813 1196.11 41.2976 1204.33 42.9915C1210.32 44.2245 1213.97 44.2038 1215.81 42.9281C1216.62 42.3668 1218.13 40.0356 1219.17 37.7484C1222.78 29.7624 1223.84 28.0811 1226.95 25.313C1230.73 21.9578 1235.3 19.2155 1236.2 19.7654C1237.33 20.4554 1236.92 22.7765 1234.94 26.9215C1232.34 32.3516 1230.01 35.094 1224.74 38.9551C1222.29 40.752 1220.42 42.3555 1220.58 42.5187C1221.16 43.0869 1227.24 41.4627 1230.83 39.7782C1232.83 38.8459 1239.36 34.3192 1245.35 29.7203C1251.34 25.1208 1257.45 20.7869 1258.94 20.0888C1260.44 19.3906 1263.87 18.5255 1266.57 18.1657C1271.06 17.568 1271.97 17.1832 1277.04 13.7458C1285.59 7.94836 1287.33 7.34439 1296.42 7.02671C1302.92 6.79943 1304.21 6.90491 1304.21 7.6627C1304.21 10.3957 1294.73 15.2419 1287.36 16.2778C1278.74 17.4895 1278.56 17.6025 1283.24 18.8425C1288.38 20.2043 1295.96 23.0314 1302.62 26.062C1309.74 29.306 1316.69 32.0308 1320.32 32.9995L1323.4 33.8239L1328.24 28.7861C1330.9 26.0155 1334.24 23.076 1335.66 22.2535C1338.04 20.8748 1345.84 18.835 1348.72 18.835C1352.68 18.835 1346.14 26.7959 1339.33 30.2835C1336.96 31.4952 1334.25 32.6661 1333.3 32.8859C1332.36 33.1056 1330.78 33.5947 1329.81 33.9727C1328.06 34.6488 1328.06 34.6689 1329.44 35.1957C1330.22 35.4901 1333.82 36.0728 1337.46 36.4903L1344.07 37.2493L1347.49 35.1053C1350.85 32.9951 1351.02 32.9606 1358.21 32.9154C1364.63 32.8752 1366.06 32.6586 1369.97 31.1355C1372.41 30.1812 1374.75 29.1296 1375.15 28.7974C1375.56 28.4659 1376.65 25.8768 1377.58 23.044C1378.51 20.2112 1380.31 16.3776 1381.58 14.5249C1384.19 10.7027 1391.8 5.02266 1394.3 5.02266C1395.8 5.02266 1395.85 5.1589 1395.49 7.81086C1394.94 11.7712 1391.91 16.2439 1386.28 21.411C1380.3 26.9007 1381.13 26.7337 1394.76 19.7215C1400.37 16.8404 1406.19 14.049 1407.71 13.5191C1409.23 12.9886 1412.37 11.1773 1414.68 9.49346C1421.77 4.33833 1426.78 2.51133 1433.85 2.51133C1436.58 2.51133 1437 2.68084 1437 3.76511C1437 5.54816 1433.15 9.52359 1429.57 11.4454C1425.7 13.5191 1419.6 14.6172 1414.88 14.0898C1411.45 13.7062 1410.82 13.8613 1405.05 16.5283C1401.65 18.0954 1398.88 19.476 1398.88 19.5972C1398.88 19.7183 1402.52 19.8081 1406.98 19.7968C1418.65 19.7679 1422.51 21.6766 1416.19 24.353C1408.39 27.6548 1405.1 28.4038 1399.83 28.0748C1396.85 27.8896 1393.36 27.2109 1391.38 26.4343C1388.18 25.1736 1387.92 25.1604 1385.98 26.1605C1384.86 26.7388 1380.23 28.7108 1375.69 30.5434C1371.15 32.3761 1367.36 34.0989 1367.27 34.3713C1367.18 34.6444 1368.75 35.4273 1370.76 36.1117C1375.36 37.6788 1375.5 38.8735 1371.24 40.3106C1366.77 41.8174 1359.9 41.7415 1354.93 40.1292C1352.09 39.2056 1348.11 38.6638 1341.38 38.2846C1334.76 37.9117 1329.94 37.2638 1325.61 36.1644C1318.91 34.4649 1309.85 31.3477 1305.91 29.3876C1301.72 27.3057 1302.07 28.4408 1306.82 32.3422C1313.38 37.7208 1316.48 42.3467 1314.39 43.6212C1313.63 44.087 1307.22 42.299 1304.13 40.7595C1299.86 38.6293 1297.74 36.2818 1294.91 30.5365C1293.39 27.4407 1291.66 24.3857 1291.08 23.7478C1289.4 21.9158 1282.24 20.0266 1275.49 19.6386C1268.37 19.2286 1262.58 20.1308 1258.69 22.2529C1255.81 23.8244 1236.85 38.2451 1236.86 38.8591C1236.86 39.0681 1240.93 39.2333 1245.91 39.2257C1254.5 39.2119 1255.13 39.1247 1258.24 37.5168C1263.44 34.8328 1270.09 33.2751 1276.36 33.2751C1279.4 33.2751 1282.05 33.5319 1282.25 33.8465C1282.94 34.9571 1281.89 36.1971 1278.61 38.1132C1274.08 40.7608 1269.67 42.0598 1263.42 42.5865L1258.14 43.031L1260.79 44.7243C1266.95 48.6489 1271.02 53.5114 1269.16 54.7112C1267.43 55.8307 1257.95 53.6025 1253.51 51.0309C1252.01 50.1594 1249 47.4729 1246.83 45.0614L1242.89 40.6773L1238.13 41.0326C1235.51 41.2279 1231.93 41.8325 1230.18 42.3762C1221.72 45.0093 1209.91 45.9442 1203.17 44.5146C1201.38 44.136 1199.79 43.947 1199.64 44.0958C1199.49 44.244 1200.82 45.2931 1202.59 46.427C1206.17 48.7198 1210.81 54.0828 1210.81 55.9336C1210.81 56.7611 1210.36 57.1303 1209.38 57.1252C1207.59 57.1158 1202.32 55.695 1199.32 54.4124C1196.38 53.1529 1190.93 48.3017 1189.13 45.3333C1185.23 38.9087 1183.85 37.8282 1172.12 32.0823C1157.02 24.6814 1149.77 21.6885 1144.09 20.5144C1137.82 19.218 1132.02 18.6152 1132.02 19.2607C1132.02 19.5444 1133.58 20.5816 1135.49 21.5661C1141.69 24.7674 1147.08 32.0885 1145.75 35.5039C1145.42 36.3766 1144.85 36.494 1142.65 36.1462C1137.79 35.379 1132.66 31.5147 1127.43 24.6876C1124.38 20.7034 1122.55 19.4628 1119.72 19.4628C1116.07 19.4628 1109.41 21.8611 1105.2 24.6927C1101.24 27.3503 1086.36 38.0272 1085.51 38.8245C1085.26 39.0531 1087.42 39.1422 1090.3 39.0236C1093.18 38.9049 1096.78 39.136 1098.28 39.5378C1101.36 40.3552 1104.23 42.7881 1103.71 44.1316C1102.71 46.6882 1090.88 47.8327 1083.34 46.0999C1079.37 45.1845 1075.57 44.9365 1064.99 44.9013C1054.51 44.8662 1050.7 44.6213 1047.26 43.7625C1044.85 43.1604 1042.77 42.7717 1042.64 42.8992C1042.52 43.026 1043.96 44.1486 1045.86 45.3929C1049.74 47.9407 1052.49 51.1351 1052.74 53.4079C1052.9 54.8525 1052.75 54.9297 1049.82 54.8274C1043.6 54.6095 1035.78 49.3169 1031.17 42.2111C1029.84 40.1556 1028.23 38.5401 1026.98 38.0128C1025.87 37.5413 1021.53 35.8128 1017.33 34.1723C1013.14 32.5312 1007.99 30.4103 1005.9 29.4585C996.813 25.3362 990.204 22.602 989.324 22.602C988.802 22.602 989.887 23.8106 991.735 25.2878C995.838 28.5689 1000.49 35.1812 1000.49 37.7271C1000.49 40.1386 999.524 40.0859 993.789 37.3598C988.286 34.7449 985.37 31.7125 981.469 24.5501C979.012 20.0404 978.473 19.4421 976.538 19.083C970.801 18.0201 963.283 20.9213 953.978 27.7891C951.082 29.9275 945.032 34.139 940.534 37.1489L932.356 42.6211L938.059 42.2557C941.195 42.0548 944.795 42.0824 946.059 42.3166C948.567 42.7818 952.206 45.4356 952.206 46.7999C952.206 48.1504 948.051 49.0375 940.134 49.3778C933.909 49.6452 932.122 49.4908 928.062 48.3343C925.066 47.4811 920.112 46.7767 914.719 46.4364C900.491 45.5398 895.198 44.0707 873.985 35.1291C866.593 32.0132 860.449 29.559 860.332 29.6745C860.214 29.79 862.24 31.6346 864.833 33.7724C869.457 37.5852 872.274 41.3064 873.126 44.7274C873.811 47.478 872.053 47.542 866.765 44.9597C861.022 42.1552 857.131 38.0894 853.661 31.2698C850.877 25.8002 849.533 24.6763 844.327 23.4652C837.681 21.9202 829.022 22.6334 822.487 25.2646C818.555 26.848 807.34 33.3009 807.34 33.9802C807.34 34.2207 808.841 34.0223 810.676 33.5395C814.668 32.4897 818.23 32.4169 821.518 33.3197C823.88 33.9676 826.401 35.8524 826.401 36.9699C826.401 38.2287 814.736 40.9014 811.035 40.4902C801.178 39.3952 798.511 39.421 796.737 40.6271C783.377 49.7099 767.748 52.9094 753.209 49.5366C750.085 48.8115 747.39 48.3557 747.22 48.5233C747.051 48.6909 747.856 49.4086 749.01 50.1186C750.165 50.8287 751.653 52.0448 752.319 52.8215C754.299 55.1325 757.145 60.9092 757.145 62.615C757.145 64.0923 756.983 64.1771 754.821 63.8305C751.756 63.3389 746.425 59.786 743.385 56.208C742.041 54.6277 739.78 51.2324 738.359 48.6621C735.839 44.1065 735.603 43.8868 728.929 39.8881C721.52 35.4487 721.038 35.3413 713.91 36.5493C710.111 37.1928 708.648 37.1551 704.526 36.3088C698.833 35.1404 693.289 32.7139 693.289 31.391C693.289 28.7849 701.587 27.56 708.473 29.149C710.883 29.7053 712.987 30.0299 713.149 29.8704C713.566 29.4579 707.476 25.701 701.891 22.9247C699.282 21.6288 693.707 19.4477 689.501 18.0791C683.061 15.9834 680.726 15.5345 674.724 15.2369C669.704 14.9876 667.327 15.1025 666.691 15.6249C666.193 16.0323 664.826 18.6642 663.654 21.4731C661.157 27.4501 657.521 31.7752 652.05 35.2716C647.482 38.1917 645.948 38.3612 645.969 35.9434C645.991 33.4735 648.61 27.5141 650.964 24.5765C652.071 23.1959 654.853 20.8943 657.148 19.4622C659.443 18.0301 661.17 16.7091 660.985 16.5271C660.445 15.9934 654.283 18.1908 649.131 20.7543C646.51 22.0583 639.505 26.2842 633.564 30.1441C627.623 34.0047 620.275 38.3367 617.234 39.7707C613.695 41.4407 611.467 42.896 611.042 43.8158C609.539 47.0642 604.328 51.6857 599.889 53.7054C595.048 55.9085 586.537 58.2761 585.861 57.6081C585.035 56.7906 586.297 53.922 588.583 51.4208C591.183 48.5779 593.724 47.1414 599.094 45.4783C601.104 44.8561 602.748 44.1561 602.748 43.9232C602.748 43.6903 600.532 43.3493 597.824 43.1654C592.225 42.7855 586.624 41.069 575.713 36.3917C553.508 26.8712 549.166 25.1133 547.855 25.1133C547.067 25.1133 544.298 26.7099 541.703 28.6606C535.223 33.5338 529.867 35.9447 525.328 36.0313C522.302 36.0897 521.737 35.9271 521.737 34.9992C521.737 31.9504 534.041 23.2298 538.342 23.2298C540.671 23.2298 540.116 22.0947 537.44 21.3827C533.352 20.2947 521.937 19.2933 517.883 19.6669C511.018 20.2991 503.521 23.9977 491.247 32.8087C485.522 36.9178 485.203 37.3404 485.203 40.8154C485.203 44.4537 483.749 49.3847 481.873 52.107C479.857 55.0327 474.508 59.3785 473.811 58.6584C472.799 57.6143 474.286 51.3027 476.6 46.8231C477.834 44.4336 478.744 42.38 478.623 42.2594C478.501 42.1395 476.287 43.1057 473.701 44.4072C469.228 46.6586 468.709 46.7723 462.965 46.7528C459.645 46.7415 455.785 46.3623 454.387 45.9096C449.002 44.1668 441.955 41.3761 432.893 37.3975C427.712 35.1228 423.172 33.4453 422.804 33.6694C422.437 33.8936 421.157 36.1726 419.959 38.7335C418.761 41.2944 416.691 44.4361 415.357 45.715C412.655 48.3055 407.95 50.8545 405.87 50.8545C401.43 50.8545 408.213 40.8072 416.154 35.6232C417.491 34.7505 418.342 33.8879 418.045 33.7065C417.078 33.1163 409.421 35.1988 404.848 37.2964C402.391 38.4234 397.582 40.946 394.163 42.9023C390.743 44.8587 387.779 46.4596 387.576 46.4596C387.373 46.4596 385.857 47.439 384.207 48.6357C380.049 51.6518 375.685 53.3765 371.173 53.7877C364.229 54.4199 358.537 51.633 362.087 49.3389C366.977 46.179 369.675 45.5191 377.84 45.4815L385.799 45.445L391.66 42.3505C394.883 40.649 397.521 39.092 397.521 38.8911C397.521 38.6908 395.059 38.2011 392.049 37.8031C388.374 37.3171 385.684 36.5618 383.856 35.5033C380.82 33.746 377.642 30.3551 378.014 29.2721C378.166 28.8295 380.13 28.5664 383.282 28.5664C387.962 28.5664 388.679 28.7547 393.708 31.2981C402.461 35.7256 403.379 35.9516 406.769 34.5157C408.353 33.8452 411.505 32.9581 413.773 32.545C419.208 31.5555 418.565 31.0112 407.687 27.3892C391.99 22.1638 386.485 21.0883 375.282 21.0588C365.549 21.0324 365.378 21.0563 360.669 23.0703C355.672 25.2075 349.405 29.1722 338.582 37.0421C332.254 41.6429 332.06 41.8589 330.12 46.4596C326.772 54.3948 326.157 55.474 323.453 58.1492C320.771 60.8031 315.868 63.0457 311.103 63.7991C309.172 64.1042 308.573 63.9931 308.59 63.3345ZM754.263 60.4559C753.99 59.8369 753.825 59.0809 753.895 58.7758C754.413 56.5514 745.141 48.3431 742.11 48.3431C740.215 48.3431 740.239 48.5811 742.496 52.0549C744.878 55.7239 747.811 58.5084 751.404 60.5124C754.465 62.2201 755.037 62.2088 754.263 60.4559ZM316.591 60.5143C320.363 58.9598 322.524 57.2113 324.528 54.0884C328.177 48.4034 326.471 48.1535 319.491 53.3507C314.393 57.1466 312.012 59.8036 312.708 60.9174C313.226 61.7455 313.729 61.6927 316.591 60.5143ZM13.1166 58.3269C18.0471 56.606 22.4306 52.8284 20.7138 51.7793C19.5403 51.0629 13.5461 52.1716 9.94161 53.7714C4.82491 56.0429 2.0483 59.0332 4.35155 59.7917C5.36879 60.1269 10.3394 59.2963 13.1166 58.3269ZM49.0828 53.9986C50.9305 52.6205 53.2744 50.2894 54.2923 48.819C56.3382 45.8632 58.0493 41.6787 57.4533 41.0898C56.4348 40.0834 50.2246 45.1004 46.4644 49.9673C44.2743 52.8026 43.4375 56.5049 44.9866 56.5049C45.3919 56.5049 47.2352 55.3774 49.0828 53.9986ZM149.93 54.4852C151.266 54.0897 153.554 52.699 155.013 51.3944L157.665 49.0224L155.759 49.0017C150.231 48.9408 142.471 51.0937 138.286 53.8492L136.698 54.8952L138.604 55.3453C140.926 55.8941 146.628 55.4609 149.93 54.4852ZM596.712 53.2842C598.459 52.6438 600.785 51.5765 601.88 50.9128C603.885 49.698 607.61 45.4036 607.098 44.8982C606.622 44.4286 595.675 48.2722 592.885 49.8882C590.65 51.1822 588.134 53.8122 588.134 54.8537C588.134 55.4169 593.639 54.4099 596.712 53.2842ZM478.976 52.8949C479.875 51.945 481.072 50.2643 481.636 49.1593C482.83 46.8206 483.046 41.8338 481.938 42.1985C480.523 42.6644 476.308 50.4056 476.308 52.5377C476.308 55.0722 476.846 55.1444 478.976 52.8949ZM1206.99 53.5824C1206.99 51.6662 1201.72 47.542 1195.74 44.7814C1192.51 43.2872 1189.7 42.0648 1189.51 42.0648C1188.02 42.0648 1194.1 48.9848 1197.74 51.4421C1202.23 54.4676 1206.99 55.5688 1206.99 53.5824ZM1050.05 51.9193C1050.05 49.6917 1040.7 43.5276 1036.04 42.6857C1033.83 42.2864 1033.65 42.3517 1034.19 43.35C1035.45 45.693 1040.23 49.8116 1043.32 51.2362C1046.9 52.8817 1050.05 53.2019 1050.05 51.9193ZM1266.08 51.8715C1266.08 50.744 1261.64 47.1735 1257.07 44.627C1253.62 42.7077 1247.02 41.3403 1247.02 42.5451C1247.02 43.4429 1252.98 48.7989 1255.22 49.9121C1260.73 52.6488 1266.08 53.615 1266.08 51.8715ZM375.334 51.277C378.042 50.4012 381.39 47.8892 380.723 47.2356C380.463 46.9814 378.167 46.8074 375.622 46.8489C372.05 46.9066 370.141 47.311 367.261 48.6187L363.528 50.3139L365.116 51.1897C367.031 52.2457 372.205 52.2897 375.334 51.277ZM944.01 47.6186C949.179 46.7754 949.736 45.4563 945.526 44.0349C943.474 43.3418 941.986 43.3173 937.687 43.905C934.769 44.3043 931.636 45.1129 930.725 45.7018L929.069 46.7735L932.219 47.4981C936.404 48.4605 938.706 48.4844 944.01 47.6186ZM413.084 45.4783C415.336 43.7807 417.853 40.138 417.853 38.5759C417.853 36.8827 415.735 37.6744 411.919 40.7953C410.64 41.8413 407.051 46.7371 407.051 47.4359C407.051 48.3312 410.998 47.0498 413.084 45.4783ZM1098.55 44.2716C1099.83 43.6695 1100.88 42.9488 1100.88 42.67C1100.88 41.6266 1095.96 40.5555 1091.35 40.5976C1086.17 40.6453 1079.15 42.7768 1081.33 43.6381C1087.25 45.9712 1094.37 46.233 1098.55 44.2716ZM780.612 42.3486C784.42 39.6451 787.58 35.4047 788.087 32.3158C788.379 30.5365 788.244 30.136 787.353 30.136C783.824 30.136 775.571 39.4863 775.571 43.485C775.571 45.7018 776.037 45.5964 780.612 42.3486ZM870.242 43.9282C870.242 41.825 867.911 38.6224 863.891 35.2032C856.957 29.3066 854.137 28.5086 856.61 33.1427C858.469 36.6278 862.511 40.7225 866.1 42.7567C869.571 44.7243 870.242 44.9139 870.242 43.9282ZM39.1665 42.0064C40.8445 41.6504 42.7011 40.8324 43.2914 40.1876C44.3169 39.0681 44.2559 38.9859 41.9247 38.3461C36.3321 36.8117 27.0835 38.2972 23.7566 41.2643C22.5253 42.3624 22.5335 42.385 24.3247 42.8138C26.5485 43.3468 35.0156 42.886 39.1665 42.0064ZM99.9328 40.9046C103.117 39.2722 106.113 36.4965 107.451 33.9413C108.466 32 108.462 31.9215 107.357 32.2467C106.721 32.4345 105.342 32.7829 104.293 33.0215C99.3203 34.1522 91.2682 39.7299 91.2682 42.0441C91.2682 42.9952 91.6615 43.0712 94.3733 42.6481C96.0805 42.3812 98.5826 41.5964 99.9328 40.9046ZM309.838 42.8151C309.838 41.6021 302.478 33.643 299.812 31.9724C294.751 28.8006 291.933 29.9709 294.552 34.1572C297.1 38.23 302.202 41.8432 306.661 42.7328C309.857 43.3694 309.838 43.3694 309.838 42.8151ZM454.699 41.5939C454.684 40.4098 450.784 34.5704 448.624 32.4966C445.605 29.5998 441.263 27.2869 439.85 27.823C438.846 28.2029 438.845 28.3623 439.829 30.2427C441.419 33.2802 447.12 38.6136 450.633 40.3508C454.157 42.093 454.707 42.2613 454.699 41.5939ZM206.019 40.1411C209.433 38.0573 213.176 33.3938 214.217 29.93C215.45 25.8278 215.422 25.5622 213.84 26.3985C209.739 28.5676 204.131 35.5335 203.34 39.4411C202.865 41.7873 203.187 41.8714 206.019 40.1411ZM266.204 40.6038C267.541 40.1989 268.644 39.5849 268.657 39.2395C268.688 38.4008 261.02 37.1288 255.641 37.0804C251.495 37.0434 247.571 38.2181 247.571 39.4963C247.571 40.9479 262.2 41.8174 266.204 40.6038ZM1272.73 39.0186C1274.82 38.2771 1276.93 37.2669 1277.43 36.774C1278.22 35.9962 1278.01 35.816 1275.86 35.4179C1274.5 35.1655 1271.61 35.2591 1269.45 35.6257C1265.45 36.3013 1258.46 39.3344 1258.46 40.391C1258.46 41.42 1268.77 40.4287 1272.73 39.0186ZM1311.83 39.9019C1311.83 38.7756 1299.95 28.5331 1297.64 27.6636C1296.27 27.1494 1295.95 27.2084 1295.95 27.975C1295.95 29.7561 1299.06 34.9929 1301.16 36.7433C1305.23 40.1386 1311.83 42.093 1311.83 39.9019ZM902.147 38.2513C905.683 36.8802 910.468 33.5451 912 31.3835C912.879 30.1435 912.819 30.1109 910.097 30.362C908.551 30.5045 906.028 31.1807 904.489 31.8644C901.3 33.282 895.208 37.5959 894.74 38.7687C894.243 40.0143 898.337 39.728 902.147 38.2513ZM1369.01 38.4548C1369.01 37.0396 1360.48 34.1905 1356.5 34.2778C1353.8 34.3368 1350.59 35.5259 1350.59 36.4683C1350.59 37.6794 1358.12 39.4561 1363.45 39.5039C1368.35 39.5478 1369.01 39.4216 1369.01 38.4548ZM820.206 37.6536C823.031 36.8588 823.17 36.3716 820.869 35.3156C817.569 33.8013 810.353 34.6294 806.799 36.931L805.222 37.9519L806.757 38.4177C808.707 39.0085 817.079 38.5332 820.206 37.6536ZM1229.43 32.4872C1231.64 29.7944 1234.31 25.0851 1234.31 23.8828C1234.31 22.381 1231.69 23.4213 1228.64 26.1367C1225.27 29.1283 1223.65 31.5599 1222.85 34.8447C1222.6 35.8806 1222.16 37.2694 1221.89 37.9305C1221.11 39.8102 1226.78 35.7162 1229.43 32.4872ZM141.463 36.3892C141.463 35.0852 138.737 30.3997 136.788 28.3542C134.372 25.8184 130.533 23.7792 127.682 23.5174C124.88 23.2599 124.897 24.6443 127.729 27.2837C135.559 34.5798 141.463 38.4943 141.463 36.3892ZM395.615 35.7997C396.461 35.2704 396.461 35.1084 395.615 34.3456C393.496 32.437 386.761 30.0757 383.859 30.2245C380.458 30.3984 380.469 31.0595 383.911 33.3957C387.726 35.9849 393.44 37.1583 395.615 35.7997ZM997.953 35.5291C997.953 34.2715 993.47 28.8263 990.561 26.5523C988.054 24.5916 983.377 22.3565 982.856 22.8707C982.294 23.4257 986.475 29.856 988.861 32.1042C992.839 35.8536 997.953 37.7798 997.953 35.5291ZM714.575 34.5095C715.399 33.9639 715.36 33.7529 714.286 32.9436C710.723 30.2578 696.149 29.0203 696.149 31.4036C696.149 31.7426 696.588 32.0195 697.124 32.0195C697.661 32.0195 698.812 32.4803 699.681 33.0435C700.552 33.6073 702.185 34.2847 703.312 34.549C706.34 35.2597 713.477 35.2346 714.575 34.5095ZM653.431 32.1764C658.561 28.3498 661.838 23.641 661.838 20.0944C661.838 18.8783 661.733 18.8563 660.038 19.7227C654.116 22.7483 647.589 30.6621 648.685 33.4855C649.268 34.9866 649.894 34.814 653.431 32.1764ZM740.158 33.5106C741.89 33.0077 735.964 30.141 731.75 29.4435C727.235 28.6964 721.525 29.3054 721.983 30.4857C722.164 30.9503 723.544 31.7953 725.049 32.3635C730.01 34.2357 736.076 34.6959 740.158 33.5106ZM1054.45 34.134C1056.4 33.7479 1056.42 33.7039 1055.32 32.4979C1052.14 29.0241 1040.52 26.1769 1040.52 28.8715C1040.52 29.6852 1044.48 31.924 1048.26 33.2519C1052.32 34.6758 1051.96 34.625 1054.45 34.134ZM1143.44 33.6066C1145.73 30.8806 1134.89 21.3463 1129.5 21.3463C1128.44 21.3463 1127.57 21.514 1127.57 21.718C1127.57 23.2901 1136.08 31.6987 1139.23 33.2394C1142.38 34.7788 1142.45 34.7857 1143.44 33.6066ZM533.255 32.0377C535.332 31.0112 538.264 29.1302 539.769 27.8576C542.036 25.9402 542.334 25.4473 541.502 24.9877C538.857 23.5249 527.163 29.0825 525.179 32.7446C524.14 34.6626 528.758 34.2577 533.255 32.0377ZM581.78 33.4873C581.78 32.4031 577.594 26.816 575.036 24.4861C572.484 22.1612 567.231 19.1903 566.664 19.751C566.545 19.8684 567.11 21.3231 567.919 22.9843C568.971 25.1416 570.801 27.1312 574.332 29.9533C578.612 33.3743 581.78 34.8774 581.78 33.4873ZM1337.01 29.5634C1341.17 27.6378 1346.14 23.6404 1346.14 22.2152C1346.14 20.9545 1342.94 21.1228 1339.04 22.5875C1335.72 23.8344 1329.36 29.2168 1330 30.2414C1330.18 30.529 1330.03 30.7638 1329.66 30.7638C1329.29 30.7638 1328.99 31.0815 1328.99 31.4701C1328.99 32.501 1332.41 31.6867 1337.01 29.5634ZM85.2543 29.122C86.1159 28.5645 86.8205 27.9028 86.8205 27.6516C86.8205 26.5711 78.6629 24.7994 73.6891 24.7994C65.8613 24.7994 65.7107 25.9075 73.1821 28.5337C78.342 30.3469 83.0108 30.5748 85.2543 29.122ZM627.955 28.3818C629.538 27.7929 630.846 27.0282 630.862 26.6829C630.907 25.6652 626.305 25.2251 621.657 25.8014C614.982 26.6295 613.021 28.1018 616.885 29.3838C619.432 30.2283 624.135 29.8032 627.955 28.3818ZM168.099 28.5771C172.901 27.5788 179.172 24.7197 178.593 23.793C177.631 22.256 167.868 23.6549 162.477 26.1028C159.146 27.6158 159.009 27.764 160.169 28.6097C161.713 29.7342 162.546 29.731 168.099 28.5771ZM1187.39 26.2679C1191.34 24.5884 1190.83 24.2808 1182.35 23.2486C1175.99 22.4758 1174.39 22.5957 1168.92 24.2532C1167.15 24.7906 1169.25 25.7091 1174.28 26.6076C1181.41 27.8789 1183.75 27.8186 1187.39 26.2679ZM1408.21 25.3695C1410.02 24.8766 1411.93 24.0516 1412.45 23.5374C1412.97 23.0226 1413.76 22.602 1414.21 22.602C1414.76 22.602 1414.81 22.3979 1414.37 21.9591C1412.69 20.3041 1398.46 21.5058 1394.21 23.6618C1391.94 24.8157 1392.3 25.1585 1396.82 26.1166C1400.72 26.9416 1402.98 26.7934 1408.21 25.3695ZM1023.46 24.6424C1027.78 21.0807 1030.46 17.4707 1029.5 16.5183C1029.31 16.3324 1027.87 16.7914 1026.31 17.5391C1023.42 18.921 1020.69 21.8436 1019.57 24.7567C1019.04 26.1367 1019.13 26.369 1020.16 26.369C1020.82 26.369 1022.31 25.5923 1023.46 24.6424ZM354.634 22.1317L357.105 20.8792L353.328 19.7711C351.25 19.1621 347.824 18.6799 345.715 18.7C341.983 18.7358 336.524 20.3261 336.524 21.3777C336.524 23.9914 349.869 24.547 354.634 22.1317ZM1384.85 20.3788C1389.05 16.9113 1392.46 12.5943 1392.92 10.1747C1393.13 9.03514 1393.15 7.93894 1392.94 7.73804C1392.36 7.16796 1386.42 11.1704 1384.3 13.5543C1382.53 15.542 1379.18 21.8781 1379.18 23.2279C1379.18 24.2356 1381.75 22.946 1384.85 20.3788ZM190.387 22.0652C190.387 21.1084 183.694 15.2425 181.124 13.9473C176.265 11.4975 170.69 10.7491 170.69 12.546C170.69 13.2592 177.953 18.6196 181.158 20.2715C182.564 20.9972 185.002 21.7801 186.575 22.0124C188.148 22.2441 189.648 22.472 189.911 22.5178C190.173 22.5643 190.387 22.3603 190.387 22.0652ZM959.265 16.1868C961.07 12.6533 961.668 9.41749 960.516 9.41749C960.194 9.41749 958.902 10.6035 957.647 12.0525C955.116 14.9738 953.797 18.7647 954.436 21.2735L954.855 22.9159L956.142 21.3482C956.85 20.4862 958.256 18.1632 959.265 16.1868ZM247.571 21.5623C247.571 20.9106 244.534 17.148 242.302 15.0366C239.945 12.8059 235.458 10.395 232.481 9.75904C230.658 9.36915 230.416 9.474 230.416 10.6556C230.416 13.1462 237.515 18.3289 244.712 21.0927C247.083 22.0024 247.571 22.0828 247.571 21.5623ZM403.239 21.2308C403.239 19.8364 397.09 14.6272 393.419 12.9114C389.22 10.9481 386.205 11.0605 387.33 13.1387C388.328 14.9813 392.521 18.0025 396.962 20.0781C401.257 22.0859 403.239 22.45 403.239 21.2308ZM502.929 19.8012C510.513 17.8072 507.503 16.0474 497.275 16.4963C490.006 16.8152 488.284 17.2302 488.792 18.5386C489.625 20.6833 497.053 21.3469 502.929 19.8012ZM837.891 17.0268C842.102 15.6487 844.7 14.383 846.31 12.9258C849.458 10.0767 849.335 9.28878 845.808 9.70692C840.773 10.304 835.814 12.5234 832.914 15.4786C830.275 18.1663 829.419 19.886 831.008 19.3084C831.445 19.1495 834.542 18.1224 837.891 17.0268ZM1068.02 16.3218C1070.29 15.6299 1072.48 14.6586 1072.9 14.1627C1073.52 13.4168 1073.2 13.1274 1071.02 12.4807C1068.91 11.8566 1067.59 11.8572 1064.46 12.4832C1060.36 13.3044 1055.46 15.9388 1056.11 16.9753C1056.76 18.0163 1063.72 17.6346 1068.02 16.3218ZM696.784 15.8189C696.784 14.6536 692.969 9.54181 690.288 7.11649C687.514 4.60579 684.159 2.51133 682.912 2.51133C681.724 2.51133 684.223 7.91132 686.502 10.272C690.391 14.3014 696.784 17.7495 696.784 15.8189ZM1289.73 14.0986C1294.5 13.1613 1300.22 10.25 1299.22 9.2643C1298.88 8.92715 1296.36 8.75575 1293.62 8.88258C1288.04 9.14187 1282.1 11.4385 1282.5 13.1845C1282.61 13.7024 1282.5 13.9165 1282.24 13.661C1281.71 13.1437 1280.06 14.2763 1280.06 15.1521C1280.06 15.7504 1282.9 15.4415 1289.73 14.0986ZM1118.18 10.5815C1122.2 7.35192 1125.02 4.47959 1125.03 3.61004C1125.04 1.77174 1117.09 4.8004 1114.39 7.66458C1112.26 9.92163 1110.38 14.0289 1111.23 14.5513C1112.17 15.122 1113.43 14.4012 1118.18 10.5815ZM1427.79 10.385C1431.55 8.56866 1434.17 6.08559 1433.49 4.9919C1432.84 3.961 1428.08 4.57815 1423.44 6.29527C1419.45 7.77068 1415.15 11.0254 1415.81 12.0745C1416.5 13.187 1424.26 12.0933 1427.79 10.385Z" fill="black"/>
</svg>
