<svg width="769" height="35" viewBox="0 0 769 35" fill="none" xmlns="http://www.w3.org/2000/svg">
<path fill-rule="evenodd" clip-rule="evenodd" d="M165.14 34.6361C165.175 33.2534 167.321 30.772 170.755 28.142C173.546 26.0047 175.351 24.3776 174.932 24.3776C174.844 24.3776 173.941 24.6478 172.925 24.9784C171.43 25.4649 169.912 25.5738 164.958 25.5511C158.011 25.5192 155.275 24.9915 150.409 22.7453C147.941 21.6064 147.634 21.5408 146.649 21.9446C143.21 23.3537 141.446 23.7451 139.286 23.5783C134.598 23.216 129.921 22.5805 129.596 22.2615C129.178 21.8519 130.016 21.1597 132.146 20.1527C134.012 19.271 138.642 19.1405 141.93 19.877C143.103 20.1396 144.152 20.265 144.261 20.1551C144.504 19.91 135.086 15.1165 131.708 13.7658C126.32 11.6116 119.672 10.5895 118.33 11.7091C118.014 11.9728 117.036 13.7428 116.157 15.6422C115.278 17.5412 114.041 19.6933 113.407 20.4239C112.193 21.8234 108.56 24.3776 107.782 24.3776C106.57 24.3776 107.867 20.1815 109.971 17.3002C110.538 16.5232 112.087 15.0729 113.413 14.0768C115.987 12.1448 116.396 11.5333 114.89 11.8695C110.894 12.7611 108.911 13.9048 102.394 19.0746C99.7762 21.1515 97.0986 23.1814 96.444 23.5855C95.0513 24.4452 91.5876 25.4076 89.8871 25.4076C89.016 25.4076 88.1527 25.8134 86.6549 26.9266C81.761 30.5647 80.4006 31.0955 75.2636 31.3712C72.1827 31.5367 71.5622 31.4852 71.3969 31.0502C71.1069 30.2866 72.0777 29.3863 74.6257 28.0565C77.1466 26.7405 78.843 26.2632 82.2636 25.9079C83.5346 25.7757 84.5196 25.6126 84.453 25.5453C84.3863 25.478 83.0065 25.0351 81.3867 24.5609C79.7665 24.0871 75.8712 22.5585 72.7301 21.1645C66.4486 18.3766 62.4048 16.824 61.4245 16.824C61.0733 16.824 59.5952 18.0703 58.1298 19.6023C55.1869 22.6784 53.3746 23.788 50.3804 24.347C46.2227 25.123 45.7953 24.5516 48.3709 21.659C50.2685 19.5278 52.0883 18.4099 55.7354 17.1347C58.4473 16.1864 58.4762 16.164 57.4926 15.7864C56.9421 15.5752 54.9618 15.3167 53.0917 15.2116C49.8048 15.0272 49.6235 15.0554 47.6514 16.06C45.102 17.3582 43.171 17.6882 41.0836 17.1824C39.5882 16.8202 39.2509 16.8734 36.625 17.8859C35.0626 18.4885 33.5155 19.2528 33.1864 19.5851C32.8576 19.9172 32.3299 21.088 32.0133 22.187C31.3452 24.5077 30.3992 26.4792 29.1745 28.1036C28.082 29.5525 23.454 32.7356 22.8056 32.4843C22.0443 32.189 22.2266 30.1952 23.1943 28.2347C23.7396 27.1291 25.0817 25.5003 26.7644 23.902C28.2473 22.4936 29.4605 21.2511 29.4605 21.1408C29.4605 21.031 26.4384 22.4596 22.7451 24.3161C19.0518 26.1726 15.4942 27.9061 14.8397 28.1691C14.1851 28.4318 12.738 29.3866 11.6241 30.2907C9.12124 32.3226 6.62687 33.3028 3.17671 33.6108C-0.209196 33.9133 -0.687262 33.5219 0.796238 31.6627C3.15868 28.7017 6.16478 27.4677 11.0141 27.4677C14.1464 27.4677 14.3558 27.4176 17.4884 25.9188C19.2691 25.0674 20.6618 24.3051 20.5829 24.2255C20.504 24.1458 19.4177 24.2086 18.1688 24.3652C15.6227 24.6842 10.9403 24.2698 10.2144 23.6617C9.28547 22.883 9.7734 22.3645 12.3745 21.3671C17.7431 19.3084 19.9297 19.169 24.2221 20.6114L26.3547 21.3283L30.2027 19.6119C32.319 18.6681 34.8157 17.5955 35.7508 17.2284C36.6858 16.8614 37.4329 16.4274 37.4108 16.2633C37.3887 16.0995 36.5862 15.7266 35.6274 15.4348C33.3074 14.7289 32.8991 14.2914 33.9293 13.6157C35.9548 12.2877 41.136 12.1105 44.2135 13.2641C45.0204 13.5663 47.696 13.9148 50.5416 14.0882C57.2824 14.4988 62.1229 15.626 68.2287 18.2066C72.06 19.8262 72.3197 19.7963 70.2626 17.9749C66.2902 14.4573 64.5027 11.9079 65.6874 11.4489C67.0382 10.9253 71.3895 12.6039 73.4867 14.4576C74.3721 15.2401 75.2776 16.6434 76.2463 18.733C77.0392 20.4442 77.9083 22.0284 78.1776 22.2543C79.0501 22.9853 82.4877 24.0064 85.3897 24.3965C88.7777 24.8517 92.7164 24.3762 95.084 23.2256C96.5372 22.5197 107.325 14.241 107.325 13.8317C107.325 13.7249 106.521 13.7119 105.54 13.8025C104.558 13.8932 102.607 13.8616 101.204 13.7325C98.8068 13.5117 98.4814 13.569 95.764 14.6901C91.5114 16.4446 89.8388 16.8154 86.1585 16.8198C82.5652 16.8243 82.1463 16.5592 83.6084 15.2051C85.5278 13.4269 89.6515 12.0188 93.5083 11.8245C94.6555 11.7665 95.6684 11.7091 95.7596 11.6964C95.8504 11.6841 95.1292 11.1327 94.1571 10.4714C91.7742 8.85112 89.6437 6.62692 89.6437 5.75997C89.6437 5.09079 89.78 5.06229 92.0422 5.25353C95.8021 5.57182 98.5936 7.04615 101.705 10.3563L104.242 13.0557L106.208 12.849C107.29 12.735 109.322 12.3347 110.725 11.9594C116.978 10.2853 121.078 9.95292 125.002 10.802C126.216 11.0647 127.266 11.2223 127.336 11.1519C127.405 11.0815 126.959 10.7151 126.344 10.3375C124.803 9.39086 121.998 6.59328 121.38 5.38435C120.589 3.8417 121.159 3.58007 123.831 4.25784C128.34 5.40152 130.373 6.94933 133.743 11.8011L135.619 14.504L143.488 18.3845C147.816 20.519 152.352 22.6008 153.567 23.0111C156.405 23.9683 160.331 24.7254 162.352 24.7048L163.938 24.689L162.238 23.7977C158.426 21.7994 155.794 18.6773 156.009 16.4113C156.114 15.3132 156.159 15.2827 157.477 15.4015C160.025 15.6308 162.257 17.3029 165.922 21.7283C168.448 24.7786 168.73 24.9046 171.572 24.2564C174.722 23.5377 176.78 22.439 181.27 19.078C183.332 17.5347 185.746 15.7706 186.634 15.158C187.522 14.5455 188.249 14.0095 188.249 13.967C188.249 13.9247 186.833 13.8849 185.104 13.8791C182.635 13.8705 181.611 13.7098 180.339 13.1316C177.547 11.8619 177.815 10.7811 181.161 9.82176C183.721 9.08768 186.387 9.12614 189.558 9.94399C191.767 10.5136 193.165 10.606 198.625 10.5448C203.825 10.4861 205.631 10.5943 207.914 11.1014C209.472 11.4475 210.804 11.6727 210.874 11.602C210.944 11.5313 210.043 10.7711 208.871 9.91274C205.993 7.80563 204.605 4.79895 206.514 4.81062C207.633 4.81749 210.399 5.81491 212.226 6.87001C214.214 8.01885 215.624 9.48837 217.344 12.2025C218.298 13.7088 218.773 14.0988 220.446 14.7498C224.252 16.2317 228.924 18.1898 233.811 20.3518C236.523 21.5515 239.046 22.6481 239.417 22.7893C239.789 22.93 238.996 21.97 237.655 20.6557C235.227 18.2753 233.256 15.1392 233.607 14.2142C233.89 13.4708 235.149 13.6411 237.382 14.7241C239.91 15.9508 241.869 17.9882 243.528 21.1158C245.416 24.6753 245.473 24.7209 247.992 24.7209C250.843 24.7209 253.544 23.5566 257.692 20.5407C259.425 19.2803 262.939 16.814 265.502 15.0598C268.065 13.3057 270.114 11.8228 270.057 11.7648C269.999 11.7064 268.876 11.8451 267.561 12.0731C265.676 12.3993 264.77 12.3965 263.282 12.0604C261.161 11.5814 259.653 10.5654 259.653 9.61712C259.653 8.8003 262.061 8.21044 266.283 7.99275C268.887 7.85885 269.825 7.97352 272.573 8.76219C274.982 9.453 277.015 9.75515 280.564 9.94948C287.648 10.3378 290.695 11.2226 301.797 16.1184C305.246 17.6394 308.222 18.884 308.41 18.884C308.598 18.884 307.843 18.073 306.732 17.0815C303.952 14.6004 303.208 13.7651 302.46 12.2884C301.006 9.41764 301.985 8.89678 305.501 10.6705C308.139 12.002 310.571 14.6883 312.469 18.369C314.063 21.4591 314.443 21.7348 318.215 22.529C323.457 23.6325 330.012 21.6868 336.327 17.1522L337.347 16.4198L336.327 16.6509C335.766 16.7779 334.14 16.9616 332.713 17.0591C330.568 17.2054 329.842 17.1127 328.521 16.5225C326.383 15.5677 326.529 14.8092 329.018 13.9388C331.325 13.1326 336.597 12.8367 339.377 13.3579C341.376 13.7325 341.435 13.7208 343.287 12.5744C346.358 10.6739 349.792 9.04133 352.492 8.19842C355.979 7.11036 363.355 7.09627 366.844 8.17129C369.34 8.94039 369.797 8.70691 367.996 7.58314C366.169 6.44323 363.376 1.68652 363.831 0.489956C364.103 -0.226952 364.71 -0.121201 367.026 1.04755C369.577 2.33509 371.996 4.92564 373.976 8.49163C375.324 10.9194 375.639 11.2411 378.319 12.9259C383.267 16.0356 382.95 15.9151 385.059 15.4873C387.427 15.007 391.063 14.9998 393.178 15.4705C395.433 15.9725 397.848 17.2171 397.981 17.9464C398.235 19.3328 393.23 20.0864 389.711 19.192C387.023 18.5084 387.288 19.0794 390.565 21.0265C396.724 24.6869 403.426 26.8122 408.809 26.8122C411.866 26.8122 412.172 26.7508 412.725 26.0239C413.056 25.5906 413.329 25.077 413.334 24.883C413.338 24.6886 413.852 23.4526 414.478 22.1362C415.754 19.4485 418.578 16.5496 421.295 15.1381C423.524 13.9807 423.821 14.3986 422.915 17.4121C422.01 20.4174 420.363 22.5541 417.495 24.4411C414.805 26.2103 415.326 26.5479 418.673 25.2043C421.709 23.9855 423.8 22.791 429.152 19.2191C434.875 15.3994 437.221 14.0089 439.544 13.0602C440.99 12.4693 441.645 11.9529 442.332 10.8648C443.559 8.91807 445.526 6.94109 446.983 6.19019C448.312 5.50556 454.397 3.43346 455.078 3.43346C455.33 3.43346 455.503 3.88153 455.503 4.52976C455.503 5.40426 455.136 5.9859 453.688 7.40151C452.201 8.85661 451.357 9.35378 449.013 10.1572L446.153 11.1371L448.703 11.383C452.198 11.7194 455.83 12.9445 463.824 16.4834C475.804 21.7867 475.706 21.7517 476.829 21.1656C477.365 20.8857 478.562 20.0198 479.489 19.2415C481.732 17.3575 484.772 15.8749 487.405 15.3805C489.188 15.0458 489.605 15.0578 489.846 15.4526C490.738 16.9094 486.352 20.6784 482.025 22.175C480.797 22.5994 480.041 23.0162 480.325 23.1127C482.258 23.7712 484.824 24.1314 488.655 24.2821C492.567 24.4363 493.323 24.371 495.228 23.7173C497.694 22.8706 500.388 21.2799 505.537 17.6301C509.297 14.9647 509.553 14.6169 509.561 12.1654C509.571 9.3191 510.496 7.18966 512.645 5.06435C513.743 3.97869 514.877 3.09011 515.164 3.09011C516.347 3.09011 515.338 7.6652 513.511 10.5874C513.025 11.3661 512.626 12.0782 512.626 12.1696C512.626 12.2609 513.86 11.7332 515.369 10.9967C520.968 8.26262 523.993 8.74365 536.73 14.3931C539.792 15.7513 542.479 16.7927 542.7 16.7069C542.921 16.621 543.654 15.3939 544.328 13.9797C545.77 10.9538 547.429 9.15841 549.824 8.03258C551.825 7.09181 552.359 7.02486 552.61 7.68443C553.119 9.02313 550.357 12.5586 546.063 16.0669L545.098 16.8549L546.628 16.6258C549.993 16.1228 557.061 12.7416 563.119 8.73575C566.647 6.40306 567.65 6.04152 570.927 5.91963C577.443 5.67791 577.353 8.45249 570.79 10.1503C569.154 10.5733 568.071 10.6389 566.223 10.426C564.89 10.2726 563.493 10.1867 563.119 10.2348C562.094 10.3673 556.142 13.7874 556.348 14.1259C556.448 14.288 557.334 14.4205 558.317 14.4205C560.995 14.4205 563.31 15.2525 565.127 16.8672C567.875 19.3094 566.735 20.4888 562.501 19.5848C561.532 19.3778 559.171 18.4226 557.255 17.4619C553.439 15.5495 553.65 15.5659 549.348 16.8404C545.092 18.1019 545.157 17.9718 548.186 19.1515C556.001 22.1946 563.171 23.821 568.729 23.8114C574.808 23.8011 577.553 22.5438 587.26 15.3259C589.317 13.7963 591.154 12.3103 591.341 12.0233C591.528 11.7366 592.251 10.1397 592.949 8.47481C594.495 4.78487 595.217 3.72633 597.064 2.44256C598.275 1.60205 602.46 0 603.447 0C603.614 0 603.751 0.360855 603.751 0.802055C603.751 2.07003 601.553 4.59122 598.36 6.98572C595.311 9.2724 593.86 10.6437 594.491 10.6437C594.691 10.6437 595.824 10.3835 597.008 10.0655C599.824 9.30914 607.586 9.29403 611.431 10.037C612.943 10.3292 615.807 11.2226 617.795 12.0223L621.409 13.4756L624.837 12.3419L628.265 11.2082L632.924 11.8015C639.668 12.6605 639.851 12.6969 639.708 13.1526C639.637 13.3778 638.747 14.0257 637.731 14.5922C636.024 15.5436 635.624 15.6222 632.483 15.6222C630.613 15.6222 628.088 15.5055 626.872 15.3627L624.662 15.1031L631.023 18.3148C637.514 21.5913 640.088 22.5846 644.49 23.511C647.695 24.1853 649.645 24.174 650.632 23.4763C651.065 23.1693 651.874 21.8945 652.429 20.6437C654.364 16.2763 654.927 15.3568 656.595 13.843C658.616 12.0082 661.062 10.5085 661.544 10.8092C662.149 11.1866 661.93 12.4559 660.867 14.7227C659.476 17.6923 658.233 19.192 655.413 21.3036C654.1 22.2862 653.098 23.1632 653.186 23.2524C653.494 23.5632 656.746 22.6749 658.672 21.7537C659.74 21.2439 663.234 18.7683 666.439 16.2533C669.643 13.738 672.917 11.3678 673.715 10.986C674.513 10.6042 676.349 10.1311 677.795 9.93437C680.196 9.60751 680.684 9.39704 683.397 7.51722C687.973 4.34676 688.905 4.01646 693.771 3.84273C697.246 3.71844 697.936 3.77612 697.936 4.19054C697.936 5.68513 692.866 8.33541 688.922 8.90193C684.309 9.56459 684.212 9.62639 686.716 10.3045C689.465 11.0492 693.525 12.5953 697.086 14.2526C700.897 16.0267 704.618 17.5168 706.557 18.0466L708.208 18.4974L710.797 15.7424C712.221 14.2272 714.009 12.6197 714.768 12.1699C716.042 11.4159 720.214 10.3004 721.76 10.3004C723.875 10.3004 720.377 14.654 716.731 16.5613C715.464 17.224 714.013 17.8643 713.507 17.9845C713.001 18.1046 712.16 18.3721 711.637 18.5788C710.703 18.9486 710.7 18.9596 711.441 19.2476C711.856 19.4087 713.787 19.7273 715.732 19.9556L719.27 20.3707L721.099 19.1982C722.899 18.0442 722.99 18.0253 726.838 18.0006C730.272 17.9786 731.038 17.8602 733.128 17.0272C734.437 16.5053 735.685 15.9302 735.902 15.7486C736.119 15.5673 736.704 14.1514 737.203 12.6022C737.702 11.053 738.665 8.95652 739.343 7.94331C740.742 5.85302 744.809 2.74677 746.148 2.74677C746.95 2.74677 746.981 2.82127 746.784 4.27157C746.49 6.43739 744.87 8.88339 741.857 11.7091C738.655 14.7113 739.103 14.62 746.398 10.7852C749.395 9.20957 752.514 7.68306 753.328 7.39327C754.141 7.10315 755.82 6.11259 757.058 5.19174C760.849 2.37252 763.533 1.37338 767.317 1.37338C768.773 1.37338 769 1.46609 769 2.05904C769 3.03415 766.942 5.20821 765.023 6.2592C762.952 7.39327 759.689 7.99378 757.164 7.70537C755.327 7.49559 754.992 7.58039 751.9 9.03893C750.085 9.89592 748.599 10.6509 748.599 10.7172C748.599 10.7835 750.55 10.8326 752.934 10.8264C759.181 10.8106 761.247 11.8544 757.864 13.318C753.692 15.1237 751.931 15.5333 749.109 15.3534C747.513 15.2521 745.645 14.881 744.589 14.4562C742.875 13.7668 742.736 13.7596 741.699 14.3065C741.099 14.6228 738.62 15.7012 736.191 16.7034C733.761 17.7057 731.733 18.6478 731.683 18.7968C731.634 18.9462 732.475 19.3743 733.551 19.7486C736.016 20.6056 736.089 21.259 733.808 22.0449C731.417 22.8689 727.74 22.8274 725.083 21.9456C723.56 21.4406 721.43 21.1443 717.827 20.9369C714.285 20.733 711.707 20.3786 709.389 19.7774C705.805 18.848 700.956 17.1433 698.846 16.0713C696.605 14.9328 696.794 15.5536 699.337 17.6871C702.844 20.6286 704.505 23.1583 703.388 23.8553C702.98 24.1101 699.548 23.1323 697.897 22.2904C695.611 21.1254 694.479 19.8416 692.964 16.6997C692.148 15.0066 691.225 13.3359 690.912 12.9871C690.014 11.9852 686.18 10.9521 682.571 10.7399C678.76 10.5157 675.659 11.009 673.579 12.1696C672.04 13.029 661.894 20.9153 661.895 21.2511C661.896 21.3654 664.076 21.4557 666.741 21.4516C671.336 21.444 671.675 21.3963 673.34 20.517C676.118 19.0492 679.679 18.1973 683.034 18.1973C684.663 18.1973 686.081 18.3378 686.187 18.5098C686.558 19.1172 685.992 19.7953 684.239 20.8432C681.817 22.2911 679.456 23.0014 676.109 23.2895L673.285 23.5326L674.705 24.4586C677.997 26.6049 680.177 29.2641 679.182 29.9202C678.254 30.5324 673.185 29.3139 670.809 27.9075C670.003 27.4309 668.394 25.9618 667.234 24.643L665.125 22.2454L662.574 22.4397C661.172 22.5465 659.259 22.8771 658.324 23.1745C653.797 24.6145 647.477 25.1257 643.867 24.3439C642.909 24.1369 642.061 24.0335 641.98 24.1149C641.9 24.1959 642.609 24.7697 643.557 25.3898C645.474 26.6437 647.954 29.5765 647.954 30.5887C647.954 31.0412 647.716 31.2431 647.189 31.2404C646.231 31.2352 643.412 30.4582 641.807 29.7568C640.232 29.068 637.318 26.415 636.355 24.7916C634.268 21.2782 633.527 20.6873 627.252 17.545C619.171 13.4976 615.29 11.8609 612.252 11.2188C608.898 10.5098 605.791 10.1802 605.792 10.5332C605.793 10.6884 606.627 11.2556 607.648 11.7939C610.966 13.5447 613.852 17.5484 613.142 19.4162C612.961 19.8935 612.658 19.9577 611.481 19.7675C608.881 19.3479 606.135 17.2346 603.338 13.5011C601.706 11.3222 600.725 10.6437 599.209 10.6437C597.258 10.6437 593.694 11.9553 591.437 13.5038C589.319 14.9572 581.36 20.7961 580.902 21.2322C580.771 21.3572 581.925 21.4059 583.467 21.341C585.008 21.2761 586.931 21.4025 587.739 21.6222C589.383 22.0693 590.92 23.3997 590.641 24.1345C590.109 25.5326 583.774 26.1585 579.743 25.2109C577.614 24.7103 575.584 24.5746 569.919 24.5554C564.315 24.5362 562.274 24.4023 560.434 23.9326C559.144 23.6033 558.032 23.3908 557.964 23.4605C557.895 23.5298 558.669 24.1438 559.684 24.8243C561.763 26.2176 563.23 27.9645 563.367 29.2074C563.454 29.9975 563.369 30.0397 561.803 29.9837C558.473 29.8646 554.287 26.9702 551.826 23.0842C551.113 21.9601 550.251 21.0766 549.583 20.7882C548.987 20.5304 546.662 19.5851 544.418 18.688C542.174 17.7905 539.42 16.6307 538.298 16.1101C533.437 13.8557 529.901 12.3605 529.429 12.3605C529.15 12.3605 529.731 13.0214 530.72 13.8293C532.916 15.6236 535.408 19.2397 535.408 20.632C535.408 21.9508 534.888 21.922 531.819 20.4311C528.874 19.0011 527.314 17.3428 525.226 13.4259C523.911 10.9596 523.623 10.6324 522.587 10.436C519.517 9.85472 515.494 11.4413 510.514 15.1972C508.964 16.3666 505.727 18.6698 503.32 20.3158L498.944 23.3084L501.995 23.1086C503.674 22.9987 505.6 23.0138 506.276 23.1419C507.619 23.3963 509.566 24.8476 509.566 25.5937C509.566 26.3322 507.343 26.8174 503.106 27.0035C499.775 27.1497 498.818 27.0653 496.645 26.4328C495.042 25.9662 492.391 25.581 489.505 25.3949C481.891 24.9046 479.059 24.1012 467.707 19.2112C463.751 17.5072 460.463 16.1651 460.4 16.2283C460.337 16.2914 461.422 17.3002 462.809 18.4693C465.284 20.5544 466.791 22.5894 467.247 24.4603C467.613 25.9645 466.673 25.9995 463.843 24.5874C460.77 23.0536 458.687 20.8301 456.83 17.1007C455.341 14.1095 454.621 13.4949 451.835 12.8326C448.279 11.9876 443.645 12.3776 440.148 13.8166C438.044 14.6825 432.042 18.2114 432.042 18.5829C432.042 18.7144 432.845 18.6059 433.827 18.3419C435.963 17.7678 437.87 17.728 439.63 18.2217C440.893 18.576 442.243 19.6068 442.243 20.2179C442.243 20.9063 436 22.368 434.019 22.1431C428.745 21.5443 427.317 21.5584 426.368 22.2179C419.219 27.1851 410.855 28.9348 403.075 27.0903C401.403 26.6938 399.96 26.4445 399.869 26.5362C399.779 26.6279 400.21 27.0203 400.827 27.4086C401.445 27.797 402.242 28.462 402.598 28.8867C403.657 30.1506 405.181 33.3097 405.181 34.2426C405.181 35.0505 405.094 35.0968 403.937 34.9073C402.297 34.6385 399.444 32.6955 397.817 30.7387C397.098 29.8745 395.888 28.0177 395.127 26.6121C393.779 24.1207 393.653 24.0006 390.081 21.8138C386.116 19.386 385.858 19.3273 382.044 19.9879C380.011 20.3398 379.228 20.3192 377.022 19.8564C373.975 19.2174 371.009 17.8904 371.009 17.167C371.009 15.7417 375.449 15.0719 379.134 15.9409C380.424 16.2451 381.55 16.4226 381.636 16.3354C381.86 16.1098 378.601 14.0552 375.612 12.5369C374.216 11.8283 371.232 10.6355 368.981 9.88699C365.535 8.7409 364.286 8.49541 361.073 8.33266C358.387 8.19636 357.115 8.25919 356.775 8.54485C356.508 8.76768 355.777 10.207 355.149 11.7431C353.813 15.0118 351.867 17.3771 348.94 19.2892C346.495 20.8861 345.674 20.9788 345.686 19.6566C345.697 18.3058 347.099 15.0468 348.358 13.4403C348.951 12.6853 350.44 11.4266 351.668 10.6434C352.896 9.86021 353.82 9.13781 353.721 9.03824C353.432 8.7464 350.135 9.94811 347.377 11.35C345.975 12.0631 342.226 14.3742 339.047 16.4851C335.868 18.5963 331.936 20.9654 330.308 21.7496C328.414 22.6629 327.222 23.4588 326.994 23.9618C326.191 25.7383 323.402 28.2656 321.026 29.3702C318.435 30.575 313.881 31.8697 313.519 31.5044C313.077 31.0574 313.752 29.4886 314.976 28.1207C316.367 26.5661 317.727 25.7805 320.601 24.871C321.676 24.5307 322.556 24.1479 322.556 24.0205C322.556 23.8931 321.37 23.7067 319.921 23.6061C316.925 23.3983 313.927 22.4596 308.089 19.9017C296.206 14.6952 293.882 13.7338 293.181 13.7338C292.759 13.7338 291.277 14.607 289.889 15.6737C286.421 18.3388 283.554 19.6572 281.125 19.7046C279.506 19.7366 279.204 19.6476 279.204 19.1402C279.204 17.4729 285.788 12.7038 288.09 12.7038C289.336 12.7038 289.039 12.083 287.607 11.6937C285.419 11.0987 279.311 10.551 277.141 10.7553C273.468 11.1011 269.456 13.1237 262.887 17.9422C259.823 20.1894 259.653 20.4205 259.653 22.3209C259.653 24.3106 258.874 27.0073 257.871 28.496C256.792 30.096 253.93 32.4726 253.556 32.0788C253.015 31.5078 253.811 28.0562 255.049 25.6064C255.709 24.2996 256.196 23.1765 256.132 23.1106C256.066 23.045 254.881 23.5735 253.498 24.2852C251.104 25.5164 250.826 25.5786 247.752 25.568C245.976 25.5618 243.91 25.3544 243.162 25.1068C240.28 24.1537 236.509 22.6275 231.66 20.4518C228.887 19.2078 226.457 18.2904 226.261 18.413C226.064 18.5355 225.379 19.7819 224.738 21.1824C224.097 22.5829 222.989 24.301 222.275 25.0004C220.829 26.417 218.312 27.811 217.198 27.811C214.822 27.811 218.452 22.3165 222.702 19.4815C223.417 19.0042 223.873 18.5324 223.714 18.4332C223.196 18.1105 219.098 19.2494 216.651 20.3965C215.336 21.0128 212.763 22.3923 210.933 23.4622C209.103 24.5321 207.517 25.4076 207.409 25.4076C207.3 25.4076 206.489 25.9432 205.606 26.5976C203.38 28.2471 201.045 29.1902 198.63 29.4151C194.914 29.7609 191.868 28.2368 193.768 26.9822C196.385 25.2541 197.829 24.8933 202.199 24.8727L206.457 24.8528L209.594 23.1604C211.319 22.2299 212.73 21.3784 212.73 21.2686C212.73 21.159 211.413 20.8912 209.802 20.6736C207.836 20.4078 206.396 19.9948 205.418 19.4159C203.793 18.4549 202.092 16.6004 202.291 16.0082C202.373 15.7661 203.424 15.6222 205.111 15.6222C207.615 15.6222 207.999 15.7252 210.69 17.1161C215.374 19.5374 215.866 19.661 217.679 18.8758C218.527 18.5091 220.214 18.024 221.428 17.798C224.336 17.2569 223.992 16.9592 218.171 14.9785C209.771 12.1208 206.825 11.5326 200.83 11.5165C195.621 11.5021 195.529 11.5151 193.009 12.6166C190.335 13.7853 186.982 15.9536 181.189 20.2574C177.803 22.7735 177.7 22.8916 176.661 25.4076C174.87 29.7472 174.54 30.3374 173.094 31.8004C171.658 33.2517 169.035 34.4781 166.484 34.8901C165.451 35.057 165.13 34.9962 165.14 34.6361ZM403.639 33.0618C403.492 32.7233 403.404 32.3099 403.441 32.143C403.719 30.9266 398.757 26.4376 397.135 26.4376C396.12 26.4376 396.134 26.5678 397.341 28.4675C398.616 30.474 400.186 31.9968 402.109 33.0927C403.746 34.0266 404.053 34.0204 403.639 33.0618ZM169.421 33.0938C171.44 32.2436 172.596 31.2874 173.669 29.5796C175.621 26.4706 174.709 26.334 170.973 29.1762C168.245 31.252 166.971 32.7051 167.344 33.3142C167.621 33.7671 167.89 33.7382 169.421 33.0938ZM7.01925 31.8975C9.65779 30.9564 12.0036 28.8905 11.0848 28.3168C10.4568 27.925 7.2491 28.5314 5.32018 29.4062C2.58201 30.6484 1.09613 32.2838 2.3287 32.6986C2.87307 32.8819 5.53303 32.4277 7.01925 31.8975ZM26.2663 29.5305C27.2551 28.7769 28.5094 27.502 29.0541 26.6979C30.149 25.0814 31.0647 22.793 30.7457 22.471C30.2007 21.9206 26.8773 24.6643 24.8651 27.3259C23.6931 28.8764 23.2453 30.9011 24.0742 30.9011C24.2912 30.9011 25.2775 30.2845 26.2663 29.5305ZM80.2337 29.7966C80.9491 29.5803 82.1731 28.8198 82.9538 28.1063L84.3734 26.8091L83.3533 26.7978C80.3952 26.7645 76.2422 27.9418 74.0028 29.4488L73.1528 30.0208L74.1729 30.267C75.4153 30.5671 78.4669 30.3302 80.2337 29.7966ZM319.326 29.1398C320.261 28.7896 321.505 28.2059 322.092 27.843C323.164 27.1786 325.158 24.8301 324.884 24.5537C324.63 24.2969 318.771 26.3988 317.278 27.2826C316.082 27.9903 314.736 29.4285 314.736 29.9981C314.736 30.3061 317.682 29.7554 319.326 29.1398ZM256.32 28.9269C256.801 28.4074 257.442 27.4883 257.744 26.884C258.383 25.605 258.498 22.8778 257.905 23.0773C257.148 23.3321 254.893 27.5655 254.893 28.7315C254.893 30.1176 255.181 30.1571 256.32 28.9269ZM645.913 29.3029C645.913 28.255 643.092 25.9995 639.893 24.4898C638.161 23.6727 636.66 23.0042 636.557 23.0042C635.76 23.0042 639.012 26.7885 640.964 28.1324C643.366 29.787 645.913 30.3892 645.913 29.3029ZM561.929 28.3933C561.929 27.1752 556.922 23.8042 554.428 23.3438C553.245 23.1254 553.148 23.1611 553.437 23.707C554.116 24.9884 556.67 27.2407 558.327 28.0198C560.241 28.9197 561.929 29.0948 561.929 28.3933ZM677.535 28.3673C677.535 27.7506 675.156 25.798 672.709 24.4054C670.864 23.3558 667.335 22.608 667.335 23.2668C667.335 23.7578 670.525 26.6869 671.723 27.2957C674.668 28.7923 677.535 29.3207 677.535 28.3673ZM200.857 28.0421C202.306 27.5631 204.098 26.1894 203.741 25.832C203.602 25.6929 202.373 25.5978 201.011 25.6205C199.1 25.6521 198.078 25.8732 196.537 26.5884L194.539 27.5154L195.389 27.9944C196.414 28.5719 199.183 28.5959 200.857 28.0421ZM505.18 26.0414C507.946 25.5803 508.245 24.8589 505.991 24.0816C504.893 23.7025 504.097 23.6892 501.796 24.0105C500.235 24.2289 498.558 24.6711 498.07 24.9932L497.184 25.5793L498.87 25.9755C501.11 26.5019 502.342 26.5149 505.18 26.0414ZM221.059 24.871C222.264 23.9425 223.611 21.9505 223.611 21.0962C223.611 20.1702 222.478 20.6032 220.435 22.3099C219.751 22.882 217.831 25.5594 217.831 25.9415C217.831 26.4311 219.943 25.7304 221.059 24.871ZM587.882 24.211C588.568 23.8818 589.13 23.4876 589.13 23.3352C589.13 22.7645 586.495 22.1788 584.03 22.2018C581.258 22.2279 577.497 23.3935 578.666 23.8646C581.832 25.1405 585.643 25.2837 587.882 24.211ZM417.739 23.1594C419.777 21.6809 421.467 19.362 421.739 17.6727C421.895 16.6997 421.823 16.4806 421.346 16.4806C419.458 16.4806 415.041 21.5941 415.041 23.7808C415.041 24.9932 415.29 24.9355 417.739 23.1594ZM465.704 24.0232C465.704 22.873 464.456 21.1216 462.305 19.2518C458.594 16.0271 457.085 15.5907 458.408 18.1249C459.403 20.0308 461.566 22.2701 463.487 23.3826C465.344 24.4586 465.704 24.5623 465.704 24.0232ZM20.9597 22.9723C21.8576 22.7776 22.8512 22.3302 23.1671 21.9776C23.7158 21.3654 23.6832 21.3204 22.4357 20.9705C19.4428 20.1314 14.4935 20.9438 12.7132 22.5664C12.0542 23.1669 12.0587 23.1793 13.0172 23.4138C14.2072 23.7053 18.7383 23.4533 20.9597 22.9723ZM53.4783 22.3697C55.1821 21.477 56.7857 19.959 57.5014 18.5616C58.0448 17.5 58.0427 17.4571 57.4514 17.6349C57.1107 17.7376 56.3729 17.9282 55.8119 18.0586C53.1505 18.677 48.8415 21.7273 48.8415 22.9929C48.8415 23.513 49.052 23.5546 50.5032 23.3232C51.4168 23.1772 52.7558 22.748 53.4783 22.3697ZM165.808 23.4145C165.808 22.7511 161.869 18.3985 160.442 17.4849C157.734 15.7503 156.226 16.3903 157.627 18.6797C158.991 20.907 161.721 22.883 164.108 23.3695C165.818 23.7177 165.808 23.7177 165.808 23.4145ZM243.329 22.7467C243.321 22.0991 241.234 18.9057 240.078 17.7716C238.462 16.1874 236.139 14.9225 235.382 15.2157C234.845 15.4234 234.845 15.5107 235.371 16.539C236.222 18.2001 239.273 21.1168 241.153 22.0668C243.039 23.0196 243.333 23.1117 243.329 22.7467ZM110.25 21.9522C112.076 20.8126 114.079 18.2622 114.637 16.368C115.296 14.1246 115.281 13.9793 114.435 14.4367C112.24 15.6229 109.239 19.4324 108.816 21.5693C108.562 22.8524 108.734 22.8984 110.25 21.9522ZM142.457 22.2052C143.172 21.9838 143.763 21.648 143.77 21.4591C143.786 21.0004 139.683 20.3048 136.804 20.2784C134.586 20.2581 132.486 20.9005 132.486 21.5996C132.486 22.3934 140.314 22.8689 142.457 22.2052ZM681.093 21.3383C682.208 20.9328 683.339 20.3803 683.607 20.1108C684.027 19.6854 683.916 19.5869 682.769 19.3692C682.041 19.2312 680.495 19.2823 679.334 19.4828C677.197 19.8523 673.455 21.511 673.455 22.0888C673.455 22.6516 678.971 22.1094 681.093 21.3383ZM702.016 21.8214C702.016 21.2054 695.66 15.604 694.422 15.1285C693.689 14.8473 693.516 14.8796 693.516 15.2988C693.516 16.2729 695.181 19.1367 696.305 20.094C698.483 21.9508 702.016 23.0196 702.016 21.8214ZM482.777 20.9187C484.669 20.1688 487.23 18.345 488.05 17.1628C488.521 16.4847 488.488 16.4669 487.032 16.6042C486.204 16.6822 484.854 17.0519 484.031 17.4258C482.324 18.2011 479.064 20.5602 478.814 21.2016C478.547 21.8828 480.738 21.7263 482.777 20.9187ZM732.617 21.0299C732.616 20.256 728.049 18.6979 725.92 18.7457C724.475 18.7779 722.758 19.4282 722.758 19.9436C722.758 20.6059 726.787 21.5776 729.643 21.6037C732.26 21.6277 732.618 21.5587 732.617 21.0299ZM438.927 20.5918C440.439 20.1572 440.513 19.8907 439.282 19.3132C437.516 18.4851 433.654 18.9379 431.752 20.1966L430.908 20.7549L431.73 21.0097C432.774 21.3328 437.254 21.0729 438.927 20.5918ZM657.922 17.7664C659.104 16.2938 660.534 13.7184 660.534 13.0609C660.534 12.2396 659.132 12.8085 657.497 14.2935C655.695 15.9295 654.83 17.2593 654.399 19.0557C654.263 19.6222 654.032 20.3817 653.885 20.7433C653.468 21.7712 656.504 19.5323 657.922 17.7664ZM75.7029 19.9003C75.7029 19.1872 74.2439 16.6248 73.2011 15.5062C71.9083 14.1194 69.8536 13.0042 68.3279 12.8611C66.8285 12.7203 66.838 13.4774 68.3534 14.9208C72.5435 18.9108 75.7029 21.0516 75.7029 19.9003ZM211.71 19.5779C212.163 19.2885 212.163 19.1999 211.71 18.7827C210.576 17.739 206.972 16.4476 205.42 16.529C203.599 16.6241 203.605 16.9857 205.447 18.2633C207.489 19.6792 210.546 20.3209 211.71 19.5779ZM534.047 19.43C534.047 18.7422 531.648 15.7644 530.091 14.5208C528.75 13.4485 526.247 12.2262 525.968 12.5074C525.667 12.8109 527.905 16.3275 529.181 17.557C531.31 19.6075 534.047 20.6608 534.047 19.43ZM382.399 18.8724C382.841 18.574 382.82 18.4586 382.245 18.0161C380.338 16.5472 372.539 15.8705 372.539 17.1738C372.539 17.3592 372.774 17.5106 373.061 17.5106C373.348 17.5106 373.964 17.7627 374.429 18.0706C374.895 18.379 375.769 18.7494 376.373 18.894C377.993 19.2827 381.812 19.2689 382.399 18.8724ZM349.679 17.5965C352.424 15.5038 354.178 12.9287 354.178 10.9891C354.178 10.3241 354.122 10.3121 353.214 10.7859C350.046 12.4405 346.552 16.7683 347.139 18.3124C347.451 19.1333 347.786 19.0389 349.679 17.5965ZM396.09 18.3261C397.017 18.0511 393.846 16.4834 391.591 16.1019C389.175 15.6933 386.119 16.0264 386.364 16.6719C386.461 16.9259 387.199 17.3881 388.005 17.6988C390.66 18.7227 393.906 18.9743 396.09 18.3261ZM564.279 18.667C565.324 18.4559 565.337 18.4318 564.746 17.7723C563.045 15.8725 556.829 14.3155 556.829 15.7891C556.829 16.2341 558.944 17.4585 560.969 18.1846C563.14 18.9633 562.949 18.9355 564.279 18.667ZM611.904 18.3786C613.129 16.8878 607.329 11.6738 604.445 11.6738C603.876 11.6738 603.411 11.7654 603.411 11.877C603.411 12.7368 607.964 17.3352 609.65 18.1778C611.334 19.0197 611.374 19.0234 611.904 18.3786ZM285.367 17.5206C286.479 16.9592 288.048 15.9306 288.854 15.2346C290.066 14.186 290.226 13.9165 289.781 13.6652C288.365 12.8652 282.107 15.9045 281.046 17.9072C280.49 18.9561 282.961 18.7347 285.367 17.5206ZM311.336 18.3134C311.336 17.7204 309.095 14.665 307.726 13.3908C306.36 12.1194 303.549 10.4947 303.246 10.8013C303.182 10.8655 303.485 11.6611 303.918 12.5696C304.48 13.7493 305.46 14.8374 307.35 16.3807C309.64 18.2516 311.336 19.0736 311.336 18.3134ZM715.489 16.1675C717.719 15.1144 720.377 12.9284 720.377 12.149C720.377 11.4595 718.664 11.5515 716.575 12.3526C714.798 13.0344 711.399 15.978 711.742 16.5383C711.839 16.6955 711.755 16.824 711.557 16.824C711.359 16.824 711.197 16.9977 711.197 17.2102C711.197 17.774 713.031 17.3287 715.489 16.1675ZM45.6232 15.9261C46.0843 15.6212 46.4614 15.2593 46.4614 15.122C46.4614 14.5311 42.0959 13.5622 39.4342 13.5622C35.2452 13.5622 35.1646 14.1682 39.1629 15.6044C41.9242 16.596 44.4226 16.7206 45.6232 15.9261ZM336.045 15.5213C336.893 15.1992 337.593 14.781 337.601 14.5922C337.625 14.0356 335.163 13.795 332.675 14.1101C329.103 14.563 328.054 15.3682 330.122 16.0693C331.485 16.5311 334.001 16.2986 336.045 15.5213ZM89.9568 15.6281C92.5267 15.0822 95.8827 13.5186 95.5726 13.0118C95.0578 12.1713 89.8334 12.9362 86.9483 14.275C85.1656 15.1024 85.0925 15.1834 85.7134 15.6459C86.5396 16.2609 86.9854 16.2592 89.9568 15.6281ZM635.425 14.3653C637.539 13.4468 637.263 13.2786 632.724 12.7141C629.322 12.2914 628.465 12.357 625.541 13.2635C624.593 13.5574 625.713 14.0597 628.409 14.551C632.224 15.2463 633.472 15.2133 635.425 14.3653ZM753.594 13.8739C754.564 13.6044 755.586 13.1532 755.864 12.872C756.143 12.5905 756.565 12.3605 756.803 12.3605C757.098 12.3605 757.125 12.2489 756.887 12.0089C755.991 11.1038 748.376 11.761 746.102 12.94C744.885 13.5711 745.081 13.7586 747.5 14.2825C749.583 14.7337 750.792 14.6526 753.594 13.8739ZM547.696 13.4763C550.007 11.5285 551.443 9.55429 550.927 9.03343C550.826 8.9318 550.06 9.18279 549.223 9.59171C547.677 10.3474 546.217 11.9457 545.617 13.5388C545.333 14.2935 545.378 14.4205 545.93 14.4205C546.285 14.4205 547.08 13.9958 547.696 13.4763ZM189.78 12.1033L191.102 11.4183L189.081 10.8123C187.969 10.4793 186.135 10.2156 185.007 10.2266C183.01 10.2461 180.089 11.1158 180.089 11.6909C180.089 13.1203 187.23 13.4241 189.78 12.1033ZM741.094 11.1447C743.338 9.24837 745.164 6.88752 745.41 5.56426C745.526 4.94109 745.531 4.34161 745.423 4.23174C745.114 3.91998 741.931 6.10881 740.798 7.4125C739.852 8.49953 738.058 11.9646 738.058 12.7028C738.058 13.2538 739.432 12.5486 741.094 11.1447ZM101.884 12.0669C101.884 11.5436 98.3026 8.33575 96.9272 7.62743C94.3271 6.28769 91.3438 5.87843 91.3438 6.86108C91.3438 7.25113 95.2305 10.1826 96.9452 11.086C97.698 11.4829 99.0027 11.911 99.8442 12.0381C100.686 12.1647 101.489 12.2894 101.629 12.3144C101.77 12.3399 101.884 12.2283 101.884 12.0669ZM513.344 8.85215C514.31 6.9198 514.63 5.15019 514.013 5.15019C513.841 5.15019 513.15 5.79877 512.478 6.59122C511.123 8.1888 510.417 10.2619 510.76 11.6339L510.984 12.5321L511.673 11.6748C512.051 11.2034 512.803 9.933 513.344 8.85215ZM132.486 11.7919C132.486 11.4355 130.86 9.37781 129.666 8.22314C128.405 7.00323 126.004 5.68478 124.411 5.33697C123.435 5.12376 123.305 5.18109 123.305 5.82727C123.305 7.18932 127.104 10.0236 130.956 11.5351C132.224 12.0326 132.486 12.0765 132.486 11.7919ZM215.79 11.6106C215.79 10.848 212.5 7.99928 210.535 7.06091C208.288 5.98727 206.675 6.04873 207.277 7.1852C207.811 8.19292 210.055 9.84511 212.431 10.9802C214.73 12.0782 215.79 12.2774 215.79 11.6106ZM269.139 10.8288C273.197 9.73833 271.586 8.77593 266.113 9.02142C262.223 9.19584 261.302 9.42279 261.574 10.1383C262.019 11.3112 265.994 11.6741 269.139 10.8288ZM448.391 9.31154C450.645 8.5579 452.035 7.86571 452.897 7.06881C454.581 5.5107 454.516 5.0798 452.628 5.30847C449.933 5.63499 447.28 6.84872 445.728 8.46486C444.316 9.93472 443.858 10.8751 444.708 10.5593C444.942 10.4724 446.599 9.91068 448.391 9.31154ZM571.543 8.92597C572.756 8.5476 573.93 8.01644 574.153 7.7452C574.489 7.33731 574.315 7.17902 573.146 6.82537C572.018 6.48409 571.31 6.48443 569.636 6.82675C567.441 7.27584 564.82 8.71653 565.167 9.28339C565.516 9.85266 569.241 9.6439 571.543 8.92597ZM372.879 8.65095C372.879 8.0137 370.837 5.21818 369.403 3.89183C367.918 2.51879 366.123 1.37338 365.455 1.37338C364.82 1.37338 366.157 4.3265 367.376 5.61748C369.458 7.82108 372.879 9.70674 372.879 8.65095ZM690.19 7.71018C692.745 7.19756 695.803 5.60547 695.269 5.06641C695.087 4.88204 693.738 4.7883 692.272 4.85766C689.287 4.99946 686.109 6.25542 686.319 7.21027C686.381 7.49353 686.319 7.61061 686.18 7.47087C685.9 7.18795 685.016 7.80735 685.016 8.28631C685.016 8.61352 686.533 8.4446 690.19 7.71018ZM598.387 5.78676C600.537 4.02058 602.046 2.44978 602.049 1.97424C602.056 0.968922 597.804 2.62522 596.358 4.19157C595.218 5.4259 594.211 7.67207 594.668 7.95773C595.168 8.26983 595.843 7.87567 598.387 5.78676ZM764.072 5.67929C766.082 4.68599 767.486 3.32805 767.12 2.72995C766.775 2.16617 764.229 2.50368 761.743 3.44273C759.607 4.24959 757.307 6.0295 757.658 6.60323C758.03 7.21164 762.181 6.61353 764.072 5.67929Z" fill="#964B48"/>
</svg>
