<svg width="266" height="140" viewBox="0 0 266 140" fill="none" xmlns="http://www.w3.org/2000/svg">
<path fill-rule="evenodd" clip-rule="evenodd" d="M1.49971 12.7641C3.12692 14.8732 6.95669 16.6347 18.2044 20.4477C27.7732 23.6906 28.6406 24.029 29.0911 24.6952C29.3352 25.0568 29.9598 25.3864 30.4789 25.4282C30.9975 25.47 31.806 25.8172 32.2751 26.2002C32.7442 26.5826 34.9067 27.9998 37.0815 29.3488C39.2557 30.6983 41.3828 32.0737 41.8084 32.4048C42.2335 32.7358 44.5829 34.4838 47.0287 36.2887C49.4746 38.0935 51.5806 39.7304 51.7088 39.9258C52.0888 40.5049 53.6965 41.8754 57.0969 44.5211C58.8581 45.8905 60.5781 47.4121 60.9187 47.9026C61.2598 48.3924 61.8734 48.8207 62.2817 48.8536C62.6905 48.8866 63.0007 49.2144 62.971 49.5822C62.9414 49.9499 63.2464 50.2774 63.6495 50.3098C64.052 50.3423 65.4567 51.1783 66.7715 52.1685C68.0858 53.1581 70.0572 54.5431 71.1523 55.2458C72.2473 55.9491 73.5264 56.843 73.9949 57.2327C74.4634 57.6231 75.2179 57.9719 75.6714 58.0085C76.125 58.045 76.776 58.5019 77.1182 59.0235C78.1952 60.6649 72.1824 61.1395 59.7443 60.393C45.6238 59.546 41.6097 60.2031 32.4167 64.868C30.7613 65.7077 29.1174 66.3714 28.7643 66.343C28.4106 66.3145 28.0998 66.5593 28.0734 66.8876C28.047 67.2153 27.425 67.6255 26.6912 67.7986C25.9575 67.9716 25.3334 68.4086 25.3043 68.769C25.2752 69.1301 24.9566 69.4012 24.5967 69.3722C24.2362 69.3431 23.5787 69.9342 23.136 70.686C21.2168 73.9421 24.7522 75.2385 40.826 77.1736C53.5557 78.706 65.5691 78.1113 76.0697 75.4288C78.2744 74.8662 80.852 74.308 81.7971 74.189C82.7421 74.0699 83.5375 73.704 83.5638 73.377C83.5902 73.0494 83.8688 72.8019 84.1834 72.8273C84.8617 72.8819 87.535 71.6685 91.9134 69.3179C94.967 67.6789 95.2438 67.648 98.5164 68.5806C112.573 72.5876 118.36 73.8413 131.414 75.7074C137.14 76.5262 138.167 76.833 137.613 77.5569C137.247 78.0342 136.431 78.383 135.798 78.332C135.166 78.2811 134.465 78.4406 134.24 78.6863C134.015 78.932 132.764 79.5506 131.46 80.0621C127.254 81.7105 121.668 86.3261 114.512 94.0638C110.666 98.2239 107.416 101.619 107.29 101.609C107.164 101.599 105.596 102.629 103.805 103.898C102.015 105.167 99.2306 106.496 97.6184 106.85C94.7939 107.471 92.9441 107.995 87.1719 109.81C78.8148 112.437 74.7344 115.605 74.7213 119.478C74.7081 123.312 78.6498 125.809 82.8024 124.597C88.4224 122.955 90.6689 122.166 93.2259 120.935C94.8069 120.174 96.5482 119.587 97.0953 119.632C97.643 119.676 98.2597 119.422 98.4662 119.069C98.6726 118.715 99.2374 118.456 99.7213 118.493C100.205 118.529 101.308 118.164 102.171 117.681C103.035 117.197 104.002 116.823 104.321 116.849C104.882 116.894 106.704 116.237 117.615 112.056C131.637 106.683 142.991 99.8378 149.594 92.7784C152.662 89.499 157.691 82.4562 157.783 81.3115C157.809 80.9885 158.284 80.2071 158.839 79.5754C159.706 78.5886 161.1 78.4627 168.727 78.6842C183.983 79.126 194.664 79.1891 200.082 78.8693C202.954 78.6995 205.406 78.7174 205.532 78.9092C205.658 79.1011 205.371 79.2267 204.894 79.1883C204.417 79.1499 204.003 79.4194 203.973 79.7871C203.944 80.1549 203.392 80.4227 202.748 80.3822C202.103 80.3417 200.346 80.9546 198.843 81.744C197.339 82.5335 195.836 83.16 195.502 83.1365C195.168 83.113 194.799 83.3127 194.681 83.5811C194.564 83.849 193.483 84.595 192.28 85.2384C184.357 89.4752 177.393 96.5695 173.457 104.416C172.787 105.751 172.059 106.828 171.838 106.81C171.617 106.792 171.4 107.229 171.355 107.78C171.311 108.332 171.056 108.766 170.789 108.744C170.523 108.723 170.115 109.273 169.883 109.967C169.651 110.662 168.447 112.338 167.207 113.691C165.107 115.984 163.711 116.724 158.192 118.472C155.705 119.259 152.365 120.802 151.939 121.359C151.778 121.57 150.708 122.514 149.56 123.456C148.124 124.633 147.311 125.873 146.956 127.424C146.346 130.087 146.896 131.396 149.272 132.93C153.304 135.533 166.857 136.034 172.14 133.774C172.737 133.519 174.438 132.873 175.921 132.336C183.185 129.712 194.763 119.612 197.42 113.582C197.656 113.046 197.996 112.468 198.175 112.296C198.796 111.702 200.68 107.673 200.751 106.785C200.791 106.294 201.006 105.806 201.231 105.701C201.455 105.596 202.203 104.358 202.892 102.951C204.503 99.6631 207.347 96.505 211.529 93.3592C216.3 89.7709 217.569 88.4127 219.863 84.4324C220.985 82.487 222.096 80.8099 222.332 80.7057C222.568 80.6009 222.793 80.1109 222.833 79.6168C222.946 78.2159 225.631 76.2242 227.761 75.9624C229.946 75.6943 236.196 74.5363 238.999 73.8812C247.124 71.9824 256.504 69.3806 257.758 68.6781C258.22 68.4192 259.366 68.0559 260.303 67.871C261.241 67.6861 262.165 67.2679 262.356 66.9414C262.71 66.3339 265.263 66.2839 265.214 66.8857C265.199 67.0682 264.283 68.5847 263.178 70.2549C262.073 71.9244 260.67 74.4623 260.06 75.8937C259.45 77.3251 258.555 79.268 258.073 80.2118C257.591 81.1555 257.146 82.5585 257.084 83.3288C257.022 84.0998 256.762 84.7135 256.507 84.6929C256.252 84.6724 255.836 85.396 255.582 86.3009C255.329 87.2058 254.892 87.9277 254.611 87.9052C254.33 87.8825 254.066 88.2394 254.022 88.6989C253.925 89.7107 248.048 96.1253 247.275 96.063C246.973 96.0387 246.63 96.2378 246.512 96.5063C246.395 96.7741 244.922 97.9947 243.24 99.2173C239.595 101.868 235.18 106.394 232.387 110.342C231.273 111.918 230.226 113.348 230.061 113.52C229.343 114.266 225.476 122.058 223.797 126.139C222.441 129.435 221.031 134.46 220.858 136.615C220.696 138.623 220.872 139.07 222.014 139.542C224.77 140.683 231.03 138.203 235.862 134.056C238.877 131.468 246.148 123.523 251.781 116.661C254.175 113.744 258.729 108.513 261.9 105.037C270.802 95.2775 273.002 89.3614 274.107 72.2169C274.799 61.4811 274.704 61.7259 278.866 59.8814C280.209 59.2863 281.439 58.6471 281.597 58.462C281.756 58.277 283.244 57.3597 284.903 56.4247C286.562 55.4889 288.321 54.3459 288.813 53.8842C289.305 53.4231 289.887 53.0595 290.106 53.0771C290.325 53.0948 291.294 52.4918 292.259 51.7364C294.514 49.9718 296.609 48.7919 296.846 49.1535C296.949 49.3092 296.258 51.1521 295.312 53.2483C294.366 55.3445 293.278 57.7597 292.894 58.6157C291.984 60.6395 290.637 77.7968 291.179 80.453C292.1 84.967 292.327 90.9683 291.817 97.2965C291.336 103.272 291.094 104.362 289.542 107.545C287.509 111.712 286.617 113.264 285.498 114.581C284.13 116.192 280.933 121.776 279.146 125.677C276.937 130.5 276.618 134.228 278.147 137.353C279.151 139.404 279.588 139.719 281.657 139.886C282.957 139.991 284.801 139.617 285.755 139.056C287.528 138.012 294.656 130.288 294.733 129.327C294.791 128.606 304.327 114.515 304.916 114.28C305.173 114.177 305.418 113.667 305.46 113.146C305.502 112.624 305.755 112.216 306.021 112.237C306.288 112.259 306.686 111.738 306.906 111.081C307.125 110.424 307.759 109.331 308.314 108.653C308.87 107.975 309.856 106.259 310.506 104.841C311.156 103.423 311.92 101.787 312.204 101.206C313.311 98.9414 314.586 91.6688 314.549 87.8338C314.483 80.9982 313.357 76.6312 308.224 63.3082C304.91 54.7067 304.176 52.0303 303.971 47.8008C303.846 45.2367 303.801 45.1711 303.081 46.5238C302.262 48.0636 302.065 55.1357 302.822 55.8428C303.052 56.0578 303.194 56.8075 303.137 57.5089C303.043 58.6791 304.134 63.5137 304.68 64.3464C304.809 64.5418 305.461 66.563 306.131 68.8378C306.801 71.1127 307.489 73.1367 307.661 73.3356C308.18 73.936 310.2 81.6235 310.529 84.2552C311.36 90.8812 310.695 94.7283 307.537 101.592C306.026 104.876 299.56 114.938 297.052 117.908C296.467 118.601 294.29 121.909 292.214 125.258C290.139 128.607 287.617 132.038 286.611 132.882C279.808 138.589 279.313 131.535 285.828 121.715C289.677 115.91 293.805 108.362 293.922 106.912C293.985 106.127 294.312 105.184 294.648 104.816C295.747 103.616 296.25 83.7595 295.246 81.1556C294.681 79.6873 295.122 67.8922 295.92 63.1735C296.831 57.7748 297.613 55.1835 299.898 49.9782C300.725 48.0912 301.42 46.3408 301.44 46.088C301.461 45.8346 304.394 42.5209 307.959 38.7237C311.524 34.9265 315.223 30.671 316.178 29.2674C317.133 27.8637 318.053 26.575 318.221 26.4036C319.161 25.4496 322.536 19.2352 322.305 18.8841C322.155 18.6553 320.31 20.2591 318.204 22.449C308.563 32.4752 304.113 36.8013 302.744 37.4771C301.186 38.246 298.732 36.2809 295.304 31.5212C294.13 29.8901 292.321 27.3775 291.285 25.9386C288.596 22.2008 283.317 17.1149 278.586 13.7053C276.345 12.0899 274.386 10.7576 274.233 10.7453C274.081 10.733 272.779 9.89929 271.341 8.89234C269.902 7.88542 267.598 6.43588 266.22 5.67137C264.842 4.90753 263.498 4.05216 263.232 3.77034C261.625 2.066 250.882 0.307375 247.732 1.23332C237.845 4.13884 231.146 8.92385 230.791 13.3337C230.621 15.4459 232.552 19.5009 233.775 19.5995C234.157 19.6302 234.449 19.9061 234.424 20.2124C234.341 21.2455 240.179 22.9306 247.982 24.1259C252.248 24.7792 257.34 25.8969 259.298 26.6092C261.256 27.3222 263.545 28.156 264.384 28.4626C265.223 28.7691 266.358 29.302 266.906 29.647C271.681 32.6504 283.112 39.0537 283.798 39.1089C284.272 39.1471 284.76 39.4381 284.882 39.7562C285.005 40.0737 286.783 40.8401 288.833 41.4583C290.884 42.0764 293.222 42.8032 294.03 43.0722L295.499 43.5621L293.874 45.0167C292.979 45.8169 291.955 46.4585 291.596 46.443C291.238 46.4276 290.925 46.6474 290.902 46.9316C290.879 47.2157 289.936 47.9695 288.804 48.6065C287.674 49.2436 286.618 49.909 286.46 50.0847C286.302 50.2611 284.45 51.3259 282.344 52.4517C280.237 53.5775 278.383 54.6617 278.223 54.8615C278.063 55.0606 276.775 55.7139 275.36 56.3133C273.945 56.912 272.769 57.6282 272.745 57.9036C272.722 58.179 272.437 58.3835 272.112 58.3573C271.787 58.3312 269.091 59.3253 266.121 60.5666C263.15 61.8078 259.867 62.7546 258.824 62.67C256.032 62.445 248.784 57.8775 246.885 55.1469C246.543 54.6571 246.091 54.2417 245.879 54.2247C245.668 54.2076 245.084 53.6255 244.582 52.9316C244.079 52.2376 243.085 50.9879 242.372 50.1545C241.659 49.321 239.738 46.8491 238.103 44.6614C236.469 42.473 234.599 39.9749 233.949 39.1096C233.299 38.2442 232.011 36.6787 231.088 35.6305C230.165 34.5823 229.305 33.5634 229.177 33.366C228.822 32.8185 224.896 29.6642 222.785 28.2302C217.421 24.5858 202.189 21.433 195.965 22.678C194.235 23.0238 192.8 23.5462 192.777 23.8377C192.753 24.1299 192.379 24.34 191.944 24.305C190.661 24.2016 187.23 28.5157 186.677 30.9269C185.534 35.9133 187.007 39.3902 191.542 42.4092C192.908 43.3189 194.473 44.3629 195.02 44.7286C195.566 45.095 196.585 45.6018 197.284 45.856C197.984 46.1095 200.616 47.0653 203.134 47.9788C209.799 50.3982 216.782 52.5532 218.373 52.6814C219.135 52.7428 219.735 53.094 219.705 53.4617C219.676 53.8295 220.101 54.1666 220.649 54.2108C221.198 54.255 222.275 54.7779 223.042 55.3734C224.862 56.7852 228.632 59.3085 231.837 61.2601C233.244 62.1171 234.594 63.1149 234.838 63.4785C235.083 63.8414 235.677 64.1706 236.159 64.2095C236.642 64.2483 237.67 64.7835 238.445 65.3991C239.22 66.0141 240.25 66.5514 240.734 66.593C242.236 66.7208 242.159 67.8674 240.606 68.4712C239.793 68.7879 237.215 69.3878 234.878 69.8059C232.541 70.2233 229.039 70.8752 227.096 71.2544C225.153 71.6335 222.732 71.8766 221.718 71.7948C220.703 71.7131 219.703 71.9354 219.497 72.2889C219.29 72.6424 218.258 72.8627 217.202 72.779C216.146 72.6953 213.258 72.8913 210.785 73.2143C208.311 73.5379 204.236 73.8287 201.728 73.8615C197.72 73.9128 196.848 73.7106 194.533 72.1962C193.084 71.2483 191.798 70.2624 191.674 70.0048C191.551 69.7478 190.94 69.2841 190.318 68.9735C189.695 68.6635 189.208 68.1296 189.236 67.7866C189.263 67.4436 188.935 67.1344 188.506 67.0999C188.077 67.0653 187.748 66.7562 187.776 66.4131C187.803 66.0701 187.382 65.5651 186.839 65.2911C185.556 64.6426 179.873 55.9816 179.589 54.2425C179.469 53.5061 179.153 52.8863 178.886 52.8648C178.619 52.8433 178.437 52.3744 178.482 51.8227C178.526 51.2711 178.344 50.8021 178.077 50.7806C177.81 50.7591 177.483 50.0517 177.349 49.2077C177.214 48.3637 176.973 47.5117 176.811 47.3136C176.65 47.1156 175.975 45.2441 175.312 43.1548C174.039 39.1469 170.854 31.9994 169.974 31.1747C169.687 30.906 168.941 30.0134 168.316 29.1904C167.69 28.3667 166.882 27.6697 166.521 27.6406C166.159 27.6114 165.804 27.3553 165.731 27.0721C165.526 26.2804 161.975 23.9093 160.858 23.8193C160.313 23.7754 159.757 23.456 159.624 23.1101C159.491 22.7636 158.229 22.1793 156.819 21.8114C155.41 21.4434 154.148 20.8592 154.014 20.5126C153.881 20.1667 153.186 19.8362 152.47 19.7785C151.754 19.7207 150.104 19.1706 148.804 18.5564C143.49 16.0453 141.862 15.6207 139.609 16.1599C133.786 17.5543 134.132 22.271 140.668 30.5963C141.452 31.5942 142.488 32.6125 142.973 32.8588C143.456 33.1058 143.83 33.5881 143.802 33.9311C143.775 34.2742 144.103 34.5833 144.532 34.6179C144.961 34.6524 145.291 34.9489 145.264 35.2772C145.238 35.6048 145.786 36.1093 146.483 36.3976C147.179 36.6859 147.726 37.2172 147.697 37.5776C147.667 37.9387 147.889 38.2533 148.189 38.2775C148.488 38.3016 149.955 39.5026 151.448 40.946C154.16 43.5685 157.76 48.8367 160.889 54.7609C163.273 59.2756 170.232 69.8505 171.804 71.3488C172.54 72.0495 173.105 73.0675 173.062 73.6105C172.993 74.4617 170.605 74.4065 155.784 73.2123L138.585 71.8266L136.827 69.8342C133.134 65.6474 128.352 56.015 126.125 48.2772C125.689 46.7614 125.187 45.3548 125.01 45.1521C124.833 44.9488 124.594 43.9429 124.478 42.916C124.362 41.8884 124.072 40.8663 123.834 40.6439C123.596 40.4208 123.447 39.6799 123.502 38.9965C123.557 38.3138 123.435 37.6404 123.23 37.5C123.025 37.3604 122.217 35.1733 121.434 32.6397C119.067 24.9807 115.591 19.2325 111.504 16.22C109.395 14.6657 104.944 12.1985 96.4067 7.85222C93.0773 6.1572 83.2064 2.8368 80.7847 2.59725C78.726 2.39302 76.1183 3.35663 76.0383 4.35025C75.7777 7.58388 82.5381 17.1925 91.5383 26.382C93.2675 28.1473 94.7421 29.8241 94.8151 30.1072C94.8886 30.3904 95.2605 30.6479 95.6417 30.6786C96.023 30.7093 96.3947 30.9688 96.468 31.2546C96.5407 31.5411 97.5647 32.9111 98.7428 34.2982C101.046 37.0109 105.521 43.6566 106.088 45.2078C106.892 47.4059 110.401 53.4381 115.104 60.7072C117.869 64.9808 120.032 68.5866 119.91 68.7195C119.707 68.9414 116.553 68.2747 106.932 65.9752C102.432 64.8999 97.0677 63.1317 95.5618 62.227C94.9311 61.8478 93.9005 61.4828 93.2714 61.4159C92.6423 61.3491 91.3005 60.8305 90.2898 60.2638C88.2267 59.1076 81.2619 52.2249 78.7351 48.8448C77.8254 47.6281 76.2208 45.6157 75.1693 44.3728C74.1177 43.1298 72.1269 40.0634 70.7452 37.5582C69.3635 35.053 68.026 32.6483 67.7731 32.214C67.5202 31.7798 66.4159 29.5352 65.3194 27.2259C62.5204 21.3317 56.7243 12.9698 54.063 10.9867C52.8289 10.0669 51.7174 9.12062 51.5925 8.88376C51.4676 8.6469 50.6776 8.21981 49.8368 7.93402C48.996 7.6489 47.0478 6.97775 45.5073 6.4431C41.9095 5.19353 25.6162 3.87737 20.8024 4.44717C18.7676 4.6877 15.9133 5.02841 14.4596 5.20336C11.3005 5.58414 7.20142 6.73648 6.45207 7.4541C6.15595 7.73779 5.48358 7.93532 4.95879 7.89303C3.76513 7.79686 1.4817 9.38825 0.987597 10.6608C0.782884 11.1874 1.01338 12.134 1.49971 12.7641ZM10.995 10.8446C19.1691 8.72909 31.5657 8.34021 39.2295 9.95913C47.6129 11.7296 50.0801 12.9385 54.0632 17.2288C56.4162 19.7631 59.7641 25.1604 62.8544 31.4018C63.7134 33.1367 64.5336 34.717 64.6764 34.9136C64.8192 35.1102 65.6368 36.6903 66.4921 38.4249C68.5325 42.56 70.884 46.1333 73.7679 49.479C75.9097 51.9646 75.9794 52.1459 74.5862 51.609C72.9468 50.9769 72.3011 50.5446 65.8941 45.7891C61.4727 42.508 59.8906 41.19 59.5167 40.4775C59.3919 40.2393 58.7804 39.7916 58.1574 39.4809C57.5343 39.171 57.0475 38.6371 57.0752 38.2941C57.1028 37.951 56.7697 37.6415 56.3349 37.6065C55.9001 37.5715 54.7273 36.7804 53.7282 35.8486C52.0119 34.2479 46.5847 30.1569 42.7573 27.5798C41.8014 26.9361 39.7917 25.5662 38.2911 24.5367C36.7905 23.5066 34.3186 22.0247 32.798 21.244C31.2773 20.4633 29.5845 19.5462 29.036 19.2059C28.4876 18.8656 26.2057 17.9501 23.9651 17.1713C21.7244 16.3932 18.9161 15.3902 17.7245 14.9436C16.5324 14.4969 15.1512 14.0962 14.6552 14.0543C13.1281 13.9252 9.9612 12.3051 10.0117 11.6786C10.0379 11.353 10.4802 10.9774 10.995 10.8446ZM37.0698 67.7027C38.3053 67.3379 39.8059 66.8087 40.4045 66.5264C43.1312 65.2413 47.6448 64.9421 58.2987 65.3402C64.6139 65.5758 72.3953 65.4813 75.5907 65.1304C85.3254 64.0599 87.3427 64.0697 89.4996 65.1978C91.7185 66.3571 91.4665 67.1384 88.6566 67.8118C87.667 68.049 85.2944 68.6285 83.385 69.0998C81.4755 69.5712 78.9564 70.1374 77.7869 70.3582C76.6175 70.5789 73.866 71.1049 71.6727 71.5265C62.9151 73.2107 48.189 73.5007 39.1647 72.1672C35.6081 71.6417 32.5125 71.0457 32.2855 70.8424C31.6815 70.3018 34.4755 68.4682 37.0698 67.7027ZM86.4139 9.1125C88.0836 9.64141 90.1303 10.3965 90.9624 10.79C91.7944 11.1834 93.8393 12.1168 95.5067 12.8635C99.6281 14.7092 101.877 15.7909 103.066 16.4984C103.616 16.8254 105.502 17.8947 107.258 18.8747C109.675 20.2243 111.176 21.7121 113.439 25.0037C115.082 27.394 116.399 29.6987 116.364 30.1253C116.33 30.552 116.575 31.3235 116.91 31.8397C117.486 32.728 122.631 49.8074 122.566 50.6151C122.524 51.1286 125.156 57.9812 126.02 59.6074C127.253 61.9304 131.109 67.8593 131.403 67.8829C131.559 67.8955 132.258 68.7386 132.956 69.7558L134.223 71.6057L131.321 71.0899C128.874 70.6552 127.927 70.0445 125.286 67.1982C121.095 62.6826 113.17 50.4631 109.528 42.9019C106.842 37.3257 96.6018 24.026 94.888 23.8879C94.5978 23.8645 94.3824 23.5692 94.4096 23.2315C94.4368 22.8932 93.6374 21.8543 92.6326 20.922C91.6282 19.9904 90.398 18.6583 89.8997 17.9627C89.4008 17.2676 88.5804 16.4895 88.0758 16.2348C87.5713 15.9802 87.1809 15.4911 87.2085 15.1481C87.2362 14.805 87.0076 14.5039 86.7002 14.4792C85.8587 14.4114 82.5326 9.17195 82.9845 8.62554C83.2007 8.36502 84.7436 8.58355 86.4139 9.1125ZM82.5563 116.743C87.2766 114.475 86.855 114.621 95.8836 112.139C96.7669 111.897 98.3086 111.552 99.3092 111.373C101.331 111.013 105.126 108.91 108.117 106.494C110.48 104.585 109.931 105.134 117.584 97.0268C126.385 87.7029 129.256 85.7429 143.272 79.4922C144.019 79.1593 145.028 78.6739 145.513 78.4142C145.999 78.1545 148.903 77.9282 151.967 77.9112C156.736 77.8849 157.525 78.0252 157.456 78.8845C157.318 80.5902 142.784 94.3739 141.253 94.2505C141.11 94.239 140.509 94.7202 139.916 95.3205C139.323 95.9208 137.65 97.0728 136.198 97.8812C134.746 98.6896 133.427 99.5141 133.267 99.7139C133.107 99.913 131.819 100.566 130.404 101.166C128.989 101.764 127.813 102.481 127.789 102.756C127.766 103.031 127.393 103.229 126.959 103.194C126.527 103.159 125.742 103.388 125.217 103.703C123.765 104.573 119.828 106.265 115.328 107.952C113.102 108.787 110.852 109.708 110.328 109.998C109.805 110.289 109.019 110.497 108.582 110.462C108.146 110.427 107.359 110.647 106.834 110.951C106.31 111.255 103.581 112.271 100.77 113.21C95.4528 114.985 94.7878 115.239 91.5063 116.757C90.4144 117.262 89.2605 117.654 88.9422 117.629C88.6238 117.603 87.933 117.847 87.4069 118.173C86.1365 118.957 79.8965 120.173 79.5841 119.696C78.9863 118.786 79.6254 118.151 82.5563 116.743ZM141.182 20.8879C143.015 21.0356 146.115 22.2289 151.447 24.8391C153.582 25.8839 155.748 26.7725 156.261 26.8146C157.538 26.9175 162.316 29.7899 164.398 31.7047C167.213 34.2951 168.294 36.389 172.728 47.8474C176.904 58.6403 182.389 68.626 184.223 68.7738C184.63 68.8066 184.948 69.0597 184.929 69.3354C184.91 69.6112 185.782 70.4877 186.866 71.2823C187.95 72.077 188.805 73.1298 188.765 73.6226C188.655 74.996 181.787 74.2644 179.501 72.6352C175.314 69.6517 170.325 63.0547 165 53.4628C160.59 45.5173 156.126 39.1431 153.006 36.3344C145.918 29.9519 139.468 22.7527 139.581 21.3479C139.607 21.0262 140.328 20.8191 141.182 20.8879ZM156.145 124.391C157.342 123.822 159.653 122.911 161.281 122.366C162.908 121.821 165.233 120.74 166.448 119.963C168.576 118.602 173.52 113.214 173.616 112.152C173.682 111.414 178.688 103.032 179.199 102.804C179.433 102.699 179.649 102.308 179.679 101.934C179.796 100.474 187.987 92.632 189.284 92.7365C189.589 92.7611 189.86 92.5238 189.885 92.2096C189.93 91.6566 195.914 88.3699 206.043 83.3344C214.151 79.3042 214.759 78.9878 215.058 78.6478C216.407 77.1164 221.517 76.456 221.406 77.8268C221.377 78.1945 221.119 78.4766 220.832 78.4535C220.546 78.4305 220.284 78.764 220.249 79.1946C220.172 80.1555 212.756 87.8977 211.974 87.8347C211.566 87.8019 206.425 91.7305 206.198 92.2486C206.08 92.5163 205.709 92.7261 205.375 92.7139C203.896 92.6601 197.415 103.669 195.46 109.554C195.25 110.186 194.888 110.686 194.654 110.667C194.421 110.648 194.045 111.185 193.82 111.86C193.417 113.065 187.415 120.179 186.84 120.133C186.558 120.11 185.759 120.772 184.067 122.433C183.631 122.86 183.043 123.192 182.76 123.169C182.478 123.146 182.15 123.347 182.032 123.615C181.524 124.775 174.162 128.104 168.956 129.529C164.717 130.688 152.934 130.081 151.998 128.656C151.317 127.617 153.003 125.882 156.145 124.391ZM194.142 28.4319C199.42 25.9344 210.769 27.3898 218.785 31.5912C221.818 33.1809 226.299 36.594 226.244 37.2727C226.22 37.5809 226.55 37.8613 226.979 37.8959C227.409 37.9305 227.737 38.2396 227.709 38.5826C227.682 38.9256 228.066 39.4115 228.564 39.6629C229.061 39.9143 230.319 41.3226 231.359 42.7935C232.399 44.2644 234.493 47.082 236.013 49.0552C237.532 51.0284 239.008 52.9704 239.292 53.3715C240.692 55.3458 244.844 59.4714 246.61 60.642C247.703 61.3668 248.982 62.268 249.451 62.645C249.921 63.022 250.748 63.3659 251.289 63.4095C251.83 63.4531 252.527 63.9636 252.839 64.5439C253.322 65.4429 253.17 65.58 251.814 65.4708C249.201 65.2603 241.689 62.1992 238.289 59.9595C237.469 59.4189 236.014 58.4665 235.057 57.8422C234.099 57.2186 232.198 55.9611 230.832 55.0481C223.923 50.4305 223.087 49.8988 221.122 48.8696C219.368 47.9509 216.93 47.1636 210.153 45.3268C208.18 44.7923 205.77 44.0092 204.796 43.5869C203.822 43.1645 201.768 42.3509 200.23 41.7801C195.537 40.0371 190.985 36.7219 190.445 34.6554C189.77 32.0678 191.065 29.8873 194.142 28.4319ZM227.099 128.438C228.069 125.918 229.066 123.77 229.316 123.667C229.565 123.564 229.794 123.155 229.826 122.758C229.883 122.056 233.193 116.252 234.386 114.761C234.713 114.352 236.036 112.604 237.327 110.876C238.618 109.148 240.857 106.807 242.302 105.674C243.748 104.541 244.96 103.388 244.995 103.114C245.031 102.84 245.304 102.634 245.603 102.658C246.203 102.707 252.029 98.1932 253.4 96.6178C255.71 93.9632 258.192 90.0787 259.415 87.2053C260.158 85.4588 261.204 83.0039 261.739 81.7508C264.688 74.8486 267.888 68.7876 269.834 66.418C272.282 63.4373 273.74 62.9235 272.944 65.3226C272.489 66.6959 270.568 76.177 269.355 83.0361C268.012 90.6324 265.765 94.6065 257.955 103.205C254.093 107.457 249.234 113.027 247.156 115.582C241.137 122.986 236.232 128.112 232.903 130.48C231.203 131.688 229.658 132.903 229.468 133.18C228.97 133.906 225.234 134.279 225.289 133.596C225.314 133.28 226.129 130.959 227.099 128.438ZM235.836 11.9782C236.287 11.4856 236.887 11.1012 237.17 11.124C237.452 11.1468 237.78 10.9463 237.898 10.6779C238.207 9.9713 241.635 8.11876 242.503 8.18871C242.908 8.22139 243.261 7.99808 243.286 7.69184C243.361 6.76173 248.169 5.79511 252.558 5.82772C256.492 5.85664 259.672 6.85721 263.445 9.25421C275.11 16.6657 280.716 20.8128 284.443 24.7876C285.703 26.1315 286.849 27.2408 286.99 27.2521C287.131 27.2635 288.549 28.8597 290.141 30.799C293.12 34.4283 297.421 38.1876 298.714 38.2917C299.117 38.3242 299.41 38.8021 299.365 39.3537C299.321 39.9054 298.921 40.3274 298.477 40.2916C296.884 40.1633 290.289 37.481 286.972 35.6127C285.113 34.5652 281.957 32.7966 279.96 31.6827C277.962 30.5688 275.429 29.1169 274.331 28.4571C265.014 22.8554 260.834 21.3995 248.616 19.4997C237.153 17.7167 232.882 15.2035 235.836 11.9782Z" fill="#964B48"/>
</svg>
